{
.appVersion = "1161";
classes = (
{
code = "a b c d e g h i j k l m n o p q r s t u v w x y z\012agrave aacute acircumflex atilde adieresis aring ae\012ccedilla egrave eacute ecircumflex edieresis igrave\012iacute icircumflex idieresis eth ntilde ograve\012oacute ocircumflex otilde odieresis oslash ugrave\012uacute ucircumflex udieresis yacute thorn ydieresis\012germandbls amacron emacron imacron omacron umacron\012abreve cdotaccent dcaron ebreve eogonek gdotaccent\012ibreve dotlessi lslash obreve oe tcaron ubreve\012longs uni0195 uni01BF uni01E3 uni01EB uni021D\012uni0233 uni0237 uni1D79 uni1E8F uni1E9C uniA741\012uniA751 uniA753 uniA757 uniA75D uniA76B uniA76F\012uniA77A uniA77A.alt uniA77C uniA783 uniA785 uniA787\012# uniFB00 uniFB01 uniFB02 uniFB03 uniFB04\012uniFB05 uniFB06\012# f_f_udieresis f_thorn f_thorn.nordic f_eth.nordic\012# f_j f_udieresis f_odieresis\012";
name = AllLowerCaseexclf;
},
{
code = "agrave acircumflex atilde adieresis aring egrave\012ecircumflex edieresis igrave iacute icircumflex\012idieresis ograve ocircumflex otilde odieresis\012ugrave ucircumflex udieresis ydieresis amacron\012abreve emacron ebreve imacron ibreve omacron\012obreve umacron ubreve uni01E3\012";
name = HighDiacritics;
},
{
code = "f uniFB00 f.alt uniFB00.alt";
name = LowerCase_f;
},
{
code = "acutecomb gravecomb tildecomb uni0302 uni0304\012uni0305 uni0306 uni0307 uni0308 uni030A uni030C\012uni035B";
name = CombDiacritics;
}
);
copyright = "Copyright (c) 2018 by Peter S. Baker";
customParameters = (
{
name = licenseURL;
value = "http://scripts.sil.org/OFL";
},
{
name = license;
value = "Licensed under the SIL Open Font License, version 1.1";
},
{
name = panose;
value = (
0,
0,
5,
0,
0,
0,
0,
0,
0,
0
);
},
{
name = unicodeRanges;
value = (
0,
1,
2,
3,
4,
5,
6,
29,
31,
36,
42,
79,
86
);
},
{
name = codePageRanges;
value = (
1252,
1250,
1254,
1257,
1258
);
},
{
name = glyphOrder;
value = (
.notdef,
uni0000,
uni000D,
A,
AE,
AEacute,
Aacute,
Abreve,
Acircumflex,
Adieresis,

glyphs = (
{
glyphname = .notdef;
lastChange = "2018-08-15 19:03:07 +0000";
layers = (
{
layerId = "6CE37295-6E30-426D-87AF-6FEE9061C297";
paths = (
{
closed = 1;
nodes = (
"932 -132 LINE",
"932 1508 LINE",
"68 1508 LINE",
"68 -132 LINE"
);
},
{
closed = 1;
nodes = (
"364 -31 OFFCURVE",
"296 38 OFFCURVE",
"296 86 QCURVE SMOOTH",
"296 141 OFFCURVE",
"362 213 OFFCURVE",
"414 213 QCURVE SMOOTH",
"466 213 OFFCURVE",
"534 139 OFFCURVE",
"534 86 QCURVE SMOOTH",
"534 33 OFFCURVE",
"466 -31 OFFCURVE",
"414 -31 QCURVE SMOOTH"
);
},
{
closed = 1;
nodes = (
"310 562 OFFCURVE",
"310 637 QCURVE SMOOTH",
"310 682 OFFCURVE",
"367 758 OFFCURVE",
"424 788 QCURVE SMOOTH",
"530 844 LINE SMOOTH",
"646 906 OFFCURVE",
"646 995 QCURVE SMOOTH",
"646 1194 OFFCURVE",
"354 1194 QCURVE SMOOTH",
"286 1194 OFFCURVE",
"286 1280 QCURVE SMOOTH",
"286 1362 OFFCURVE",
"370 1362 QCURVE SMOOTH",
"500 1362 OFFCURVE",
"614 1231 QCURVE SMOOTH",
"732 1097 OFFCURVE",
"732 930 QCURVE SMOOTH",
"732 784 OFFCURVE",
"650 741 QCURVE SMOOTH",
"484 653 LINE SMOOTH",
"410 614 OFFCURVE",
"410 563 QCURVE SMOOTH",
"410 509 OFFCURVE",
"430 438 QCURVE",
"386 426 LINE"
);
}
);
userData = {
assembly = "MPPEM[ ]\011/* MeasurePixelPerEm */
PUSHB[ ]\011/* 1 value pushed */
51 
LT[ ]\011/* LessThan */
IF[ ]\011/* If */
NPUSHB[ ]\011/* 35 values pushed */
6 1 0 1 2 1 0 2 128 0 2 3 1 2 3 126 0 3 7 1 5 3 5 99 0 1 1 4 95 0 4 4 70 1 78 
ELSE[ ]\011/* Else */
NPUSHB[ ]\011/* 41 values pushed */
6 1 0 1 2 1 0 2 128 0 2 3 1 2 3 126 0 4 0 1 0 4 1 105 0 3 5 5 3 89 0 3 3 5 95 7 1 5 3 5 79 
EIF[ ]\011/* EndIf */
NPUSHB[ ]\011/* 23 values pushed */
44 44 1 0 44 47 44 47 46 45 41 39 33 31 25 23 0 27 1 27 8 11 22 
CALL[ ]\011/* CallFunction */";
};
width = 1024;
},
{
layerId = "EBD25FEC-6C57-4903-A936-5FDFC9C63FB2";
paths = (
{
closed = 1;
nodes = (
"932 -132 LINE",
"932 1508 LINE",
"68 1508 LINE",
"68 -132 LINE"
);
},
{
closed = 1;
nodes = (
"364 -31 OFFCURVE",
"296 38 OFFCURVE",
"296 86 QCURVE SMOOTH",
"296 141 OFFCURVE",
"362 213 OFFCURVE",
"414 213 QCURVE SMOOTH",
"466 213 OFFCURVE",
"534 139 OFFCURVE",
"534 86 QCURVE SMOOTH",
"534 33 OFFCURVE",
"466 -31 OFFCURVE",
"414 -31 QCURVE SMOOTH"
);
},
{
closed = 1;
nodes = (
"310 562 OFFCURVE",
"310 637 QCURVE SMOOTH",
"310 682 OFFCURVE",
"367 758 OFFCURVE",
"424 788 QCURVE SMOOTH",
"530 844 LINE SMOOTH",
"646 906 OFFCURVE",
"646 995 QCURVE SMOOTH",
"646 1194 OFFCURVE",
"354 1194 QCURVE SMOOTH",
"286 1194 OFFCURVE",
"286 1280 QCURVE SMOOTH",
"286 1362 OFFCURVE",
"370 1362 QCURVE SMOOTH",
"500 1362 OFFCURVE",
"614 1231 QCURVE SMOOTH",
"732 1097 OFFCURVE",
"732 930 QCURVE SMOOTH",
"732 784 OFFCURVE",
"650 741 QCURVE SMOOTH",
"484 653 LINE SMOOTH",
"410 614 OFFCURVE",
"410 563 QCURVE SMOOTH",
"410 509 OFFCURVE",
"430 438 QCURVE",
"386 426 LINE"
);
}
);
width = 1024;
}
);
note = .notdef;
},
{
glyphname = uni0000;
lastChange = "2018-08-15 19:03:30 +0000";
layers = (
{
layerId = "6CE37295-6E30-426D-87AF-6FEE9061C297";
paths = (
{
closed = 1;
nodes = (
"932 -132 LINE",
"932 1508 LINE",
"68 1508 LINE",
"68 -132 LINE"
);
},
{
closed = 1;
nodes = (
"364 -31 OFFCURVE",
"296 38 OFFCURVE",
"296 86 QCURVE SMOOTH",
"296 141 OFFCURVE",
"362 213 OFFCURVE",
"414 213 QCURVE SMOOTH",
"466 213 OFFCURVE",
"534 139 OFFCURVE",
"534 86 QCURVE SMOOTH",
"534 33 OFFCURVE",
"466 -31 OFFCURVE",
"414 -31 QCURVE SMOOTH"
);
},
{
closed = 1;
nodes = (
"310 562 OFFCURVE",
"310 637 QCURVE SMOOTH",
"310 682 OFFCURVE",
"367 758 OFFCURVE",
"424 788 QCURVE SMOOTH",
"530 844 LINE SMOOTH",
"646 906 OFFCURVE",
"646 995 QCURVE SMOOTH",
"646 1194 OFFCURVE",
"354 1194 QCURVE SMOOTH",
"286 1194 OFFCURVE",
"286 1280 QCURVE SMOOTH",
"286 1362 OFFCURVE",
"370 1362 QCURVE SMOOTH",
"500 1362 OFFCURVE",
"614 1231 QCURVE SMOOTH",
"732 1097 OFFCURVE",
"732 930 QCURVE SMOOTH",
"732 784 OFFCURVE",
"650 741 QCURVE SMOOTH",
"484 653 LINE SMOOTH",
"410 614 OFFCURVE",
"410 563 QCURVE SMOOTH",
"410 509 OFFCURVE",
"430 438 QCURVE",
"386 426 LINE"
);
}
);
userData = {
assembly = "MPPEM[ ]\011/* MeasurePixelPerEm */
PUSHB[ ]\011/* 1 value pushed */
51 
LT[ ]\011/* LessThan */
IF[ ]\011/* If */
NPUSHB[ ]\011/* 35 values pushed */
6 1 0 1 2 1 0 2 128 0 2 3 1 2 3 126 0 3 7 1 5 3 5 99 0 1 1 4 95 0 4 4 70 1 78 
ELSE[ ]\011/* Else */
NPUSHB[ ]\011/* 41 values pushed */
6 1 0 1 2 1 0 2 128 0 2 3 1 2 3 126 0 4 0 1 0 4 1 105 0 3 5 5 3 89 0 3 3 5 95 7 1 5 3 5 79 
EIF[ ]\011/* EndIf */
NPUSHB[ ]\011/* 23 values pushed */
44 44 1 0 44 47 44 47 46 45 41 39 33 31 25 23 0 27 1 27 8 11 22 
CALL[ ]\011/* CallFunction */";
};
width = 1024;
},
{
layerId = "EBD25FEC-6C57-4903-A936-5FDFC9C63FB2";
paths = (
{
closed = 1;
nodes = (
"932 -132 LINE",
"932 1508 LINE",
"68 1508 LINE",
"68 -132 LINE"
);
},
{
closed = 1;
nodes = (
"364 -31 OFFCURVE",
"296 38 OFFCURVE",
"296 86 QCURVE SMOOTH",
"296 141 OFFCURVE",
"362 213 OFFCURVE",
"414 213 QCURVE SMOOTH",
"466 213 OFFCURVE",
"534 139 OFFCURVE",
"534 86 QCURVE SMOOTH",
"534 33 OFFCURVE",
"466 -31 OFFCURVE",
"414 -31 QCURVE SMOOTH"
);
},
{
closed = 1;
nodes = (
"310 562 OFFCURVE",
"310 637 QCURVE SMOOTH",
"310 682 OFFCURVE",
"367 758 OFFCURVE",
"424 788 QCURVE SMOOTH",
"530 844 LINE SMOOTH",
"646 906 OFFCURVE",
"646 995 QCURVE SMOOTH",
"646 1194 OFFCURVE",
"354 1194 QCURVE SMOOTH",
"286 1194 OFFCURVE",
"286 1280 QCURVE SMOOTH",
"286 1362 OFFCURVE",
"370 1362 QCURVE SMOOTH",
"500 1362 OFFCURVE",
"614 1231 QCURVE SMOOTH",
"732 1097 OFFCURVE",
"732 930 QCURVE SMOOTH",
"732 784 OFFCURVE",
"650 741 QCURVE SMOOTH",
"484 653 LINE SMOOTH",
"410 614 OFFCURVE",
"410 563 QCURVE SMOOTH",
"410 509 OFFCURVE",
"430 438 QCURVE",
"386 426 LINE"
);
}
);
width = 1024;
}
);
note = uni0000;
},
{
glyphname = A;
lastChange = "2018-08-12 20:16:36 +0000";
layers = (
{
anchors = (
{
name = bottom;
position = "{700, 0}";
},
{
name = ogonek;
position = "{1260, 10}";
},
{
name = top;
position = "{700, 1358}";
}
);
background = {
paths = (
{
closed = 1;
nodes = (
"444 1 LINE",
"444 86 LINE",
"336 86 OFFCURVE",
"287 111 OFFCURVE",
"287 160 CURVE SMOOTH",
"287 171 OFFCURVE",
"291 184 OFFCURVE",
"297 201 CURVE SMOOTH",
"416 522 LINE",
"837 522 LINE",
"944 203 LINE SMOOTH",
"951 182 OFFCURVE",
"954 165 OFFCURVE",
"954 152 CURVE SMOOTH",
"954 108 OFFCURVE",
"922 86 OFFCURVE",
"848 86 CURVE",
"848 0 LINE",
"1409 0 LINE",
"1409 86 LINE",
"1291 86 OFFCURVE",
"1223 125 OFFCURVE",
"1196 203 CURVE SMOOTH",
"852 1178 LINE SMOOTH",
"825 1253 OFFCURVE",
"802 1317 OFFCURVE",
"790 1389 CURVE",
"746 1389 LINE",
"700 1358 OFFCURVE",
"590 1304 OFFCURVE",
"527 1281 CURVE",
"527 1259 LINE",
"540 1246 OFFCURVE",
"550 1234 OFFCURVE",
"557 1218 CURVE",
"174 217 LINE SMOOTH",
"141 130 OFFCURVE",
"74 86 OFFCURVE",
"-37 86 CURVE",
"-37 1 LINE"
);
},
{
closed = 1;
nodes = (
"624 1090 LINE",
"641 1090 LINE",
"806 606 LINE",
"448 606 LINE"
);
}
);
};
layerId = "6CE37295-6E30-426D-87AF-6FEE9061C297";
paths = (
{
closed = 1;
nodes = (
"444 1 LINE",
"444 86 LINE",
"336 86 OFFCURVE",
"287 111 OFFCURVE",
"287 160 CURVE SMOOTH",
"287 171 OFFCURVE",
"291 184 OFFCURVE",
"297 201 CURVE SMOOTH",
"415 518 LINE",
"838 518 LINE",
"944 203 LINE SMOOTH",
"951 182 OFFCURVE",
"954 165 OFFCURVE",
"954 152 CURVE SMOOTH",
"954 108 OFFCURVE",
"922 86 OFFCURVE",
"848 86 CURVE",
"848 0 LINE",
"1409 0 LINE",
"1409 86 LINE",
"1291 86 OFFCURVE",
"1223 125 OFFCURVE",
"1196 203 CURVE SMOOTH",
"852 1178 LINE SMOOTH",
"825 1253 OFFCURVE",
"802 1317 OFFCURVE",
"790 1389 CURVE",
"746 1389 LINE",
"700 1358 OFFCURVE",
"590 1304 OFFCURVE",
"527 1281 CURVE",
"527 1259 LINE",
"540 1246 OFFCURVE",
"550 1234 OFFCURVE",
"557 1218 CURVE",
"174 217 LINE SMOOTH",
"141 130 OFFCURVE",
"74 86 OFFCURVE",
"-37 86 CURVE",
"-37 1 LINE"
);
},
{
closed = 1;
nodes = (
"624 1090 LINE",
"641 1090 LINE",
"806 606 LINE",
"448 606 LINE"
);
}
);
userData = {
assembly = "NPUSHB[ ]\011/* 11 values pushed */
61 56 2 9 8 1 76 32 1 1 73 
MPPEM[ ]\011/* MeasurePixelPerEm */
PUSHB[ ]\011/* 1 value pushed */
51 
LT[ ]\011/* LessThan */
IF[ ]\011/* If */
NPUSHB[ ]\011/* 36 values pushed */
0 8 7 9 7 8 9 128 0 9 0 3 0 9 3 103 0 7 7 74 77 6 4 2 3 0 0 1 97 5 1 1 1 69 1 78 
ELSE[ ]\011/* Else */
MPPEM[ ]\011/* MeasurePixelPerEm */
PUSHB[ ]\011/* 1 value pushed */
60 
LT[ ]\011/* LessThan */
IF[ ]\011/* If */
NPUSHB[ ]\011/* 33 values pushed */
0 8 7 9 7 8 9 128 0 9 0 3 0 9 3 103 6 4 2 3 0 5 1 1 0 1 101 0 7 7 74 7 78 
ELSE[ ]\011/* Else */
NPUSHB[ ]\011/* 41 values pushed */
0 7 8 7 133 0 8 9 8 133 0 9 0 3 0 9 3 103 6 4 2 3 0 1 1 0 89 6 4 2 3 0 0 1 97 5 1 1 0 1 81 
EIF[ ]\011/* EndIf */
EIF[ ]\011/* EndIf */
NPUSHB[ ]\011/* 14 values pushed */
60 58 36 41 35 50 21 53 34 66 17 10 11 31 
CALL[ ]\011/* CallFunction */";
};
width = 1400;
},
{
anchors = (
{
name = bottom;
position = "{683, 0}";
},
{
name = ogonek;
position = "{1229, 10}";
},
{
name = top;
position = "{683, 1358}";
}
);
layerId = "EBD25FEC-6C57-4903-A936-5FDFC9C63FB2";
paths = (
{
closed = 1;
nodes = (
"433 0 LINE",
"433 57 LINE",
"322 57 OFFCURVE",
"267 81 OFFCURVE",
"267 130 CURVE SMOOTH",
"267 142 OFFCURVE",
"270 155 OFFCURVE",
"276 170 CURVE SMOOTH",
"407 531 LINE",
"893 531 LINE",
"1008 175 LINE SMOOTH",
"1013 158 OFFCURVE",
"1016 141 OFFCURVE",
"1016 126 CURVE SMOOTH",
"1016 81 OFFCURVE",
"961 58 OFFCURVE",
"885 58 CURVE",
"885 0 LINE",
"1348 0 LINE",
"1348 58 LINE",
"1236 58 OFFCURVE",
"1176 97 OFFCURVE",
"1150 175 CURVE SMOOTH",
"799 1222 LINE SMOOTH",
"781 1276 OFFCURVE",
"765 1331 OFFCURVE",
"752 1385 CURVE",
"719 1385 LINE",
"679 1353 OFFCURVE",
"606 1304 OFFCURVE",
"559 1277 CURVE",
"559 1257 LINE",
"574 1244 OFFCURVE",
"581 1232 OFFCURVE",
"588 1215 CURVE",
"196 189 LINE SMOOTH",
"157 86 OFFCURVE",
"135 57 OFFCURVE",
"-4 57 CURVE",
"-4 0 LINE"
);
},
{
closed = 1;
nodes = (
"649 1192 LINE",
"680 1192 LINE",
"870 600 LINE",
"429 600 LINE"
);
}
);
width = 1365;
}
);
leftKerningGroup = A;
note = A;
rightKerningGroup = A;
unicode = 0041;
},
{
glyphname = AE;
lastChange = "2018-08-18 15:14:41 +0000";
layers = (
{
anchors = (
{
name = bottom;
position = "{922, 0}";
},
{
name = top;
position = "{1222, 1358}";
}
);
layerId = "6CE37295-6E30-426D-87AF-6FEE9061C297";
paths = (
{
closed = 1;
nodes = (
"369 0 LINE",
"369 69 LINE",
"258 69 OFFCURVE",
"208 93 OFFCURVE",
"208 142 CURVE SMOOTH",
"208 154 OFFCURVE",
"208 167 OFFCURVE",
"217 182 CURVE SMOOTH",
"455 594 LINE",
"832 594 LINE",
"832 203 LINE SMOOTH",
"832 125 OFFCURVE",
"777 86 OFFCURVE",
"659 86 CURVE",
"659 0 LINE",
"1780 0 LINE",
"1780 354 LINE",
"1677 354 LINE",
"1677 299 OFFCURVE",
"1670 260 OFFCURVE",
"1659 227 CURVE SMOOTH",
"1628 137 OFFCURVE",
"1559 92 OFFCURVE",
"1454 90 CURVE SMOOTH",
"1231 86 LINE",
"1202 86 OFFCURVE",
"1175 93 OFFCURVE",
"1149 106 CURVE SMOOTH",
"1100 131 OFFCURVE",
"1075 169 OFFCURVE",
"1075 221 CURVE SMOOTH",
"1075 594 LINE",
"1239 594 LINE SMOOTH",
"1321 594 OFFCURVE",
"1362 565 OFFCURVE",
"1362 506 CURVE SMOOTH",
"1362 417 LINE",
"1463 417 LINE",
"1463 881 LINE",
"1362 881 LINE",
"1362 778 LINE SMOOTH",
"1362 717 OFFCURVE",
"1321 686 OFFCURVE",
"1239 686 CURVE SMOOTH",
"1075 686 LINE",
"1075 1266 LINE",
"1399 1255 LINE SMOOTH",
"1442 1254 OFFCURVE",
"1484 1238 OFFCURVE",
"1524 1206 CURVE SMOOTH",
"1589 1155 OFFCURVE",
"1622 1087 OFFCURVE",
"1622 991 CURVE",
"1722 991 LINE",
"1722 1358 LINE",
"531 1358 LINE",
"531 1272 LINE",
"613 1272 OFFCURVE",
"661 1271 OFFCURVE",
"702 1237 CURVE",
"91 201 LINE SMOOTH",
"32 101 OFFCURVE",
"25 69 OFFCURVE",
"-114 69 CURVE",
"-114 0 LINE"
);
},
{
closed = 1;
nodes = (
"809 1206 LINE",
"832 1206 LINE",
"832 686 LINE",
"508 686 LINE"
);
}
);
userData = {
assembly = "NPUSHB[ ]\011/* 13 values pushed */
97 71 57 3 9 6 92 78 2 1 2 2 76 
MPPEM[ ]\011/* MeasurePixelPerEm */
PUSHB[ ]\011/* 1 value pushed */
51 
LT[ ]\011/* LessThan */
IF[ ]\011/* If */
NPUSHB[ ]\011/* 36 values pushed */
12 1 9 10 1 2 1 9 2 103 8 1 6 6 7 95 0 7 7 68 77 11 5 3 3 1 1 0 95 4 1 0 0 69 0 78 
ELSE[ ]\011/* Else */
MPPEM[ ]\011/* MeasurePixelPerEm */
PUSHB[ ]\011/* 1 value pushed */
60 
LT[ ]\011/* LessThan */
IF[ ]\011/* If */
NPUSHB[ ]\011/* 33 values pushed */
12 1 9 10 1 2 1 9 2 103 11 5 3 3 1 4 1 0 1 0 99 8 1 6 6 7 95 0 7 7 68 6 78 
ELSE[ ]\011/* Else */
NPUSHB[ ]\011/* 42 values pushed */
0 7 8 1 6 9 7 6 105 12 1 9 10 1 2 1 9 2 103 11 5 3 3 1 0 0 1 89 11 5 3 3 1 1 0 95 4 1 0 1 0 79 
EIF[ ]\011/* EndIf */
EIF[ ]\011/* EndIf */
NPUSHB[ ]\011/* 20 values pushed */
108 105 91 88 85 82 70 67 56 114 23 34 82 21 51 34 99 13 11 31 
CALL[ ]\011/* CallFunction */";
};
width = 1843;
},
{
anchors = (
{
name = bottom;
position = "{840, 0}";
},
{
name = top;
position = "{1100, 1358}";
}
);
layerId = "EBD25FEC-6C57-4903-A936-5FDFC9C63FB2";
paths = (
{
closed = 1;
nodes = (
"319 0 LINE",
"319 69 LINE",
"208 69 OFFCURVE",
"158 93 OFFCURVE",
"158 142 CURVE SMOOTH",
"158 154 OFFCURVE",
"159 167 OFFCURVE",
"167 182 CURVE SMOOTH",
"399 612 LINE",
"763 612 LINE",
"763 166 LINE SMOOTH",
"763 94 OFFCURVE",
"701 58 OFFCURVE",
"566 58 CURVE",
"566 0 LINE",
"1600 0 LINE",
"1600 342 LINE",
"1535 342 LINE",
"1535 290 OFFCURVE",
"1530 254 OFFCURVE",
"1520 222 CURVE SMOOTH",
"1488 119 OFFCURVE",
"1408 65 OFFCURVE",
"1276 61 CURVE SMOOTH",
"1041 54 LINE",
"1006 54 OFFCURVE",
"975 65 OFFCURVE",
"950 86 CURVE SMOOTH",
"907 122 OFFCURVE",
"885 179 OFFCURVE",
"885 254 CURVE SMOOTH",
"885 612 LINE",
"1119 612 LINE SMOOTH",
"1223 612 OFFCURVE",
"1236 574 OFFCURVE",
"1236 517 CURVE SMOOTH",
"1236 425 LINE",
"1295 425 LINE",
"1295 872 LINE",
"1236 872 LINE",
"1236 788 LINE SMOOTH",
"1236 709 OFFCURVE",
"1223 671 OFFCURVE",
"1119 671 CURVE SMOOTH",
"885 671 LINE",
"885 1297 LINE",
"1210 1290 LINE SMOOTH",
"1292 1288 OFFCURVE",
"1354 1267 OFFCURVE",
"1397 1226 CURVE SMOOTH",
"1445 1181 OFFCURVE",
"1468 1111 OFFCURVE",
"1468 1008 CURVE",
"1533 1008 LINE",
"1533 1358 LINE",
"546 1358 LINE",
"546 1300 LINE",
"614 1300 OFFCURVE",
"637 1293 OFFCURVE",
"666 1264 CURVE",
"79 201 LINE SMOOTH",
"23 99 OFFCURVE",
"13 69 OFFCURVE",
"-126 69 CURVE",
"-126 0 LINE"
);
},
{
closed = 1;
nodes = (
"738 1237 LINE",
"763 1237 LINE",
"763 671 LINE",
"431 671 LINE"
);
}
);
width = 1680;
}
);
leftKerningGroup = AE;
note = AE;
unicode = 00C6;
},
{
glyphname = Aring;
lastChange = "2018-08-08 00:31:53 +0000";
layers = (
{
layerId = "6CE37295-6E30-426D-87AF-6FEE9061C297";
paths = (
{
closed = 1;
nodes = (
"444 0 LINE",
"444 86 LINE",
"336 86 OFFCURVE",
"287 111 OFFCURVE",
"287 160 CURVE SMOOTH",
"287 171 OFFCURVE",
"291 184 OFFCURVE",
"297 201 CURVE SMOOTH",
"416 522 LINE",
"837 522 LINE",
"944 203 LINE SMOOTH",
"951 182 OFFCURVE",
"954 165 OFFCURVE",
"954 152 CURVE SMOOTH",
"954 108 OFFCURVE",
"922 86 OFFCURVE",
"848 86 CURVE",
"848 0 LINE",
"1409 0 LINE",
"1409 86 LINE",
"1291 86 OFFCURVE",
"1223 125 OFFCURVE",
"1196 203 CURVE SMOOTH",
"852 1178 LINE SMOOTH",
"842 1206 OFFCURVE",
"833 1234 OFFCURVE",
"825 1261 CURVE",
"888 1301 OFFCURVE",
"929 1367 OFFCURVE",
"929 1446 CURVE SMOOTH",
"929 1575 OFFCURVE",
"825 1669 OFFCURVE",
"683 1669 CURVE SMOOTH",
"544 1669 OFFCURVE",
"437 1578 OFFCURVE",
"437 1446 CURVE SMOOTH",
"437 1357 OFFCURVE",
"489 1282 OFFCURVE",
"567 1246 CURVE",
"174 217 LINE SMOOTH",
"141 130 OFFCURVE",
"74 86 OFFCURVE",
"-37 86 CURVE",
"-37 0 LINE"
);
},
{
closed = 1;
nodes = (
"624 1090 LINE",
"641 1090 LINE",
"806 606 LINE",
"448 606 LINE"
);
},
{
closed = 1;
nodes = (
"615 1307 OFFCURVE",
"575 1366 OFFCURVE",
"575 1446 CURVE SMOOTH",
"575 1522 OFFCURVE",
"617 1590 OFFCURVE",
"683 1590 CURVE SMOOTH",
"751 1590 OFFCURVE",
"792 1519 OFFCURVE",
"792 1446 CURVE SMOOTH",
"792 1373 OFFCURVE",
"757 1307 OFFCURVE",
"683 1307 CURVE SMOOTH"
);
}
);
userData = {
assembly = "NPUSHB[ ]\011/* 20 values pushed */
47 1 9 8 50 38 2 10 9 84 1 11 10 60 5 2 0 1 4 76 
MPPEM[ ]\011/* MeasurePixelPerEm */
PUSHB[ ]\011/* 1 value pushed */
51 
LT[ ]\011/* LessThan */
IF[ ]\011/* If */
NPUSHB[ ]\011/* 41 values pushed */
0 6 0 8 9 6 8 105 0 11 0 2 1 11 2 103 0 10 10 9 97 0 9 9 74 77 7 5 3 3 1 1 0 95 4 1 0 0 69 0 78 
ELSE[ ]\011/* Else */
MPPEM[ ]\011/* MeasurePixelPerEm */
PUSHB[ ]\011/* 1 value pushed */
60 
LT[ ]\011/* LessThan */
IF[ ]\011/* If */
NPUSHB[ ]\011/* 38 values pushed */
0 6 0 8 9 6 8 105 0 11 0 2 1 11 2 103 7 5 3 3 1 4 1 0 1 0 99 0 10 10 9 97 0 9 9 74 10 78 
ELSE[ ]\011/* Else */
NPUSHB[ ]\011/* 47 values pushed */
0 6 0 8 9 6 8 105 0 9 0 10 11 9 10 105 0 11 0 2 1 11 2 103 7 5 3 3 1 0 0 1 89 7 5 3 3 1 1 0 95 4 1 0 1 0 79 
EIF[ ]\011/* EndIf */
EIF[ ]\011/* EndIf */
NPUSHB[ ]\011/* 18 values pushed */
88 86 80 79 74 72 40 28 39 34 66 23 53 37 48 12 11 31 
CALL[ ]\011/* CallFunction */";
};
width = 1400;
},
{
layerId = "EBD25FEC-6C57-4903-A936-5FDFC9C63FB2";
paths = (
{
closed = 1;
nodes = (
"433 0 LINE",
"433 57 LINE",
"322 57 OFFCURVE",
"267 81 OFFCURVE",
"267 130 CURVE SMOOTH",
"267 142 OFFCURVE",
"270 155 OFFCURVE",
"276 170 CURVE SMOOTH",
"407 531 LINE",
"893 531 LINE",
"1008 175 LINE SMOOTH",
"1013 158 OFFCURVE",
"1016 141 OFFCURVE",
"1016 126 CURVE SMOOTH",
"1016 81 OFFCURVE",
"961 58 OFFCURVE",
"885 58 CURVE",
"885 0 LINE",
"1348 0 LINE",
"1348 58 LINE",
"1236 58 OFFCURVE",
"1176 97 OFFCURVE",
"1150 175 CURVE SMOOTH",
"799 1222 LINE SMOOTH",
"795 1235 OFFCURVE",
"791 1254 OFFCURVE",
"790 1259 CURVE",
"833 1291 OFFCURVE",
"861 1339 OFFCURVE",
"861 1402 CURVE SMOOTH",
"861 1497 OFFCURVE",
"781 1582 OFFCURVE",
"678 1582 CURVE SMOOTH",
"583 1582 OFFCURVE",
"494 1510 OFFCURVE",
"494 1402 CURVE SMOOTH",
"494 1326 OFFCURVE",
"533 1265 OFFCURVE",
"597 1238 CURVE",
"196 189 LINE SMOOTH",
"157 86 OFFCURVE",
"135 57 OFFCURVE",
"-4 57 CURVE",
"-4 0 LINE"
);
},
{
closed = 1;
nodes = (
"649 1192 LINE",
"680 1192 LINE",
"870 600 LINE",
"429 600 LINE"
);
},
{
closed = 1;
nodes = (
"616 1281 OFFCURVE",
"569 1331 OFFCURVE",
"569 1402 CURVE SMOOTH",
"569 1459 OFFCURVE",
"608 1521 OFFCURVE",
"678 1521 CURVE SMOOTH",
"740 1521 OFFCURVE",
"786 1478 OFFCURVE",
"786 1402 CURVE SMOOTH",
"786 1337 OFFCURVE",
"746 1281 OFFCURVE",
"678 1281 CURVE SMOOTH"
);
}
);
width = 1365;
}
);
leftKerningGroup = A;
leftMetricsKey = "=A";
note = Aring;
rightKerningGroup = A;
rightMetricsKey = "=A";
unicode = 00C5;
},
{
glyphname = B;
lastChange = "2018-08-17 10:08:59 +0000";
layers = (
{
components = (
{
name = _part.uc_upperleftserif;
transform = "{1, 0, 0, 1, -1, 0}";
},
{
name = _part.uc_lowerleftserif;
transform = "{1, 0, 0, 1, -1, 0}";
}
);
layerId = "6CE37295-6E30-426D-87AF-6FEE9061C297";
paths = (
{
closed = 1;
nodes = (
"643 0 LINE SMOOTH",
"1055 0 OFFCURVE",
"1180 168 OFFCURVE",
"1180 371 CURVE SMOOTH",
"1180 529 OFFCURVE",
"1069 664 OFFCURVE",
"867 735 CURVE",
"1007 800 OFFCURVE",
"1083 890 OFFCURVE",
"1083 1018 CURVE SMOOTH",
"1083 1226 OFFCURVE",
"928 1358 OFFCURVE",
"639 1358 CURVE SMOOTH",
"304 1358 LINE",
"238 1155 LINE",
"238 203 LINE",
"361 0 LINE"
);
},
{
closed = 1;
nodes = (
"531 76 OFFCURVE",
"481 134 OFFCURVE",
"481 250 CURVE SMOOTH",
"481 674 LINE",
"583 674 OFFCURVE",
"651 666 OFFCURVE",
"714 645 CURVE SMOOTH",
"852 599 OFFCURVE",
"909 503 OFFCURVE",
"909 371 CURVE SMOOTH",
"909 181 OFFCURVE",
"816 83 OFFCURVE",
"631 76 CURVE"
);
},
{
closed = 1;
nodes = (
"481 1280 LINE",
"718 1280 OFFCURVE",
"840 1196 OFFCURVE",
"840 1014 CURVE SMOOTH",
"840 837 OFFCURVE",
"731 768 OFFCURVE",
"481 768 CURVE"
);
}
);
userData = {
assembly = "PUSHB[ ]\011/* 6 values pushed */
47 1 4 1 1 76 
MPPEM[ ]\011/* MeasurePixelPerEm */
PUSHB[ ]\011/* 1 value pushed */
34 
LT[ ]\011/* LessThan */
IF[ ]\011/* If */
NPUSHB[ ]\011/* 32 values pushed */
0 4 0 7 0 4 7 105 5 1 1 1 2 95 0 2 2 68 77 6 1 0 0 3 95 8 1 3 3 69 3 78 
ELSE[ ]\011/* Else */
MPPEM[ ]\011/* MeasurePixelPerEm */
PUSHB[ ]\011/* 1 value pushed */
51 
LT[ ]\011/* LessThan */
IF[ ]\011/* If */
NPUSHB[ ]\011/* 38 values pushed */
0 1 5 4 5 1 114 0 4 0 7 0 4 7 105 0 5 5 2 95 0 2 2 68 77 6 1 0 0 3 95 8 1 3 3 69 3 78 
ELSE[ ]\011/* Else */
MPPEM[ ]\011/* MeasurePixelPerEm */
PUSHB[ ]\011/* 1 value pushed */
60 
LT[ ]\011/* LessThan */
IF[ ]\011/* If */
NPUSHB[ ]\011/* 35 values pushed */
0 1 5 4 5 1 114 0 4 0 7 0 4 7 105 6 1 0 8 1 3 0 3 99 0 5 5 2 95 0 2 2 68 5 78 
ELSE[ ]\011/* Else */
MPPEM[ ]\011/* MeasurePixelPerEm */
PUSHB[ ]\011/* 1 value pushed */
93 
LT[ ]\011/* LessThan */
IF[ ]\011/* If */
NPUSHB[ ]\011/* 42 values pushed */
0 1 5 4 5 1 114 0 2 0 5 1 2 5 105 0 4 0 7 0 4 7 105 6 1 0 3 3 0 89 6 1 0 0 3 95 8 1 3 0 3 79 
ELSE[ ]\011/* Else */
NPUSHB[ ]\011/* 47 values pushed */
0 1 5 4 5 1 114 0 0 7 6 6 0 114 0 2 0 5 1 2 5 105 0 4 0 7 0 4 7 105 0 6 3 3 6 89 0 6 6 3 96 8 1 3 6 3 80 
EIF[ ]\011/* EndIf */
EIF[ ]\011/* EndIf */
EIF[ ]\011/* EndIf */
EIF[ ]\011/* EndIf */
NPUSHB[ ]\011/* 20 values pushed */
0 0 55 54 51 49 45 44 40 38 0 34 0 30 98 20 34 9 11 25 
CALL[ ]\011/* CallFunction */";
};
width = 1298;
},
{
components = (
{
name = _part.uc_upperleftserif;
transform = "{1, 0, 0, 1, -25, 0}";
},
{
name = _part.uc_lowerleftserif;
transform = "{1, 0, 0, 1, -25, 0}";
}
);
layerId = "EBD25FEC-6C57-4903-A936-5FDFC9C63FB2";
paths = (
{
closed = 1;
nodes = (
"585 0 LINE SMOOTH",
"973 0 OFFCURVE",
"1064 158 OFFCURVE",
"1064 347 CURVE SMOOTH",
"1064 530 OFFCURVE",
"980 661 OFFCURVE",
"759 731 CURVE",
"924 804 OFFCURVE",
"972 884 OFFCURVE",
"972 1035 CURVE SMOOTH",
"972 1250 OFFCURVE",
"816 1358 OFFCURVE",
"585 1358 CURVE SMOOTH",
"316 1358 LINE",
"265 1172 LINE",
"265 186 LINE",
"375 0 LINE"
);
},
{
closed = 1;
nodes = (
"448 57 OFFCURVE",
"387 130 OFFCURVE",
"387 277 CURVE SMOOTH",
"387 687 LINE",
"530 687 OFFCURVE",
"617 679 OFFCURVE",
"682 657 CURVE SMOOTH",
"831 607 OFFCURVE",
"925 513 OFFCURVE",
"925 372 CURVE SMOOTH",
"925 162 OFFCURVE",
"793 57 OFFCURVE",
"571 57 CURVE SMOOTH"
);
},
{
closed = 1;
nodes = (
"387 1297 LINE",
"687 1297 OFFCURVE",
"840 1225 OFFCURVE",
"840 1032 CURVE SMOOTH",
"840 823 OFFCURVE",
"699 749 OFFCURVE",
"387 749 CURVE"
);
}
);
width = 1124;
}
);
note = B;
rightKerningGroup = B;
unicode = 0042;
},
{
glyphname = C;
lastChange = "2018-08-18 14:53:45 +0000";
layers = (
{
anchors = (
{
name = bottom;
position = "{674, 0}";
},
{
name = top;
position = "{774, 1358}";
}
);
layerId = "6CE37295-6E30-426D-87AF-6FEE9061C297";
paths = (
{
closed = 1;
nodes = (
"906 -27 OFFCURVE",
"1025 -15 OFFCURVE",
"1128 16 CURVE SMOOTH",
"1157 25 OFFCURVE",
"1186 33 OFFCURVE",
"1217 37 CURVE",
"1249 84 OFFCURVE",
"1322 258 OFFCURVE",
"1322 344 CURVE",
"1225 344 LINE",
"1159 160 OFFCURVE",
"1012 68 OFFCURVE",
"784 68 CURVE SMOOTH",
"549 68 OFFCURVE",
"328 309 OFFCURVE",
"328 705 CURVE SMOOTH",
"328 1046 OFFCURVE",
"512 1296 OFFCURVE",
"788 1296 CURVE SMOOTH",
"1010 1296 OFFCURVE",
"1167 1210 OFFCURVE",
"1186 995 CURVE",
"1280 995 LINE",
"1275 1152 OFFCURVE",
"1261 1269 OFFCURVE",
"1239 1329 CURVE",
"1205 1330 OFFCURVE",
"1170 1333 OFFCURVE",
"1133 1341 CURVE SMOOTH",
"994 1371 OFFCURVE",
"881 1384 OFFCURVE",
"795 1384 CURVE SMOOTH",
"355 1384 OFFCURVE",
"55 1064 OFFCURVE",
"55 647 CURVE SMOOTH",
"55 254 OFFCURVE",
"379 -27 OFFCURVE",
"770 -27 CURVE SMOOTH"
);
}
);
userData = {
assembly = "PUSHB[ ]\011/* 6 values pushed */
9 1 3 2 1 76 
MPPEM[ ]\011/* MeasurePixelPerEm */
PUSHB[ ]\011/* 1 value pushed */
37 
LT[ ]\011/* LessThan */
IF[ ]\011/* If */
NPUSHB[ ]\011/* 26 values pushed */
0 1 1 68 77 0 2 2 0 97 0 0 0 74 77 0 3 3 4 97 0 4 4 75 4 78 
ELSE[ ]\011/* Else */
MPPEM[ ]\011/* MeasurePixelPerEm */
PUSHB[ ]\011/* 1 value pushed */
60 
LT[ ]\011/* LessThan */
IF[ ]\011/* If */
NPUSHB[ ]\011/* 29 values pushed */
0 1 0 2 0 1 2 128 0 2 2 0 97 0 0 0 74 77 0 3 3 4 97 0 4 4 75 4 78 
ELSE[ ]\011/* Else */
NPUSHB[ ]\011/* 27 values pushed */
0 1 0 2 0 1 2 128 0 0 0 2 3 0 2 105 0 3 3 4 97 0 4 4 75 4 78 
EIF[ ]\011/* EndIf */
EIF[ ]\011/* EndIf */
PUSHB[ ]\011/* 8 values pushed */
42 36 40 18 34 5 11 27 
CALL[ ]\011/* CallFunction */";
};
width = 1347;
},
{
anchors = (
{
name = bottom;
position = "{658, 0}";
},
{
name = top;
position = "{768, 1358}";
}
);
layerId = "EBD25FEC-6C57-4903-A936-5FDFC9C63FB2";
paths = (
{
closed = 1;
nodes = (
"887 -27 OFFCURVE",
"1012 -12 OFFCURVE",
"1110 19 CURVE SMOOTH",
"1140 28 OFFCURVE",
"1161 33 OFFCURVE",
"1182 36 CURVE",
"1227 99 OFFCURVE",
"1271 270 OFFCURVE",
"1271 317 CURVE",
"1214 317 LINE",
"1149 138 OFFCURVE",
"994 38 OFFCURVE",
"758 38 CURVE SMOOTH",
"481 38 OFFCURVE",
"237 330 OFFCURVE",
"237 707 CURVE SMOOTH",
"237 1026 OFFCURVE",
"489 1324 OFFCURVE",
"761 1324 CURVE SMOOTH",
"1014 1324 OFFCURVE",
"1153 1214 OFFCURVE",
"1172 1014 CURVE",
"1234 1014 LINE",
"1234 1132 OFFCURVE",
"1220 1238 OFFCURVE",
"1201 1327 CURVE",
"1181 1327 OFFCURVE",
"1147 1332 OFFCURVE",
"1111 1340 CURVE SMOOTH",
"971 1370 OFFCURVE",
"875 1385 OFFCURVE",
"790 1385 CURVE SMOOTH",
"359 1385 OFFCURVE",
"91 1077 OFFCURVE",
"91 647 CURVE SMOOTH",
"91 267 OFFCURVE",
"359 -27 OFFCURVE",
"734 -27 CURVE SMOOTH"
);
}
);
width = 1316;
},
{
associatedMasterId = "6CE37295-6E30-426D-87AF-6FEE9061C297";
layerId = "83DA9F4C-D2F8-4142-B017-31DA077EAD08";
name = "Jul 28 18, 16:09";
paths = (
{
closed = 1;
nodes = (
"55 253.667 OFFCURVE",
"379.333 -27 OFFCURVE",
"770 -27 CURVE SMOOTH",
"906 -27 OFFCURVE",
"1025.333 -12.667 OFFCURVE",
"1128 16 CURVE",
"1156 26 OFFCURVE",
"1185.667 33 OFFCURVE",
"1217 37 CURVE",
"1249 83.667 OFFCURVE",
"1315.667 246 OFFCURVE",
"1321 322 CURVE",
"1321 348.667 OFFCURVE",
"1233 368 OFFCURVE",
"1225 344 CURVE SMOOTH",
"1159 160 OFFCURVE",
"1012 68 OFFCURVE",
"784 68 CURVE SMOOTH",
"549.333 68 OFFCURVE",
"328 309 OFFCURVE",
"328 705 CURVE SMOOTH",
"328 1046.333 OFFCURVE",
"512 1296 OFFCURVE",
"788 1296 CURVE SMOOTH",
"933.333 1296 OFFCURVE",
"1046.5 1261.167 OFFCURVE",
"1120.5 1172.5 CURVE SMOOTH",
"1157.5 1128.167 OFFCURVE",
"1179.333 1069 OFFCURVE",
"1186 995 CURVE SMOOTH",
"1188.667 973.667 OFFCURVE",
"1280 980 OFFCURVE",
"1280 1004 CURVE",
"1274.667 1160.667 OFFCURVE",
"1261 1269 OFFCURVE",
"1239 1329 CURVE",
"1205 1330.333 OFFCURVE",
"1169.667 1334.333 OFFCURVE",
"1133 1341 CURVE SMOOTH",
"993.667 1369.667 OFFCURVE",
"881 1384 OFFCURVE",
"795 1384 CURVE SMOOTH",
"355 1384 OFFCURVE",
"55 1064.333 OFFCURVE",
"55 647 CURVE SMOOTH"
);
}
);
userData = {
assembly = "PUSHB[ ]\011/* 6 values pushed */
9 1 3 2 1 76 
MPPEM[ ]\011/* MeasurePixelPerEm */
PUSHB[ ]\011/* 1 value pushed */
37 
LT[ ]\011/* LessThan */
IF[ ]\011/* If */
NPUSHB[ ]\011/* 26 values pushed */
0 1 1 68 77 0 2 2 0 97 0 0 0 74 77 0 3 3 4 97 0 4 4 75 4 78 
ELSE[ ]\011/* Else */
MPPEM[ ]\011/* MeasurePixelPerEm */
PUSHB[ ]\011/* 1 value pushed */
60 
LT[ ]\011/* LessThan */
IF[ ]\011/* If */
NPUSHB[ ]\011/* 29 values pushed */
0 1 0 2 0 1 2 128 0 2 2 0 97 0 0 0 74 77 0 3 3 4 97 0 4 4 75 4 78 
ELSE[ ]\011/* Else */
NPUSHB[ ]\011/* 27 values pushed */
0 1 0 2 0 1 2 128 0 0 0 2 3 0 2 105 0 3 3 4 97 0 4 4 75 4 78 
EIF[ ]\011/* EndIf */
EIF[ ]\011/* EndIf */
PUSHB[ ]\011/* 8 values pushed */
42 36 40 18 34 5 11 27 
CALL[ ]\011/* CallFunction */";
};
width = 1347;
}
);
leftKerningGroup = C;
note = C;
unicode = 0043;
},
{
glyphname = acute.case;
lastChange = "2018-08-02 00:48:47 +0000";
layers = (
{
layerId = "6CE37295-6E30-426D-87AF-6FEE9061C297";
paths = (
{
closed = 1;
nodes = (
"508 1641 LINE",
"422 1756 LINE",
"120 1533 LINE",
"168 1462 LINE"
);
}
);
width = 638;
},
{
layerId = "EBD25FEC-6C57-4903-A936-5FDFC9C63FB2";
paths = (
{
closed = 1;
nodes = (
"499 1653 LINE",
"432 1746 LINE",
"125 1520 LINE",
"159 1473 LINE"
);
}
);
width = 638;
}
);
note = CapAcute;
},
{
glyphname = caron.case;
lastChange = "2018-08-02 00:58:59 +0000";
layers = (
{
layerId = "6CE37295-6E30-426D-87AF-6FEE9061C297";
paths = (
{
closed = 1;
nodes = (
"317 1471 LINE",
"601 1741 LINE",
"571 1786 LINE",
"298 1633 LINE",
"19 1786 LINE",
"-15 1741 LINE",
"273 1471 LINE"
);
}
);
width = 600;
},
{
layerId = "EBD25FEC-6C57-4903-A936-5FDFC9C63FB2";
paths = (
{
closed = 1;
nodes = (
"317 1471 LINE",
"601 1741 LINE",
"586 1763 LINE",
"298 1601 LINE",
"2 1763 LINE",
"-15 1741 LINE",
"273 1471 LINE"
);
}
);
width = 600;
}
);
note = CapCaron;
},
{
glyphname = circumflex.case;
lastChange = "2018-07-28 10:56:06 +0000";
layers = (
{
layerId = "6CE37295-6E30-426D-87AF-6FEE9061C297";
paths = (
{
closed = 1;
nodes = (
"374 1625 LINE",
"410 1625 LINE",
"672 1477 LINE",
"701 1516 LINE",
"414 1797 LINE",
"371 1797 LINE",
"85 1521 LINE",
"117 1477 LINE"
);
}
);
width = 794;
},
{
layerId = "EBD25FEC-6C57-4903-A936-5FDFC9C63FB2";
paths = (
{
closed = 1;
nodes = (
"374 1625 LINE",
"410 1625 LINE",
"673 1477 LINE",
"693 1498 LINE",
"413 1764 LINE",
"371 1764 LINE",
"96 1499 LINE",
"117 1477 LINE"
);
}
);
width = 794;
},
{
associatedMasterId = "6CE37295-6E30-426D-87AF-6FEE9061C297";
layerId = "C8E57F54-141A-438F-98DC-AADCE6BF9A85";
name = "Jul 28 18, 06:54";
paths = (
{
closed = 1;
nodes = (
"358 1616 LINE SMOOTH",
"369 1623 OFFCURVE",
"380.667 1625 OFFCURVE",
"392 1625 CURVE SMOOTH",
"403.333 1625 OFFCURVE",
"414.667 1622 OFFCURVE",
"426 1616 CURVE SMOOTH",
"672 1477 LINE SMOOTH",
"686 1469 OFFCURVE",
"712 1505 OFFCURVE",
"701 1516 CURVE SMOOTH",
"436 1775 LINE SMOOTH",
"420 1790 OFFCURVE",
"407 1797 OFFCURVE",
"392 1797 CURVE SMOOTH",
"377 1797 OFFCURVE",
"363 1790 OFFCURVE",
"348 1775 CURVE SMOOTH",
"85 1521 LINE SMOOTH",
"72 1508 OFFCURVE",
"100 1467 OFFCURVE",
"117 1477 CURVE SMOOTH"
);
}
);
visible = 1;
width = 794;
}
);
note = CapCircumflex;
},
{
glyphname = dieresis.case;
lastChange = "2018-08-02 00:49:22 +0000";
layers = (
{
layerId = "6CE37295-6E30-426D-87AF-6FEE9061C297";
paths = (
{
closed = 1;
nodes = (
"706 1502 OFFCURVE",
"768 1544 OFFCURVE",
"768 1626 CURVE SMOOTH",
"768 1709 OFFCURVE",
"706 1750 OFFCURVE",
"642 1750 CURVE SMOOTH",
"580 1750 OFFCURVE",
"518 1709 OFFCURVE",
"518 1626 CURVE SMOOTH",
"518 1543 OFFCURVE",
"580 1502 OFFCURVE",
"642 1502 CURVE SMOOTH"
);
},
{
closed = 1;
nodes = (
"264 1502 OFFCURVE",
"326 1543 OFFCURVE",
"326 1626 CURVE SMOOTH",
"326 1709 OFFCURVE",
"264 1750 OFFCURVE",
"202 1750 CURVE SMOOTH",
"138 1750 OFFCURVE",
"76 1709 OFFCURVE",
"76 1626 CURVE SMOOTH",
"76 1544 OFFCURVE",
"138 1502 OFFCURVE",
"202 1502 CURVE SMOOTH"
);
}
);
width = 839;
},
{
layerId = "EBD25FEC-6C57-4903-A936-5FDFC9C63FB2";
paths = (
{
closed = 1;
nodes = (
"690 1502 OFFCURVE",
"739 1535 OFFCURVE",
"739 1599 CURVE SMOOTH",
"739 1663 OFFCURVE",
"690 1695 OFFCURVE",
"641 1695 CURVE SMOOTH",
"593 1695 OFFCURVE",
"544 1663 OFFCURVE",
"544 1599 CURVE SMOOTH",
"544 1534 OFFCURVE",
"593 1502 OFFCURVE",
"641 1502 CURVE SMOOTH"
);
},
{
closed = 1;
nodes = (
"248 1502 OFFCURVE",
"297 1534 OFFCURVE",
"297 1599 CURVE SMOOTH",
"297 1663 OFFCURVE",
"248 1695 OFFCURVE",
"200 1695 CURVE SMOOTH",
"151 1695 OFFCURVE",
"102 1663 OFFCURVE",
"102 1599 CURVE SMOOTH",
"102 1535 OFFCURVE",
"151 1502 OFFCURVE",
"200 1502 CURVE SMOOTH"
);
}
);
width = 839;
}
);
note = CapDieresis;
},
{
glyphname = grave.case;
lastChange = "2018-07-31 15:49:37 +0000";
layers = (
{
layerId = "6CE37295-6E30-426D-87AF-6FEE9061C297";
paths = (
{
closed = 1;
nodes = (
"660 1534 LINE",
"346 1760 LINE",
"270 1641 LINE",
"604 1453 LINE"
);
}
);
width = 804;
},
{
layerId = "EBD25FEC-6C57-4903-A936-5FDFC9C63FB2";
paths = (
{
closed = 1;
nodes = (
"651 1516 LINE",
"333 1740 LINE",
"279 1659 LINE",
"617 1473 LINE"
);
}
);
width = 804;
}
);
note = CapGrave;
},
{
glyphname = macron.case;
lastChange = "2018-08-11 02:47:30 +0000";
layers = (
{
layerId = "6CE37295-6E30-426D-87AF-6FEE9061C297";
paths = (
{
closed = 1;
nodes = (
"680 1557 LINE",
"680 1666 LINE",
"58 1666 LINE",
"58 1557 LINE"
);
}
);
width = 756;
},
{
layerId = "EBD25FEC-6C57-4903-A936-5FDFC9C63FB2";
paths = (
{
closed = 1;
nodes = (
"680 1557 LINE",
"680 1637 LINE",
"58 1637 LINE",
"58 1557 LINE"
);
}
);
width = 756;
}
);
note = CapMacron;
},
{
glyphname = tilde.case;
lastChange = "2018-08-02 01:01:14 +0000";
layers = (
{
layerId = "6CE37295-6E30-426D-87AF-6FEE9061C297";
paths = (
{
closed = 1;
nodes = (
"566 1502 OFFCURVE",
"638 1557 OFFCURVE",
"720 1680 CURVE",
"679 1713 LINE",
"631 1665 OFFCURVE",
"587 1641 OFFCURVE",
"546 1641 CURVE SMOOTH",
"523 1641 OFFCURVE",
"482 1652 OFFCURVE",
"423 1673 CURVE SMOOTH",
"363 1694 OFFCURVE",
"318 1704 OFFCURVE",
"287 1704 CURVE SMOOTH",
"198 1704 OFFCURVE",
"119 1628 OFFCURVE",
"60 1537 CURVE",
"104 1504 LINE",
"143 1547 OFFCURVE",
"179 1568 OFFCURVE",
"213 1568 CURVE SMOOTH",
"247 1568 OFFCURVE",
"294 1557 OFFCURVE",
"355 1535 CURVE SMOOTH",
"416 1513 OFFCURVE",
"462 1502 OFFCURVE",
"493 1502 CURVE SMOOTH"
);
}
);
width = 756;
},
{
layerId = "EBD25FEC-6C57-4903-A936-5FDFC9C63FB2";
paths = (
{
closed = 1;
nodes = (
"566 1502 OFFCURVE",
"637 1537 OFFCURVE",
"706 1642 CURVE",
"679 1665 LINE",
"631 1617 OFFCURVE",
"587 1593 OFFCURVE",
"546 1593 CURVE SMOOTH",
"523 1593 OFFCURVE",
"482 1604 OFFCURVE",
"423 1625 CURVE SMOOTH",
"363 1646 OFFCURVE",
"318 1656 OFFCURVE",
"287 1656 CURVE SMOOTH",
"192 1656 OFFCURVE",
"138 1609 OFFCURVE",
"83 1525 CURVE",
"104 1504 LINE",
"143 1547 OFFCURVE",
"179 1568 OFFCURVE",
"213 1568 CURVE SMOOTH",
"247 1568 OFFCURVE",
"294 1557 OFFCURVE",
"355 1535 CURVE SMOOTH",
"416 1513 OFFCURVE",
"462 1502 OFFCURVE",
"493 1502 CURVE SMOOTH"
);
}
);
width = 756;
}
);
note = CapTilde;
},
{
glyphname = D;
lastChange = "2018-08-18 14:49:55 +0000";
layers = (
{
anchors = (
{
name = bottom;
position = "{783, 0}";
},
{
name = center;
position = "{783, 679}";
},
{
name = top;
position = "{713, 1358}";
}
);
components = (
{
name = _part.uc_upperleftserif;
transform = "{1, 0, 0, 1, -1, 0}";
},
{
name = _part.uc_lowerleftserif;
transform = "{1, 0, 0, 1, -1, 0}";
}
);
layerId = "6CE37295-6E30-426D-87AF-6FEE9061C297";
paths = (
{
closed = 1;
nodes = (
"766 0 LINE SMOOTH",
"1198 0 OFFCURVE",
"1487 274 OFFCURVE",
"1487 725 CURVE SMOOTH",
"1487 1118 OFFCURVE",
"1143 1358 OFFCURVE",
"719 1358 CURVE SMOOTH",
"304 1358 LINE",
"238 1155 LINE",
"238 203 LINE",
"311 0 LINE"
);
},
{
closed = 1;
nodes = (
"538 72 OFFCURVE",
"481 107 OFFCURVE",
"481 272 CURVE SMOOTH",
"481 1280 LINE",
"637 1280 LINE SMOOTH",
"1000 1280 OFFCURVE",
"1214 1001 OFFCURVE",
"1214 717 CURVE SMOOTH",
"1214 310 OFFCURVE",
"987 72 OFFCURVE",
"698 72 CURVE SMOOTH"
);
}
);
userData = {
assembly = "MPPEM[ ]\011/* MeasurePixelPerEm */
PUSHB[ ]\011/* 1 value pushed */
34 
LT[ ]\011/* LessThan */
IF[ ]\011/* If */
NPUSHB[ ]\011/* 23 values pushed */
5 1 0 0 1 95 0 1 1 68 77 4 1 3 3 2 95 0 2 2 69 2 78 
ELSE[ ]\011/* Else */
MPPEM[ ]\011/* MeasurePixelPerEm */
PUSHB[ ]\011/* 1 value pushed */
35 
LT[ ]\011/* LessThan */
IF[ ]\011/* If */
NPUSHB[ ]\011/* 34 values pushed */
0 0 5 3 5 0 114 0 3 4 4 3 112 0 5 5 1 95 0 1 1 68 77 0 4 4 2 96 0 2 2 69 2 78 
ELSE[ ]\011/* Else */
MPPEM[ ]\011/* MeasurePixelPerEm */
PUSHB[ ]\011/* 1 value pushed */
37 
LT[ ]\011/* LessThan */
IF[ ]\011/* If */
NPUSHB[ ]\011/* 29 values pushed */
0 0 5 3 5 0 114 0 5 5 1 95 0 1 1 68 77 4 1 3 3 2 95 0 2 2 69 2 78 
ELSE[ ]\011/* Else */
MPPEM[ ]\011/* MeasurePixelPerEm */
PUSHB[ ]\011/* 1 value pushed */
51 
LT[ ]\011/* LessThan */
IF[ ]\011/* If */
NPUSHB[ ]\011/* 34 values pushed */
0 0 5 3 5 0 114 0 3 4 4 3 112 0 5 5 1 95 0 1 1 68 77 0 4 4 2 96 0 2 2 69 2 78 
ELSE[ ]\011/* Else */
MPPEM[ ]\011/* MeasurePixelPerEm */
PUSHB[ ]\011/* 1 value pushed */
60 
LT[ ]\011/* LessThan */
IF[ ]\011/* If */
NPUSHB[ ]\011/* 31 values pushed */
0 0 5 3 5 0 114 0 3 4 4 3 112 0 4 0 2 4 2 100 0 5 5 1 95 0 1 1 68 5 78 
ELSE[ ]\011/* Else */
NPUSHB[ ]\011/* 37 values pushed */
0 0 5 3 5 0 114 0 3 4 4 3 112 0 1 0 5 0 1 5 105 0 4 2 2 4 89 0 4 4 2 96 0 2 4 2 80 
EIF[ ]\011/* EndIf */
EIF[ ]\011/* EndIf */
EIF[ ]\011/* EndIf */
EIF[ ]\011/* EndIf */
EIF[ ]\011/* EndIf */
NPUSHB[ ]\011/* 9 values pushed */
52 36 34 84 98 18 6 11 28 
CALL[ ]\011/* CallFunction */";
};
width = 1566;
},
{
anchors = (
{
name = bottom;
position = "{722, 0}";
},
{
name = center;
position = "{722, 679}";
},
{
name = top;
position = "{654, 1358}";
}
);
components = (
{
name = _part.uc_upperleftserif;
transform = "{1, 0, 0, 1, -25, 0}";
},
{
name = _part.uc_lowerleftserif;
transform = "{1, 0, 0, 1, -25, 0}";
}
);
layerId = "EBD25FEC-6C57-4903-A936-5FDFC9C63FB2";
paths = (
{
closed = 1;
nodes = (
"707 0 LINE SMOOTH",
"1126 0 OFFCURVE",
"1365 299 OFFCURVE",
"1365 728 CURVE SMOOTH",
"1365 1123 OFFCURVE",
"1074 1358 OFFCURVE",
"659 1358 CURVE",
"316 1358 LINE",
"265 1172 LINE",
"265 186 LINE",
"306 0 LINE"
);
},
{
closed = 1;
nodes = (
"463 53 OFFCURVE",
"387 99 OFFCURVE",
"387 298 CURVE SMOOTH",
"387 1297 LINE",
"577 1297 LINE SMOOTH",
"952 1297 OFFCURVE",
"1220 1052 OFFCURVE",
"1220 716 CURVE SMOOTH",
"1220 315 OFFCURVE",
"999 53 OFFCURVE",
"638 53 CURVE SMOOTH"
);
}
);
width = 1443;
}
);
note = D;
rightKerningGroup = D;
unicode = 0044;
},
{
glyphname = E;
lastChange = "2018-08-18 14:55:51 +0000";
layers = (
{
anchors = (
{
name = bottom;
position = "{625, 0}";
},
{
name = ogonek;
position = "{1124, 10}";
},
{
name = top;
position = "{675, 1358}";
}
);
components = (
{
name = _part.uc_upperleftserif;
transform = "{1, 0, 0, 1, -1, 0}";
},
{
name = _part.uc_lowerleftserif;
transform = "{1, 0, 0, 1, -1, 0}";
}
);
layerId = "6CE37295-6E30-426D-87AF-6FEE9061C297";
paths = (
{
closed = 1;
nodes = (
"1186 0 LINE",
"1186 354 LINE",
"1083 354 LINE",
"1083 299 OFFCURVE",
"1077 260 OFFCURVE",
"1065 227 CURVE SMOOTH",
"1033 137 OFFCURVE",
"965 92 OFFCURVE",
"860 90 CURVE SMOOTH",
"637 86 LINE",
"608 86 OFFCURVE",
"581 93 OFFCURVE",
"555 106 CURVE SMOOTH",
"506 131 OFFCURVE",
"481 169 OFFCURVE",
"481 221 CURVE SMOOTH",
"481 594 LINE",
"645 594 LINE SMOOTH",
"727 594 OFFCURVE",
"768 565 OFFCURVE",
"768 506 CURVE SMOOTH",
"768 417 LINE",
"869 417 LINE",
"869 881 LINE",
"768 881 LINE",
"768 778 LINE SMOOTH",
"768 717 OFFCURVE",
"727 686 OFFCURVE",
"645 686 CURVE SMOOTH",
"481 686 LINE",
"481 1266 LINE",
"805 1255 LINE SMOOTH",
"848 1254 OFFCURVE",
"889 1237 OFFCURVE",
"930 1206 CURVE SMOOTH",
"995 1156 OFFCURVE",
"1028 1087 OFFCURVE",
"1028 991 CURVE",
"1128 991 LINE",
"1128 1358 LINE",
"365 1358 LINE",
"238 1135 LINE",
"238 203 LINE",
"373 0 LINE"
);
}
);
userData = {
assembly = "MPPEM[ ]\011/* MeasurePixelPerEm */
PUSHB[ ]\011/* 1 value pushed */
79 
LT[ ]\011/* LessThan */
IF[ ]\011/* If */
NPUSHB[ ]\011/* 12 values pushed */
30 13 2 3 0 55 36 2 5 4 2 76 
ELSE[ ]\011/* Else */
NPUSHB[ ]\011/* 12 values pushed */
30 13 2 3 2 55 36 2 5 4 2 76 
EIF[ ]\011/* EndIf */
MPPEM[ ]\011/* MeasurePixelPerEm */
PUSHB[ ]\011/* 1 value pushed */
51 
LT[ ]\011/* LessThan */
IF[ ]\011/* If */
NPUSHB[ ]\011/* 31 values pushed */
0 3 0 4 5 3 4 105 2 1 0 0 1 95 0 1 1 68 77 7 1 5 5 6 95 0 6 6 69 6 78 
ELSE[ ]\011/* Else */
MPPEM[ ]\011/* MeasurePixelPerEm */
PUSHB[ ]\011/* 1 value pushed */
60 
LT[ ]\011/* LessThan */
IF[ ]\011/* If */
NPUSHB[ ]\011/* 28 values pushed */
0 3 0 4 5 3 4 105 7 1 5 0 6 5 6 99 2 1 0 0 1 95 0 1 1 68 0 78 
ELSE[ ]\011/* Else */
MPPEM[ ]\011/* MeasurePixelPerEm */
PUSHB[ ]\011/* 1 value pushed */
79 
LT[ ]\011/* LessThan */
IF[ ]\011/* If */
NPUSHB[ ]\011/* 35 values pushed */
0 1 2 1 0 3 1 0 105 0 3 0 4 5 3 4 105 7 1 5 6 6 5 89 7 1 5 5 6 95 0 6 5 6 79 
ELSE[ ]\011/* Else */
MPPEM[ ]\011/* MeasurePixelPerEm */
PUSHB[ ]\011/* 1 value pushed */
147 
LT[ ]\011/* LessThan */
IF[ ]\011/* If */
NPUSHB[ ]\011/* 41 values pushed */
0 0 1 2 2 0 114 0 1 0 2 3 1 2 103 0 3 0 4 5 3 4 105 7 1 5 6 6 5 89 7 1 5 5 6 95 0 6 5 6 79 
ELSE[ ]\011/* Else */
NPUSHB[ ]\011/* 46 values pushed */
0 0 1 2 2 0 114 0 7 5 6 5 7 114 0 1 0 2 3 1 2 103 0 3 0 4 5 3 4 105 0 5 7 6 5 87 0 5 5 6 95 0 6 5 6 79 
EIF[ ]\011/* EndIf */
EIF[ ]\011/* EndIf */
EIF[ ]\011/* EndIf */
EIF[ ]\011/* EndIf */
NPUSHB[ ]\011/* 11 values pushed */
34 88 53 61 51 56 98 18 8 11 30 
CALL[ ]\011/* CallFunction */";
};
width = 1249;
},
{
anchors = (
{
name = bottom;
position = "{592, 0}";
},
{
name = ogonek;
position = "{1065, 10}";
},
{
name = top;
position = "{642, 1358}";
}
);
components = (
{
name = _part.uc_upperleftserif;
transform = "{1, 0, 0, 1, -23, 0}";
},
{
name = _part.uc_lowerleftserif;
transform = "{1, 0, 0, 1, -23, 0}";
}
);
layerId = "EBD25FEC-6C57-4903-A936-5FDFC9C63FB2";
paths = (
{
closed = 1;
nodes = (
"1104 0 LINE",
"1104 342 LINE",
"1039 342 LINE",
"1039 290 OFFCURVE",
"1034 254 OFFCURVE",
"1024 222 CURVE SMOOTH",
"992 119 OFFCURVE",
"912 65 OFFCURVE",
"780 61 CURVE SMOOTH",
"545 54 LINE SMOOTH",
"510 53 OFFCURVE",
"479 65 OFFCURVE",
"454 86 CURVE SMOOTH",
"411 122 OFFCURVE",
"389 179 OFFCURVE",
"389 254 CURVE SMOOTH",
"389 612 LINE",
"623 612 LINE SMOOTH",
"727 612 OFFCURVE",
"740 574 OFFCURVE",
"740 517 CURVE SMOOTH",
"740 425 LINE",
"799 425 LINE",
"799 872 LINE",
"740 872 LINE",
"740 788 LINE SMOOTH",
"740 709 OFFCURVE",
"727 671 OFFCURVE",
"623 671 CURVE SMOOTH",
"389 671 LINE",
"389 1297 LINE",
"714 1290 LINE SMOOTH",
"796 1288 OFFCURVE",
"858 1267 OFFCURVE",
"901 1226 CURVE SMOOTH",
"949 1181 OFFCURVE",
"972 1111 OFFCURVE",
"972 1008 CURVE",
"1037 1008 LINE",
"1037 1358 LINE",
"331 1358 LINE",
"267 1183 LINE",
"267 166 LINE",
"336 0 LINE"
);
}
);
width = 1183;
}
);
note = E;
rightKerningGroup = E;
unicode = 0045;
},
{
glyphname = Eogonek;
lastChange = "2018-08-18 21:49:05 +0000";
layers = (
{
components = (
{
name = E;
}
);
layerId = "6CE37295-6E30-426D-87AF-6FEE9061C297";
paths = (
{
closed = 1;
nodes = (
"1035 -487 OFFCURVE",
"1115 -446 OFFCURVE",
"1168 -367 CURVE",
"1140 -336 LINE",
"1111 -357 OFFCURVE",
"1077 -367 OFFCURVE",
"1036 -367 CURVE SMOOTH",
"954 -367 OFFCURVE",
"913 -327 OFFCURVE",
"913 -246 CURVE SMOOTH",
"913 -207 OFFCURVE",
"922 -165 OFFCURVE",
"950 -119 CURVE SMOOTH",
"1003 -32 OFFCURVE",
"1067 1 OFFCURVE",
"1112 0 CURVE",
"1112 34 OFFCURVE",
"1041 63 OFFCURVE",
"983 63 CURVE",
"913 -6 LINE SMOOTH",
"802 -116 OFFCURVE",
"737 -210 OFFCURVE",
"737 -303 CURVE SMOOTH",
"737 -361 OFFCURVE",
"752 -405 OFFCURVE",
"782 -436 CURVE SMOOTH",
"815 -471 OFFCURVE",
"869 -487 OFFCURVE",
"941 -487 CURVE SMOOTH"
);
}
);
userData = {
assembly = "MPPEM[ ]\011/* MeasurePixelPerEm */
PUSHB[ ]\011/* 1 value pushed */
79 
LT[ ]\011/* LessThan */
IF[ ]\011/* If */
NPUSHB[ ]\011/* 20 values pushed */
31 14 2 3 0 56 37 2 5 4 69 1 7 6 71 1 8 7 4 76 
ELSE[ ]\011/* Else */
NPUSHB[ ]\011/* 20 values pushed */
31 14 2 3 2 56 37 2 5 4 69 1 7 6 71 1 8 7 4 76 
EIF[ ]\011/* EndIf */
MPPEM[ ]\011/* MeasurePixelPerEm */
PUSHB[ ]\011/* 1 value pushed */
60 
LT[ ]\011/* LessThan */
IF[ ]\011/* If */
NPUSHB[ ]\011/* 39 values pushed */
0 3 0 4 5 3 4 105 0 7 0 8 7 8 101 2 1 0 0 1 95 0 1 1 68 77 10 1 5 5 6 97 9 1 6 6 69 6 78 
ELSE[ ]\011/* Else */
MPPEM[ ]\011/* MeasurePixelPerEm */
PUSHB[ ]\011/* 1 value pushed */
79 
LT[ ]\011/* LessThan */
IF[ ]\011/* If */
NPUSHB[ ]\011/* 43 values pushed */
0 1 2 1 0 3 1 0 105 0 3 0 4 5 3 4 105 10 1 5 9 1 6 7 5 6 105 0 7 8 8 7 89 0 7 7 8 97 0 8 7 8 81 
ELSE[ ]\011/* Else */
MPPEM[ ]\011/* MeasurePixelPerEm */
PUSHB[ ]\011/* 1 value pushed */
147 
LT[ ]\011/* LessThan */
IF[ ]\011/* If */
NPUSHB[ ]\011/* 49 values pushed */
0 0 1 2 2 0 114 0 1 0 2 3 1 2 103 0 3 0 4 5 3 4 105 10 1 5 9 1 6 7 5 6 105 0 7 8 8 7 89 0 7 7 8 97 0 8 7 8 81 
ELSE[ ]\011/* Else */
NPUSHB[ ]\011/* 61 values pushed */
0 0 1 2 2 0 114 0 10 5 9 5 10 114 0 6 9 7 9 6 114 0 1 0 2 3 1 2 103 0 3 0 4 5 3 4 105 0 5 0 9 6 5 9 103 0 7 8 8 7 89 0 7 7 8 97 0 8 7 8 81 
EIF[ ]\011/* EndIf */
EIF[ ]\011/* EndIf */
EIF[ ]\011/* EndIf */
NPUSHB[ ]\011/* 16 values pushed */
87 85 83 77 36 35 40 53 61 51 56 114 18 11 11 31 
CALL[ ]\011/* CallFunction */";
};
width = 1249;
},
{
components = (
{
name = E;
}
);
layerId = "EBD25FEC-6C57-4903-A936-5FDFC9C63FB2";
paths = (
{
closed = 1;
nodes = (
"965 -488 OFFCURVE",
"1017 -453 OFFCURVE",
"1072 -370 CURVE",
"1046 -343 LINE",
"1021 -366 OFFCURVE",
"991 -377 OFFCURVE",
"957 -377 CURVE SMOOTH",
"885 -377 OFFCURVE",
"850 -334 OFFCURVE",
"850 -249 CURVE SMOOTH",
"850 -206 OFFCURVE",
"863 -160 OFFCURVE",
"890 -109 CURVE SMOOTH",
"926 -41 OFFCURVE",
"978 0 OFFCURVE",
"1048 0 CURVE",
"1047 41 OFFCURVE",
"988 65 OFFCURVE",
"929 61 CURVE",
"831 -56 LINE SMOOTH",
"759 -141 OFFCURVE",
"727 -229 OFFCURVE",
"727 -311 CURVE SMOOTH",
"727 -359 OFFCURVE",
"741 -401 OFFCURVE",
"768 -436 CURVE SMOOTH",
"795 -471 OFFCURVE",
"834 -488 OFFCURVE",
"885 -488 CURVE SMOOTH"
);
}
);
width = 1183;
}
);
leftMetricsKey = "=E";
note = Eogonek;
rightKerningGroup = E;
rightMetricsKey = "=E";
unicode = 0118;
},
{
glyphname = Eth;
lastChange = "2018-08-12 12:11:07 +0000";
layers = (
{
components = (
{
name = D;
}
);
layerId = "6CE37295-6E30-426D-87AF-6FEE9061C297";
paths = (
{
closed = 1;
nodes = (
"735 624 LINE",
"735 720 LINE",
"25 720 LINE",
"25 624 LINE"
);
}
);
userData = {
assembly = "MPPEM[ ]\011/* MeasurePixelPerEm */
PUSHB[ ]\011/* 1 value pushed */
34 
LT[ ]\011/* LessThan */
IF[ ]\011/* If */
NPUSHB[ ]\011/* 33 values pushed */
7 1 3 8 1 2 1 3 2 103 6 1 4 4 5 95 0 5 5 68 77 9 1 1 1 0 95 0 0 0 69 0 78 
ELSE[ ]\011/* Else */
MPPEM[ ]\011/* MeasurePixelPerEm */
PUSHB[ ]\011/* 1 value pushed */
56 
LT[ ]\011/* LessThan */
IF[ ]\011/* If */
NPUSHB[ ]\011/* 45 values pushed */
0 4 6 3 6 4 114 0 1 2 9 9 1 114 7 1 3 8 1 2 1 3 2 103 0 6 6 5 95 0 5 5 68 77 0 9 9 0 96 0 0 0 69 0 78 
ELSE[ ]\011/* Else */
MPPEM[ ]\011/* MeasurePixelPerEm */
PUSHB[ ]\011/* 1 value pushed */
60 
LT[ ]\011/* LessThan */
IF[ ]\011/* If */
NPUSHB[ ]\011/* 42 values pushed */
0 4 6 3 6 4 114 0 1 2 9 9 1 114 7 1 3 8 1 2 1 3 2 103 0 9 0 0 9 0 100 0 6 6 5 95 0 5 5 68 6 78 
ELSE[ ]\011/* Else */
NPUSHB[ ]\011/* 48 values pushed */
0 4 6 3 6 4 114 0 1 2 9 9 1 114 0 5 0 6 4 5 6 105 7 1 3 8 1 2 1 3 2 103 0 9 0 0 9 89 0 9 9 0 96 0 0 9 0 80 
EIF[ ]\011/* EndIf */
EIF[ ]\011/* EndIf */
EIF[ ]\011/* EndIf */
NPUSHB[ ]\011/* 14 values pushed */
62 60 50 35 54 114 19 50 35 34 99 10 11 31 
CALL[ ]\011/* CallFunction */";
};
width = 1566;
},
{
components = (
{
name = D;
transform = "{1, 0, 0, 1, 9, 0}";
}
);
layerId = "EBD25FEC-6C57-4903-A936-5FDFC9C63FB2";
paths = (
{
closed = 1;
nodes = (
"711 635 LINE",
"711 711 LINE",
"52 711 LINE",
"52 635 LINE"
);
}
);
width = 1452;
},
{
associatedMasterId = "6CE37295-6E30-426D-87AF-6FEE9061C297";
layerId = "6AE2C89A-7644-4143-A599-0F048E38DA9D";
name = "Jul 28 18, 19:47";
paths = (
{
closed = 1;
nodes = (
"1487 937.667 OFFCURVE",
"1401 1102.333 OFFCURVE",
"1229 1219 CURVE SMOOTH",
"1091 1311.667 OFFCURVE",
"921 1358 OFFCURVE",
"719 1358 CURVE SMOOTH",
"649 1358 OFFCURVE",
"580.5 1357 OFFCURVE",
"513.5 1355 CURVE SMOOTH",
"446.5 1353 OFFCURVE",
"392.667 1352 OFFCURVE",
"352 1352 CURVE SMOOTH",
"256.667 1352 OFFCURVE",
"161.333 1354 OFFCURVE",
"66 1358 CURVE",
"46 1358 OFFCURVE",
"47.333 1266 OFFCURVE",
"66 1266 CURVE SMOOTH",
"180.667 1264.667 OFFCURVE",
"238 1227.667 OFFCURVE",
"238 1155 CURVE SMOOTH",
"238 748 LINE SMOOTH",
"238 728.667 OFFCURVE",
"228.333 719 OFFCURVE",
"209 719 CURVE SMOOTH",
"29 719 LINE SMOOTH",
"9 719 OFFCURVE",
"10.333 625 OFFCURVE",
"29 625 CURVE SMOOTH",
"209 625 LINE SMOOTH",
"228.333 625 OFFCURVE",
"238 614.667 OFFCURVE",
"238 594 CURVE SMOOTH",
"238 203 LINE SMOOTH",
"238 125 OFFCURVE",
"184 86 OFFCURVE",
"76 86 CURVE SMOOTH",
"53.333 86 OFFCURVE",
"57.333 -6 OFFCURVE",
"76 -6 CURVE",
"141.333 -2 OFFCURVE",
"229.333 0 OFFCURVE",
"340 0 CURVE SMOOTH",
"400 0 OFFCURVE",
"467.833 -1 OFFCURVE",
"543.5 -3 CURVE SMOOTH",
"619.167 -5 OFFCURVE",
"693.333 -6 OFFCURVE",
"766 -6 CURVE SMOOTH",
"980 -8 OFFCURVE",
"1153.333 56.667 OFFCURVE",
"1286 188 CURVE SMOOTH",
"1420 320.667 OFFCURVE",
"1487 499.667 OFFCURVE",
"1487 725 CURVE SMOOTH"
);
},
{
closed = 1;
nodes = (
"1214 508.333 OFFCURVE",
"1159.667 343.667 OFFCURVE",
"1051 223 CURVE SMOOTH",
"957.667 122.333 OFFCURVE",
"840 72 OFFCURVE",
"698 72 CURVE SMOOTH",
"636.667 70.667 OFFCURVE",
"593 75.333 OFFCURVE",
"567 86 CURVE SMOOTH",
"509.667 110 OFFCURVE",
"481 172 OFFCURVE",
"481 272 CURVE SMOOTH",
"481 594 LINE SMOOTH",
"481 614.667 OFFCURVE",
"490 625 OFFCURVE",
"508 625 CURVE SMOOTH",
"737 625 LINE SMOOTH",
"757 625 OFFCURVE",
"753 719 OFFCURVE",
"737 719 CURVE SMOOTH",
"508 719 LINE SMOOTH",
"490 719 OFFCURVE",
"481 728.667 OFFCURVE",
"481 748 CURVE SMOOTH",
"481 1200 LINE SMOOTH",
"481 1253.333 OFFCURVE",
"506.333 1280 OFFCURVE",
"557 1280 CURVE SMOOTH",
"637 1280 LINE SMOOTH",
"847 1280 OFFCURVE",
"1006.667 1200 OFFCURVE",
"1116 1040 CURVE SMOOTH",
"1181.333 942 OFFCURVE",
"1214 834.333 OFFCURVE",
"1214 717 CURVE SMOOTH"
);
}
);
userData = {
assembly = "MPPEM[ ]\011/* MeasurePixelPerEm */
PUSHB[ ]\011/* 1 value pushed */
34 
LT[ ]\011/* LessThan */
IF[ ]\011/* If */
NPUSHB[ ]\011/* 33 values pushed */
7 1 3 8 1 2 1 3 2 103 6 1 4 4 5 95 0 5 5 68 77 9 1 1 1 0 95 0 0 0 69 0 78 
ELSE[ ]\011/* Else */
MPPEM[ ]\011/* MeasurePixelPerEm */
PUSHB[ ]\011/* 1 value pushed */
56 
LT[ ]\011/* LessThan */
IF[ ]\011/* If */
NPUSHB[ ]\011/* 45 values pushed */
0 4 6 3 6 4 114 0 1 2 9 9 1 114 7 1 3 8 1 2 1 3 2 103 0 6 6 5 95 0 5 5 68 77 0 9 9 0 96 0 0 0 69 0 78 
ELSE[ ]\011/* Else */
MPPEM[ ]\011/* MeasurePixelPerEm */
PUSHB[ ]\011/* 1 value pushed */
60 
LT[ ]\011/* LessThan */
IF[ ]\011/* If */
NPUSHB[ ]\011/* 42 values pushed */
0 4 6 3 6 4 114 0 1 2 9 9 1 114 7 1 3 8 1 2 1 3 2 103 0 9 0 0 9 0 100 0 6 6 5 95 0 5 5 68 6 78 
ELSE[ ]\011/* Else */
NPUSHB[ ]\011/* 48 values pushed */
0 4 6 3 6 4 114 0 1 2 9 9 1 114 0 5 0 6 4 5 6 105 7 1 3 8 1 2 1 3 2 103 0 9 0 0 9 89 0 9 9 0 96 0 0 9 0 80 
EIF[ ]\011/* EndIf */
EIF[ ]\011/* EndIf */
EIF[ ]\011/* EndIf */
NPUSHB[ ]\011/* 14 values pushed */
62 60 50 35 54 114 19 50 35 34 99 10 11 31 
CALL[ ]\011/* CallFunction */";
};
visible = 1;
width = 1566;
}
);
note = Eth;
rightKerningGroup = D;
rightMetricsKey = "=D";
unicode = 00D0;
},
{
glyphname = Euro;
lastChange = "2018-08-08 00:26:33 +0000";
layers = (
{
layerId = "6CE37295-6E30-426D-87AF-6FEE9061C297";
paths = (
{
closed = 1;
nodes = (
"898 -27 OFFCURVE",
"1015 17 OFFCURVE",
"1198 168 CURVE",
"1169 242 LINE",
"1137 221 OFFCURVE",
"954 106 OFFCURVE",
"782 106 CURVE SMOOTH",
"690 106 OFFCURVE",
"619 143 OFFCURVE",
"562 206 CURVE SMOOTH",
"500 275 OFFCURVE",
"454 373 OFFCURVE",
"420 485 CURVE",
"1020 485 LINE",
"1020 616 LINE",
"383 616 LINE",
"382 647 OFFCURVE",
"382 705 OFFCURVE",
"383 733 CURVE",
"1020 733 LINE",
"1020 864 LINE",
"395 864 LINE",
"410 959 OFFCURVE",
"443 1051 OFFCURVE",
"489 1125 CURVE SMOOTH",
"553 1227 OFFCURVE",
"642 1296 OFFCURVE",
"745 1296 CURVE SMOOTH",
"828 1296 OFFCURVE",
"903 1264 OFFCURVE",
"958 1196 CURVE SMOOTH",
"1034 1102 OFFCURVE",
"1053 1081 OFFCURVE",
"1108 1081 CURVE SMOOTH",
"1157 1081 OFFCURVE",
"1206 1116 OFFCURVE",
"1206 1157 CURVE SMOOTH",
"1206 1205 OFFCURVE",
"1163 1258 OFFCURVE",
"1090 1300 CURVE SMOOTH",
"993 1356 OFFCURVE",
"874 1384 OFFCURVE",
"751 1384 CURVE SMOOTH",
"594 1384 OFFCURVE",
"456 1324 OFFCURVE",
"349 1228 CURVE SMOOTH",
"243 1132 OFFCURVE",
"167 1003 OFFCURVE",
"133 864 CURVE",
"30 864 LINE",
"30 733 LINE",
"110 733 LINE",
"109 704 OFFCURVE",
"109 647 OFFCURVE",
"110 616 CURVE",
"30 616 LINE",
"30 485 LINE",
"127 485 LINE",
"160 316 OFFCURVE",
"253 178 OFFCURVE",
"380 88 CURVE SMOOTH",
"484 14 OFFCURVE",
"611 -27 OFFCURVE",
"747 -27 CURVE SMOOTH"
);
}
);
userData = {
assembly = "MPPEM[ ]\011/* MeasurePixelPerEm */
PUSHB[ ]\011/* 1 value pushed */
60 
LT[ ]\011/* LessThan */
IF[ ]\011/* If */
NPUSHB[ ]\011/* 51 values pushed */
0 6 7 4 7 6 4 128 10 1 2 11 1 1 12 2 1 103 0 7 7 5 97 0 5 5 74 77 9 1 3 3 4 97 8 1 4 4 71 77 0 12 12 0 97 0 0 0 75 0 78 
ELSE[ ]\011/* Else */
NPUSHB[ ]\011/* 49 values pushed */
0 6 7 4 7 6 4 128 0 5 0 7 6 5 7 105 10 1 2 11 1 1 12 2 1 103 9 1 3 3 4 97 8 1 4 4 71 77 0 12 12 0 97 0 0 0 75 0 78 
EIF[ ]\011/* EndIf */
NPUSHB[ ]\011/* 20 values pushed */
55 53 51 49 48 46 43 41 34 36 37 34 34 19 34 18 34 13 11 31 
CALL[ ]\011/* CallFunction */";
};
width = 1314;
},
{
layerId = "EBD25FEC-6C57-4903-A936-5FDFC9C63FB2";
paths = (
{
closed = 1;
nodes = (
"936 -27 OFFCURVE",
"1061 43 OFFCURVE",
"1212 168 CURVE",
"1178 210 LINE",
"1012 106 OFFCURVE",
"953 70 OFFCURVE",
"780 70 CURVE SMOOTH",
"681 70 OFFCURVE",
"572 109 OFFCURVE",
"498 172 CURVE SMOOTH",
"409 248 OFFCURVE",
"332 379 OFFCURVE",
"308 521 CURVE",
"1004 521 LINE",
"1004 611 LINE",
"296 611 LINE",
"295 636 OFFCURVE",
"295 714 OFFCURVE",
"296 738 CURVE",
"1004 738 LINE",
"1004 828 LINE",
"305 828 LINE",
"321 950 OFFCURVE",
"340 1024 OFFCURVE",
"426 1146 CURVE SMOOTH",
"509 1263 OFFCURVE",
"609 1331 OFFCURVE",
"767 1331 CURVE SMOOTH",
"866 1331 OFFCURVE",
"939 1288 OFFCURVE",
"981 1236 CURVE SMOOTH",
"1046 1154 OFFCURVE",
"1060 1138 OFFCURVE",
"1099 1138 CURVE SMOOTH",
"1134 1138 OFFCURVE",
"1170 1162 OFFCURVE",
"1170 1202 CURVE SMOOTH",
"1170 1247 OFFCURVE",
"1113 1297 OFFCURVE",
"1057 1326 CURVE SMOOTH",
"982 1365 OFFCURVE",
"894 1385 OFFCURVE",
"771 1385 CURVE SMOOTH",
"579 1385 OFFCURVE",
"470 1325 OFFCURVE",
"351 1204 CURVE SMOOTH",
"254 1105 OFFCURVE",
"198 973 OFFCURVE",
"164 828 CURVE",
"30 828 LINE",
"30 738 LINE",
"149 738 LINE",
"148 717 OFFCURVE",
"148 634 OFFCURVE",
"149 611 CURVE",
"30 611 LINE",
"30 521 LINE",
"159 521 LINE",
"180 356 OFFCURVE",
"251 207 OFFCURVE",
"384 105 CURVE SMOOTH",
"499 17 OFFCURVE",
"617 -27 OFFCURVE",
"763 -27 CURVE SMOOTH"
);
}
);
width = 1287;
}
);
note = Euro;
unicode = 20AC;
},
{
glyphname = F;
lastChange = "2018-08-08 00:32:10 +0000";
layers = (
{
components = (
{
name = _part.uc_lowerdoubleserif.001;
transform = "{1, 0, 0, 1, -1, 0}";
},
{
name = _part.uc_upperleftserif;
transform = "{1, 0, 0, 1, -1, 0}";
}
);
layerId = "6CE37295-6E30-426D-87AF-6FEE9061C297";
paths = (
{
closed = 1;
nodes = (
"481 203 LINE",
"481 633 LINE",
"645 633 LINE SMOOTH",
"706 633 OFFCURVE",
"737 602 OFFCURVE",
"737 543 CURVE SMOOTH",
"737 389 LINE",
"839 389 LINE",
"839 962 LINE",
"737 962 LINE",
"737 815 LINE SMOOTH",
"737 755 OFFCURVE",
"706 725 OFFCURVE",
"645 725 CURVE SMOOTH",
"481 725 LINE",
"481 1266 LINE",
"805 1255 LINE SMOOTH",
"912 1251 OFFCURVE",
"1028 1142 OFFCURVE",
"1028 991 CURVE",
"1128 991 LINE",
"1128 1358 LINE",
"353 1358 LINE",
"238 1155 LINE",
"238 203 LINE"
);
}
);
userData = {
assembly = "MPPEM[ ]\011/* MeasurePixelPerEm */
PUSHB[ ]\011/* 1 value pushed */
70 
LT[ ]\011/* LessThan */
IF[ ]\011/* If */
NPUSHB[ ]\011/* 11 values pushed */
30 13 2 3 0 36 1 5 4 2 76 
ELSE[ ]\011/* Else */
NPUSHB[ ]\011/* 11 values pushed */
30 13 2 3 2 36 1 5 4 2 76 
EIF[ ]\011/* EndIf */
MPPEM[ ]\011/* MeasurePixelPerEm */
PUSHB[ ]\011/* 1 value pushed */
51 
LT[ ]\011/* LessThan */
IF[ ]\011/* If */
NPUSHB[ ]\011/* 31 values pushed */
0 3 0 4 5 3 4 105 2 1 0 0 1 95 0 1 1 68 77 7 1 5 5 6 95 0 6 6 69 6 78 
ELSE[ ]\011/* Else */
MPPEM[ ]\011/* MeasurePixelPerEm */
PUSHB[ ]\011/* 1 value pushed */
60 
LT[ ]\011/* LessThan */
IF[ ]\011/* If */
NPUSHB[ ]\011/* 28 values pushed */
0 3 0 4 5 3 4 105 7 1 5 0 6 5 6 99 2 1 0 0 1 95 0 1 1 68 0 78 
ELSE[ ]\011/* Else */
MPPEM[ ]\011/* MeasurePixelPerEm */
PUSHB[ ]\011/* 1 value pushed */
70 
LT[ ]\011/* LessThan */
IF[ ]\011/* If */
NPUSHB[ ]\011/* 35 values pushed */
0 1 2 1 0 3 1 0 105 0 3 0 4 5 3 4 105 7 1 5 6 6 5 89 7 1 5 5 6 95 0 6 5 6 79 
ELSE[ ]\011/* Else */
NPUSHB[ ]\011/* 41 values pushed */
0 0 1 2 2 0 114 0 1 0 2 3 1 2 103 0 3 0 4 5 3 4 105 7 1 5 6 6 5 89 7 1 5 5 6 95 0 6 5 6 79 
EIF[ ]\011/* EndIf */
EIF[ ]\011/* EndIf */
EIF[ ]\011/* EndIf */
NPUSHB[ ]\011/* 11 values pushed */
34 66 19 61 51 71 98 18 8 11 30 
CALL[ ]\011/* CallFunction */";
};
width = 1189;
},
{
components = (
{
name = _part.uc_lowerdoubleserif.001;
transform = "{1, 0, 0, 1, -25, 0}";
},
{
name = _part.uc_upperleftserif;
transform = "{1, 0, 0, 1, -25, 0}";
}
);
layerId = "EBD25FEC-6C57-4903-A936-5FDFC9C63FB2";
paths = (
{
closed = 1;
nodes = (
"387 186 LINE",
"387 640 LINE",
"579 640 LINE SMOOTH",
"668 640 OFFCURVE",
"696 605 OFFCURVE",
"696 512 CURVE SMOOTH",
"696 387 LINE",
"754 387 LINE",
"754 971 LINE",
"696 971 LINE",
"696 846 LINE SMOOTH",
"696 753 OFFCURVE",
"679 716 OFFCURVE",
"579 716 CURVE SMOOTH",
"387 716 LINE",
"387 1299 LINE",
"729 1289 LINE SMOOTH",
"902 1284 OFFCURVE",
"988 1180 OFFCURVE",
"988 990 CURVE",
"1049 990 LINE",
"1049 1358 LINE",
"328 1358 LINE",
"265 1172 LINE",
"265 186 LINE"
);
}
);
width = 1111;
}
);
leftMetricsKey = "=I";
note = F;
rightKerningGroup = F;
unicode = 0046;
},
{
glyphname = G;
lastChange = "2018-08-18 15:02:41 +0000";
layers = (
{
anchors = (
{
name = bottom;
position = "{721, 0}";
},
{
name = top;
position = "{785, 1358}";
}
);
layerId = "6CE37295-6E30-426D-87AF-6FEE9061C297";
paths = (
{
closed = 1;
nodes = (
"859 -27 OFFCURVE",
"965 -17 OFFCURVE",
"1090 4 CURVE SMOOTH",
"1214 25 OFFCURVE",
"1292 35 OFFCURVE",
"1325 35 CURVE",
"1325 115 LINE",
"1296 115 OFFCURVE",
"1282 130 OFFCURVE",
"1282 160 CURVE SMOOTH",
"1282 401 LINE SMOOTH",
"1282 452 OFFCURVE",
"1318 477 OFFCURVE",
"1401 477 CURVE",
"1401 566 LINE",
"836 566 LINE",
"836 477 LINE",
"992 477 OFFCURVE",
"1038 472 OFFCURVE",
"1038 401 CURVE SMOOTH",
"1038 40 LINE",
"1093 158 LINE",
"971 70 OFFCURVE",
"858 68 OFFCURVE",
"784 68 CURVE SMOOTH",
"577 68 OFFCURVE",
"328 273 OFFCURVE",
"328 705 CURVE SMOOTH",
"328 1046 OFFCURVE",
"512 1296 OFFCURVE",
"788 1296 CURVE SMOOTH",
"1012 1296 OFFCURVE",
"1167 1210 OFFCURVE",
"1186 995 CURVE",
"1280 995 LINE",
"1274 1177 OFFCURVE",
"1264 1278 OFFCURVE",
"1239 1329 CURVE",
"1201 1330 OFFCURVE",
"1159 1338 OFFCURVE",
"1112 1348 CURVE SMOOTH",
"988 1374 OFFCURVE",
"882 1384 OFFCURVE",
"795 1384 CURVE SMOOTH",
"363 1384 OFFCURVE",
"55 1074 OFFCURVE",
"55 647 CURVE SMOOTH",
"55 433 OFFCURVE",
"139 260 OFFCURVE",
"307 127 CURVE SMOOTH",
"439 22 OFFCURVE",
"595 -27 OFFCURVE",
"770 -27 CURVE SMOOTH"
);
}
);
userData = {
assembly = "PUSHB[ ]\011/* 7 values pushed */
32 3 2 0 7 1 76 
MPPEM[ ]\011/* MeasurePixelPerEm */
PUSHB[ ]\011/* 1 value pushed */
34 
LT[ ]\011/* LessThan */
IF[ ]\011/* If */
NPUSHB[ ]\011/* 43 values pushed */
0 0 9 1 1 2 0 1 105 0 2 0 3 4 2 3 105 0 6 6 68 77 0 7 7 5 97 0 5 5 74 77 0 8 8 4 97 0 4 4 75 4 78 
ELSE[ ]\011/* Else */
MPPEM[ ]\011/* MeasurePixelPerEm */
PUSHB[ ]\011/* 1 value pushed */
60 
LT[ ]\011/* LessThan */
IF[ ]\011/* If */
NPUSHB[ ]\011/* 46 values pushed */
0 6 5 7 5 6 7 128 0 0 9 1 1 2 0 1 105 0 2 0 3 4 2 3 105 0 7 7 5 97 0 5 5 74 77 0 8 8 4 97 0 4 4 75 4 78 
ELSE[ ]\011/* Else */
NPUSHB[ ]\011/* 44 values pushed */
0 6 5 7 5 6 7 128 0 5 0 7 0 5 7 105 0 0 9 1 1 2 0 1 105 0 2 0 3 4 2 3 105 0 8 8 4 97 0 4 4 75 4 78 
EIF[ ]\011/* EndIf */
EIF[ ]\011/* EndIf */
NPUSHB[ ]\011/* 14 values pushed */
52 50 36 41 18 38 33 34 19 35 17 10 11 31 
CALL[ ]\011/* CallFunction */";
};
width = 1441;
},
{
anchors = (
{
name = bottom;
position = "{667, 0}";
},
{
name = top;
position = "{737, 1358}";
}
);
layerId = "EBD25FEC-6C57-4903-A936-5FDFC9C63FB2";
paths = (
{
closed = 1;
nodes = (
"849 -27 OFFCURVE",
"886 -22 OFFCURVE",
"1028 3 CURVE SMOOTH",
"1117 19 OFFCURVE",
"1173 32 OFFCURVE",
"1207 41 CURVE",
"1207 77 LINE",
"1182 77 OFFCURVE",
"1170 99 OFFCURVE",
"1170 144 CURVE SMOOTH",
"1170 371 LINE SMOOTH",
"1170 448 OFFCURVE",
"1217 486 OFFCURVE",
"1311 486 CURVE",
"1311 544 LINE",
"820 544 LINE",
"820 486 LINE",
"972 486 OFFCURVE",
"1048 448 OFFCURVE",
"1048 371 CURVE SMOOTH",
"1048 43 LINE",
"1103 124 LINE",
"989 52 OFFCURVE",
"883 40 OFFCURVE",
"753 40 CURVE SMOOTH",
"435 40 OFFCURVE",
"237 314 OFFCURVE",
"237 726 CURVE SMOOTH",
"237 1026 OFFCURVE",
"444 1322 OFFCURVE",
"754 1322 CURVE SMOOTH",
"1033 1322 OFFCURVE",
"1170 1162 OFFCURVE",
"1170 1014 CURVE",
"1231 1014 LINE",
"1224 1187 OFFCURVE",
"1215 1294 OFFCURVE",
"1202 1327 CURVE",
"1182 1330 OFFCURVE",
"1132 1340 OFFCURVE",
"1055 1356 CURVE SMOOTH",
"960 1376 OFFCURVE",
"858 1385 OFFCURVE",
"749 1385 CURVE SMOOTH",
"324 1385 OFFCURVE",
"91 990 OFFCURVE",
"91 667 CURVE SMOOTH",
"91 442 OFFCURVE",
"175 174 OFFCURVE",
"418 59 CURVE SMOOTH",
"539 2 OFFCURVE",
"649 -27 OFFCURVE",
"746 -27 CURVE SMOOTH"
);
}
);
width = 1334;
}
);
leftKerningGroup = C;
leftMetricsKey = "=O";
note = G;
rightKerningGroup = G;
unicode = 0047;
},
{
glyphname = H;
lastChange = "2018-08-12 20:15:27 +0000";
layers = (
{
components = (
{
alignment = -1;
name = I;
},
{
alignment = -1;
name = I;
transform = "{1, 0, 0, 1, 950, 0}";
}
);
layerId = "6CE37295-6E30-426D-87AF-6FEE9061C297";
paths = (
{
closed = 1;
nodes = (
"1223 653 LINE",
"1223 748 LINE",
"446 748 LINE",
"446 653 LINE"
);
}
);
userData = {
assembly = "PUSHB[ ]\011/* 5 values pushed */
62 42 2 8 74 
MPPEM[ ]\011/* MeasurePixelPerEm */
PUSHB[ ]\011/* 1 value pushed */
51 
LT[ ]\011/* LessThan */
IF[ ]\011/* If */
NPUSHB[ ]\011/* 37 values pushed */
0 10 0 3 0 10 3 103 13 11 9 3 7 7 8 97 12 1 8 8 68 77 6 4 2 3 0 0 1 95 5 1 1 1 69 1 78 
ELSE[ ]\011/* Else */
MPPEM[ ]\011/* MeasurePixelPerEm */
PUSHB[ ]\011/* 1 value pushed */
60 
LT[ ]\011/* LessThan */
IF[ ]\011/* If */
NPUSHB[ ]\011/* 34 values pushed */
0 10 0 3 0 10 3 103 6 4 2 3 0 5 1 1 0 1 99 13 11 9 3 7 7 8 97 12 1 8 8 68 7 78 
ELSE[ ]\011/* Else */
NPUSHB[ ]\011/* 43 values pushed */
12 1 8 13 11 9 3 7 10 8 7 105 0 10 0 3 0 10 3 103 6 4 2 3 0 1 1 0 89 6 4 2 3 0 0 1 95 5 1 1 0 1 79 
EIF[ ]\011/* EndIf */
EIF[ ]\011/* EndIf */
NPUSHB[ ]\011/* 22 values pushed */
66 64 61 60 56 55 52 49 46 44 20 19 34 66 19 51 34 66 17 14 11 31 
CALL[ ]\011/* CallFunction */";
};
width = 1683;
},
{
components = (
{
alignment = -1;
name = I;
},
{
alignment = -1;
name = I;
transform = "{1, 0, 0, 1, 961, 0}";
}
);
layerId = "EBD25FEC-6C57-4903-A936-5FDFC9C63FB2";
paths = (
{
closed = 1;
nodes = (
"1262 666 LINE",
"1262 735 LINE",
"380 735 LINE",
"380 666 LINE"
);
}
);
width = 1604;
}
);
leftMetricsKey = "=I";
note = H;
rightMetricsKey = "=I";
unicode = 0048;
},
{
glyphname = I;
lastChange = "2018-08-10 11:33:16 +0000";
layers = (
{
anchors = (
{
name = bottom;
position = "{367, 0}";
},
{
name = ogonek;
position = "{660, 10}";
},
{
name = top;
position = "{367, 1358}";
}
);
components = (
{
name = _part.uc_upperdoubleserif;
transform = "{1, 0, 0, 1, -1, 0}";
},
{
name = _part.uc_lowerdoubleserif.001;
transform = "{1, 0, 0, 1, -1, 0}";
}
);
layerId = "6CE37295-6E30-426D-87AF-6FEE9061C297";
paths = (
{
closed = 1;
nodes = (
"481 203 LINE",
"481 1153 LINE",
"238 1153 LINE",
"238 203 LINE"
);
}
);
userData = {
assembly = "PUSHB[ ]\011/* 4 values pushed */
14 1 2 74 
MPPEM[ ]\011/* MeasurePixelPerEm */
PUSHB[ ]\011/* 1 value pushed */
51 
LT[ ]\011/* LessThan */
IF[ ]\011/* If */
NPUSHB[ ]\011/* 24 values pushed */
3 1 1 1 2 97 0 2 2 68 77 4 1 0 0 5 95 6 1 5 5 69 5 78 
ELSE[ ]\011/* Else */
MPPEM[ ]\011/* MeasurePixelPerEm */
PUSHB[ ]\011/* 1 value pushed */
60 
LT[ ]\011/* LessThan */
IF[ ]\011/* If */
NPUSHB[ ]\011/* 21 values pushed */
4 1 0 6 1 5 0 5 99 3 1 1 1 2 97 0 2 2 68 1 78 
ELSE[ ]\011/* Else */
NPUSHB[ ]\011/* 28 values pushed */
0 2 3 1 1 0 2 1 105 4 1 0 5 5 0 89 4 1 0 0 5 95 6 1 5 0 5 79 
EIF[ ]\011/* EndIf */
EIF[ ]\011/* EndIf */
NPUSHB[ ]\011/* 14 values pushed */
0 0 0 27 0 24 19 35 20 19 34 7 11 27 
CALL[ ]\011/* CallFunction */";
};
width = 733;
},
{
anchors = (
{
name = bottom;
position = "{322, 0}";
},
{
name = ogonek;
position = "{579, 10}";
},
{
name = top;
position = "{322, 1358}";
}
);
components = (
{
name = _part.uc_upperdoubleserif;
transform = "{1, 0, 0, 1, -25, 0}";
},
{
name = _part.uc_lowerdoubleserif.001;
transform = "{1, 0, 0, 1, -25, 0}";
}
);
layerId = "EBD25FEC-6C57-4903-A936-5FDFC9C63FB2";
paths = (
{
closed = 1;
nodes = (
"387 186 LINE",
"387 1172 LINE",
"265 1172 LINE",
"265 186 LINE"
);
}
);
width = 643;
}
);
note = I;
unicode = 0049;
},
{
glyphname = Igrave;
lastChange = "2018-08-18 15:05:12 +0000";
layers = (
{
components = (
{
name = I;
},
{
name = gravecomb.case;
transform = "{1, 0, 0, 1, 368, 0}";
}
);
layerId = "6CE37295-6E30-426D-87AF-6FEE9061C297";
width = 733;
},
{
background = {
paths = (
{
closed = 0;
nodes = (
"89 1777 LINE",
"89 475 LINE"
);
}
);
};
components = (
{
name = I;
},
{
name = gravecomb.case;
transform = "{1, 0, 0, 1, 322, 0}";
}
);
layerId = "EBD25FEC-6C57-4903-A936-5FDFC9C63FB2";
width = 643;
}
);
leftMetricsKey = "=I";
note = Igrave;
rightMetricsKey = "=I";
unicode = 00CC;
},
{
glyphname = J;
lastChange = "2018-08-12 12:39:04 +0000";
layers = (
{
components = (
{
name = _part.uc_upperdoubleserif;
transform = "{1, 0, 0, 1, 17, 0}";
}
);
layerId = "6CE37295-6E30-426D-87AF-6FEE9061C297";
paths = (
{
closed = 1;
nodes = (
"90 -420 OFFCURVE",
"149 -403 OFFCURVE",
"205 -371 CURVE SMOOTH",
"374 -275 OFFCURVE",
"479 -109 OFFCURVE",
"489 195 CURVE SMOOTH",
"496 414 OFFCURVE",
"499 558 OFFCURVE",
"499 629 CURVE SMOOTH",
"499 1153 LINE",
"256 1153 LINE",
"256 254 LINE SMOOTH",
"256 13 OFFCURVE",
"248 -136 OFFCURVE",
"231 -195 CURVE SMOOTH",
"220 -234 OFFCURVE",
"196 -259 OFFCURVE",
"174 -276 CURVE",
"150 -209 OFFCURVE",
"85 -158 OFFCURVE",
"8 -158 CURVE SMOOTH",
"-67 -158 OFFCURVE",
"-131 -196 OFFCURVE",
"-131 -276 CURVE SMOOTH",
"-131 -367 OFFCURVE",
"-35 -420 OFFCURVE",
"33 -420 CURVE SMOOTH"
);
}
);
userData = {
assembly = "NPUSHB[ ]\011/* 10 values pushed */
7 1 4 0 1 76 20 1 2 74 
MPPEM[ ]\011/* MeasurePixelPerEm */
PUSHB[ ]\011/* 1 value pushed */
60 
LT[ ]\011/* LessThan */
IF[ ]\011/* If */
NPUSHB[ ]\011/* 19 values pushed */
0 0 0 4 0 4 101 3 1 1 1 2 97 0 2 2 68 1 78 
ELSE[ ]\011/* Else */
NPUSHB[ ]\011/* 25 values pushed */
0 2 3 1 1 0 2 1 105 0 0 4 4 0 89 0 0 0 4 97 0 4 0 4 81 
EIF[ ]\011/* EndIf */
PUSHB[ ]\011/* 8 values pushed */
40 35 20 25 34 5 11 27 
CALL[ ]\011/* CallFunction */";
};
width = 716;
},
{
components = (
{
name = _part.uc_upperdoubleserif;
transform = "{1, 0, 0, 1, -30, 0}";
}
);
layerId = "EBD25FEC-6C57-4903-A936-5FDFC9C63FB2";
paths = (
{
closed = 1;
nodes = (
"71 -419 OFFCURVE",
"116 -403 OFFCURVE",
"156 -376 CURVE SMOOTH",
"327 -260 OFFCURVE",
"364 -72 OFFCURVE",
"375 200 CURVE SMOOTH",
"379 308 OFFCURVE",
"382 449 OFFCURVE",
"382 634 CURVE SMOOTH",
"382 1172 LINE",
"260 1172 LINE",
"260 260 LINE SMOOTH",
"260 11 OFFCURVE",
"250 -143 OFFCURVE",
"229 -203 CURVE SMOOTH",
"208 -263 OFFCURVE",
"175 -313 OFFCURVE",
"133 -328 CURVE",
"122 -288 OFFCURVE",
"69 -237 OFFCURVE",
"-2 -237 CURVE SMOOTH",
"-59 -237 OFFCURVE",
"-97 -274 OFFCURVE",
"-97 -311 CURVE SMOOTH",
"-97 -382 OFFCURVE",
"-45 -419 OFFCURVE",
"19 -419 CURVE SMOOTH"
);
}
);
width = 637;
}
);
leftKerningGroup = J;
note = J;
rightKerningGroup = J;
unicode = 004A;
},
{
glyphname = K;
lastChange = "2018-08-14 20:30:49 +0000";
layers = (
{
components = (
{
name = I;
}
);
layerId = "6CE37295-6E30-426D-87AF-6FEE9061C297";
paths = (
{
closed = 1;
nodes = (
"1392 0 LINE",
"1392 86 LINE",
"1282 86 OFFCURVE",
"1218 104 OFFCURVE",
"1145 190 CURVE SMOOTH",
"657 759 LINE",
"1024 1186 LINE SMOOTH",
"1074 1244 OFFCURVE",
"1120 1270 OFFCURVE",
"1247 1270 CURVE",
"1247 1358 LINE",
"832 1358 LINE",
"832 1270 LINE",
"883 1270 OFFCURVE",
"903 1261 OFFCURVE",
"903 1244 CURVE SMOOTH",
"903 1227 OFFCURVE",
"885 1197 OFFCURVE",
"850 1155 CURVE SMOOTH",
"573 825 LINE SMOOTH",
"542 788 OFFCURVE",
"517 770 OFFCURVE",
"498 770 CURVE SMOOTH",
"461 770 LINE",
"461 598 LINE",
"504 598 LINE SMOOTH",
"519 598 OFFCURVE",
"548 573 OFFCURVE",
"590 524 CURVE SMOOTH",
"848 203 LINE SMOOTH",
"875 169 OFFCURVE",
"889 143 OFFCURVE",
"889 125 CURVE SMOOTH",
"889 99 OFFCURVE",
"861 86 OFFCURVE",
"795 86 CURVE",
"795 0 LINE"
);
}
);
userData = {
assembly = "PUSHB[ ]\011/* 5 values pushed */
64 44 2 8 74 
MPPEM[ ]\011/* MeasurePixelPerEm */
PUSHB[ ]\011/* 1 value pushed */
51 
LT[ ]\011/* LessThan */
IF[ ]\011/* If */
NPUSHB[ ]\011/* 37 values pushed */
0 10 0 3 0 10 3 105 13 11 9 3 7 7 8 97 12 1 8 8 68 77 6 4 2 3 0 0 1 95 5 1 1 1 69 1 78 
ELSE[ ]\011/* Else */
MPPEM[ ]\011/* MeasurePixelPerEm */
PUSHB[ ]\011/* 1 value pushed */
60 
LT[ ]\011/* LessThan */
IF[ ]\011/* If */
NPUSHB[ ]\011/* 34 values pushed */
0 10 0 3 0 10 3 105 6 4 2 3 0 5 1 1 0 1 99 13 11 9 3 7 7 8 97 12 1 8 8 68 7 78 
ELSE[ ]\011/* Else */
NPUSHB[ ]\011/* 43 values pushed */
12 1 8 13 11 9 3 7 10 8 7 105 0 10 0 3 0 10 3 105 6 4 2 3 0 1 1 0 89 6 4 2 3 0 0 1 95 5 1 1 0 1 79 
EIF[ ]\011/* EndIf */
EIF[ ]\011/* EndIf */
NPUSHB[ ]\011/* 22 values pushed */
68 66 63 62 58 57 53 51 48 46 20 19 34 66 19 21 34 66 19 14 11 31 
CALL[ ]\011/* CallFunction */";
};
width = 1380;
},
{
components = (
{
name = I;
}
);
layerId = "EBD25FEC-6C57-4903-A936-5FDFC9C63FB2";
paths = (
{
closed = 1;
nodes = (
"1248 0 LINE",
"1248 56 LINE",
"1130 56 OFFCURVE",
"1069 103 OFFCURVE",
"1012 173 CURVE SMOOTH",
"550 742 LINE",
"932 1201 LINE SMOOTH",
"970 1246 OFFCURVE",
"1023 1300 OFFCURVE",
"1146 1300 CURVE",
"1146 1358 LINE",
"783 1358 LINE",
"783 1300 LINE",
"836 1300 OFFCURVE",
"863 1295 OFFCURVE",
"863 1259 CURVE SMOOTH",
"863 1242 OFFCURVE",
"846 1210 OFFCURVE",
"818 1175 CURVE SMOOTH",
"525 810 LINE SMOOTH",
"508 789 OFFCURVE",
"440 706 OFFCURVE",
"406 706 CURVE SMOOTH",
"373 706 LINE",
"373 651 LINE",
"410 651 LINE SMOOTH",
"460 651 OFFCURVE",
"522 595 OFFCURVE",
"564 539 CURVE SMOOTH",
"833 186 LINE SMOOTH",
"850 163 OFFCURVE",
"863 138 OFFCURVE",
"863 122 CURVE SMOOTH",
"863 70 OFFCURVE",
"826 56 OFFCURVE",
"752 56 CURVE",
"752 0 LINE"
);
}
);
width = 1233;
},
{
associatedMasterId = "6CE37295-6E30-426D-87AF-6FEE9061C297";
layerId = "52FD019D-879E-4490-992B-A67DB082B501";
name = "Jul 28 18, 15:05";
paths = (
{
closed = 1;
nodes = (
"686 725 LINE SMOOTH",
"676.667 736.333 OFFCURVE",
"672 747.5 OFFCURVE",
"672 758.5 CURVE SMOOTH",
"672 769.5 OFFCURVE",
"676.667 781 OFFCURVE",
"686 793 CURVE",
"1024 1186 LINE SMOOTH",
"1076 1243.333 OFFCURVE",
"1119.667 1270 OFFCURVE",
"1237 1270 CURVE SMOOTH",
"1246.333 1270 OFFCURVE",
"1251 1285.667 OFFCURVE",
"1251 1317 CURVE SMOOTH",
"1251 1348.333 OFFCURVE",
"1246.333 1364 OFFCURVE",
"1237 1364 CURVE",
"1205.667 1360.667 OFFCURVE",
"1140.167 1359 OFFCURVE",
"1040.5 1359 CURVE SMOOTH",
"940.833 1359 OFFCURVE",
"874.667 1360.667 OFFCURVE",
"842 1364 CURVE",
"833.333 1364 OFFCURVE",
"829 1348.333 OFFCURVE",
"829 1317 CURVE SMOOTH",
"829 1285.667 OFFCURVE",
"833.333 1270 OFFCURVE",
"842 1270 CURVE SMOOTH",
"882.667 1270 OFFCURVE",
"903 1261.333 OFFCURVE",
"903 1244 CURVE SMOOTH",
"903 1226.667 OFFCURVE",
"885.333 1197 OFFCURVE",
"850 1155 CURVE SMOOTH",
"573 825 LINE SMOOTH",
"542.333 788.333 OFFCURVE",
"517.333 770 OFFCURVE",
"498 770 CURVE SMOOTH",
"486.667 770 OFFCURVE",
"481 779 OFFCURVE",
"481 797 CURVE SMOOTH",
"481 1153 LINE SMOOTH",
"481 1231 OFFCURVE",
"534.333 1270 OFFCURVE",
"641 1270 CURVE SMOOTH",
"650.333 1270 OFFCURVE",
"655 1285.667 OFFCURVE",
"655 1317 CURVE SMOOTH",
"655 1348.333 OFFCURVE",
"650.333 1364 OFFCURVE",
"641 1364 CURVE",
"609.667 1360 OFFCURVE",
"513.833 1358 OFFCURVE",
"353.5 1358 CURVE SMOOTH",
"193.167 1358 OFFCURVE",
"97.333 1360 OFFCURVE",
"66 1364 CURVE",
"56 1364 OFFCURVE",
"51 1348.333 OFFCURVE",
"51 1317 CURVE SMOOTH",
"51 1285.667 OFFCURVE",
"56 1270 OFFCURVE",
"66 1270 CURVE SMOOTH",
"180.667 1270 OFFCURVE",
"238 1231 OFFCURVE",
"238 1153 CURVE SMOOTH",
"238 203 LINE SMOOTH",
"238 125 OFFCURVE",
"184 86 OFFCURVE",
"76 86 CURVE SMOOTH",
"66 86 OFFCURVE",
"61 70.667 OFFCURVE",
"61 40 CURVE SMOOTH",
"61 9.333 OFFCURVE",
"66 -6 OFFCURVE",
"76 -6 CURVE",
"158.667 -2 OFFCURVE",
"250.667 0 OFFCURVE",
"352 0 CURVE SMOOTH",
"453.333 0 OFFCURVE",
"548.333 -2 OFFCURVE",
"637 -6 CURVE",
"645.667 -6 OFFCURVE",
"650 9.333 OFFCURVE",
"650 40 CURVE SMOOTH",
"650 70.667 OFFCURVE",
"645.667 86 OFFCURVE",
"637 86 CURVE SMOOTH",
"533 86 OFFCURVE",
"481 125 OFFCURVE",
"481 203 CURVE SMOOTH",
"481 569 LINE SMOOTH",
"481 588.333 OFFCURVE",
"488.667 598 OFFCURVE",
"504 598 CURVE SMOOTH",
"519.333 598 OFFCURVE",
"548 573.333 OFFCURVE",
"590 524 CURVE SMOOTH",
"848 203 LINE SMOOTH",
"875.333 169 OFFCURVE",
"889 143 OFFCURVE",
"889 125 CURVE SMOOTH",
"889 99 OFFCURVE",
"861 86 OFFCURVE",
"805 86 CURVE SMOOTH",
"795.667 86 OFFCURVE",
"791 70.667 OFFCURVE",
"791 40 CURVE SMOOTH",
"791 9.333 OFFCURVE",
"795.667 -6 OFFCURVE",
"805 -6 CURVE",
"897.667 -2 OFFCURVE",
"994.833 0 OFFCURVE",
"1096.5 0 CURVE SMOOTH",
"1198.167 0 OFFCURVE",
"1293.333 -2 OFFCURVE",
"1382 -6 CURVE",
"1392 -6 OFFCURVE",
"1397 9.333 OFFCURVE",
"1397 40 CURVE SMOOTH",
"1397 70.667 OFFCURVE",
"1392 86 OFFCURVE",
"1382 86 CURVE SMOOTH",
"1358 86 OFFCURVE",
"1338.333 86.667 OFFCURVE",
"1323 88 CURVE SMOOTH",
"1256.333 96 OFFCURVE",
"1197 130 OFFCURVE",
"1145 190 CURVE SMOOTH"
);
}
);
userData = {
assembly = "PUSHB[ ]\011/* 5 values pushed */
64 44 2 8 74 
MPPEM[ ]\011/* MeasurePixelPerEm */
PUSHB[ ]\011/* 1 value pushed */
51 
LT[ ]\011/* LessThan */
IF[ ]\011/* If */
NPUSHB[ ]\011/* 37 values pushed */
0 10 0 3 0 10 3 105 13 11 9 3 7 7 8 97 12 1 8 8 68 77 6 4 2 3 0 0 1 95 5 1 1 1 69 1 78 
ELSE[ ]\011/* Else */
MPPEM[ ]\011/* MeasurePixelPerEm */
PUSHB[ ]\011/* 1 value pushed */
60 
LT[ ]\011/* LessThan */
IF[ ]\011/* If */
NPUSHB[ ]\011/* 34 values pushed */
0 10 0 3 0 10 3 105 6 4 2 3 0 5 1 1 0 1 99 13 11 9 3 7 7 8 97 12 1 8 8 68 7 78 
ELSE[ ]\011/* Else */
NPUSHB[ ]\011/* 43 values pushed */
12 1 8 13 11 9 3 7 10 8 7 105 0 10 0 3 0 10 3 105 6 4 2 3 0 1 1 0 89 6 4 2 3 0 0 1 95 5 1 1 0 1 79 
EIF[ ]\011/* EndIf */
EIF[ ]\011/* EndIf */
NPUSHB[ ]\011/* 22 values pushed */
68 66 63 62 58 57 53 51 48 46 20 19 34 66 19 21 34 66 19 14 11 31 
CALL[ ]\011/* CallFunction */";
};
width = 1380;
}
);
leftMetricsKey = "=I";
note = K;
rightKerningGroup = K;
unicode = 004B;
},
{
glyphname = L;
lastChange = "2018-08-11 23:25:34 +0000";
layers = (
{
components = (
{
name = _part.uc_upperdoubleserif;
transform = "{1, 0, 0, 1, -1, 0}";
},
{
name = _part.uc_lowerleftserif;
transform = "{1, 0, 0, 1, -1, 0}";
}
);
layerId = "6CE37295-6E30-426D-87AF-6FEE9061C297";
paths = (
{
closed = 1;
nodes = (
"1280 0 LINE",
"1280 401 LINE",
"1180 401 LINE",
"1180 258 OFFCURVE",
"1080 95 OFFCURVE",
"954 90 CURVE SMOOTH",
"623 78 LINE",
"557 78 OFFCURVE",
"507 112 OFFCURVE",
"489 183 CURVE SMOOTH",
"484 203 OFFCURVE",
"481 225 OFFCURVE",
"481 250 CURVE",
"372 250 LINE",
"372 0 LINE"
);
},
{
closed = 1;
nodes = (
"481 203 LINE",
"481 1153 LINE",
"238 1153 LINE",
"238 203 LINE"
);
}
);
userData = {
assembly = "NPUSHB[ ]\011/* 10 values pushed */
9 1 0 3 1 76 35 1 4 74 
MPPEM[ ]\011/* MeasurePixelPerEm */
PUSHB[ ]\011/* 1 value pushed */
51 
LT[ ]\011/* LessThan */
IF[ ]\011/* If */
NPUSHB[ ]\011/* 23 values pushed */
5 1 3 3 4 97 0 4 4 68 77 2 1 0 0 1 95 0 1 1 69 1 78 
ELSE[ ]\011/* Else */
MPPEM[ ]\011/* MeasurePixelPerEm */
PUSHB[ ]\011/* 1 value pushed */
60 
LT[ ]\011/* LessThan */
IF[ ]\011/* If */
NPUSHB[ ]\011/* 20 values pushed */
2 1 0 0 1 0 1 99 5 1 3 3 4 97 0 4 4 68 3 78 
ELSE[ ]\011/* Else */
NPUSHB[ ]\011/* 27 values pushed */
0 4 5 1 3 0 4 3 105 2 1 0 1 1 0 89 2 1 0 0 1 95 0 1 0 1 79 
EIF[ ]\011/* EndIf */
EIF[ ]\011/* EndIf */
NPUSHB[ ]\011/* 9 values pushed */
35 20 19 34 75 51 6 11 28 
CALL[ ]\011/* CallFunction */";
};
width = 1357;
},
{
components = (
{
name = _part.uc_upperdoubleserif;
transform = "{1, 0, 0, 1, -25, 0}";
},
{
name = _part.uc_lowerleftserif;
transform = "{1, 0, 0, 1, -25, 0}";
}
);
layerId = "EBD25FEC-6C57-4903-A936-5FDFC9C63FB2";
paths = (
{
closed = 1;
nodes = (
"1172 0 LINE",
"1172 381 LINE",
"1102 381 LINE",
"1102 202 OFFCURVE",
"1005 75 OFFCURVE",
"838 67 CURVE SMOOTH",
"565 54 LINE",
"474 54 OFFCURVE",
"421 107 OFFCURVE",
"402 171 CURVE SMOOTH",
"393 202 OFFCURVE",
"387 235 OFFCURVE",
"387 269 CURVE",
"306 277 LINE",
"306 0 LINE"
);
},
{
closed = 1;
nodes = (
"387 186 LINE",
"387 1172 LINE",
"265 1172 LINE",
"265 186 LINE"
);
}
);
width = 1252;
}
);
leftMetricsKey = "=I";
note = L;
rightKerningGroup = L;
unicode = 004C;
},
{
glyphname = Lslash;
lastChange = "2018-08-08 00:32:24 +0000";
layers = (
{
components = (
{
name = L;
}
);
layerId = "6CE37295-6E30-426D-87AF-6FEE9061C297";
paths = (
{
closed = 1;
nodes = (
"713 748 LINE",
"662 878 LINE",
"43 645 LINE",
"100 521 LINE"
);
}
);
userData = {
assembly = "NPUSHB[ ]\011/* 14 values pushed */
54 44 39 23 15 5 1 2 1 76 33 1 3 74 
MPPEM[ ]\011/* MeasurePixelPerEm */
PUSHB[ ]\011/* 1 value pushed */
53 
LT[ ]\011/* LessThan */
IF[ ]\011/* If */
NPUSHB[ ]\011/* 23 values pushed */
4 1 2 2 3 95 0 3 3 68 77 5 1 1 1 0 95 0 0 0 69 0 78 
ELSE[ ]\011/* Else */
MPPEM[ ]\011/* MeasurePixelPerEm */
PUSHB[ ]\011/* 1 value pushed */
60 
LT[ ]\011/* LessThan */
IF[ ]\011/* If */
NPUSHB[ ]\011/* 20 values pushed */
5 1 1 0 0 1 0 99 4 1 2 2 3 95 0 3 3 68 2 78 
ELSE[ ]\011/* Else */
MPPEM[ ]\011/* MeasurePixelPerEm */
PUSHB[ ]\011/* 1 value pushed */
138 
LT[ ]\011/* LessThan */
IF[ ]\011/* If */
NPUSHB[ ]\011/* 27 values pushed */
0 3 4 1 2 1 3 2 105 5 1 1 0 0 1 89 5 1 1 1 0 95 0 0 1 0 79 
ELSE[ ]\011/* Else */
NPUSHB[ ]\011/* 29 values pushed */
0 1 2 0 2 1 0 128 0 0 0 132 0 3 2 2 3 87 0 3 3 2 97 4 1 2 3 2 81 
EIF[ ]\011/* EndIf */
EIF[ ]\011/* EndIf */
EIF[ ]\011/* EndIf */
NPUSHB[ ]\011/* 9 values pushed */
59 35 66 28 34 99 6 11 28 
CALL[ ]\011/* CallFunction */";
};
width = 1357;
},
{
components = (
{
name = L;
}
);
layerId = "EBD25FEC-6C57-4903-A936-5FDFC9C63FB2";
paths = (
{
closed = 1;
nodes = (
"623 762 LINE",
"584 864 LINE",
"64 667 LINE",
"109 571 LINE"
);
}
);
width = 1252;
}
);
note = Lslash;
rightMetricsKey = "=L";
unicode = 0141;
},
{
glyphname = M;
lastChange = "2018-08-08 00:28:28 +0000";
layers = (
{
layerId = "6CE37295-6E30-426D-87AF-6FEE9061C297";
paths = (
{
closed = 1;
nodes = (
"884 -18 LINE",
"1354 897 LINE",
"1368 897 LINE",
"1374 209 LINE SMOOTH",
"1375 127 OFFCURVE",
"1323 86 OFFCURVE",
"1211 86 CURVE",
"1211 0 LINE",
"1779 0 LINE",
"1779 86 LINE",
"1663 86 OFFCURVE",
"1609 127 OFFCURVE",
"1608 209 CURVE SMOOTH",
"1597 1124 LINE SMOOTH",
"1596 1176 OFFCURVE",
"1606 1224 OFFCURVE",
"1657 1250 CURVE SMOOTH",
"1682 1263 OFFCURVE",
"1716 1270 OFFCURVE",
"1765 1270 CURVE",
"1765 1358 LINE",
"1538 1358 LINE SMOOTH",
"1493 1358 OFFCURVE",
"1455 1331 OFFCURVE",
"1427 1276 CURVE SMOOTH",
"947 336 LINE",
"917 336 LINE",
"469 1270 LINE SMOOTH",
"439 1332 OFFCURVE",
"394 1358 OFFCURVE",
"350 1358 CURVE SMOOTH",
"70 1358 LINE",
"70 1270 LINE",
"169 1270 OFFCURVE",
"226 1248 OFFCURVE",
"246 1203 CURVE SMOOTH",
"256 1180 OFFCURVE",
"255 1149 OFFCURVE",
"253 1116 CURVE SMOOTH",
"193 211 LINE SMOOTH",
"187 128 OFFCURVE",
"139 86 OFFCURVE",
"31 86 CURVE",
"31 0 LINE",
"479 0 LINE",
"479 86 LINE",
"356 86 OFFCURVE",
"299 115 OFFCURVE",
"299 174 CURVE SMOOTH",
"299 207 LINE",
"349 989 LINE",
"365 989 LINE",
"844 -18 LINE"
);
}
);
userData = {
assembly = "MPPEM[ ]\011/* MeasurePixelPerEm */
PUSHB[ ]\011/* 1 value pushed */
34 
LT[ ]\011/* LessThan */
IF[ ]\011/* If */
NPUSHB[ ]\011/* 14 values pushed */
25 1 9 7 1 76 62 1 8 74 35 1 1 73 
ELSE[ ]\011/* Else */
NPUSHB[ ]\011/* 14 values pushed */
25 1 9 7 35 1 3 1 2 76 62 1 8 74 
EIF[ ]\011/* EndIf */
MPPEM[ ]\011/* MeasurePixelPerEm */
PUSHB[ ]\011/* 1 value pushed */
34 
LT[ ]\011/* LessThan */
IF[ ]\011/* If */
NPUSHB[ ]\011/* 36 values pushed */
0 9 7 0 7 9 0 128 11 1 7 7 8 97 10 1 8 8 68 77 6 4 2 3 0 0 1 97 5 3 2 1 1 69 1 78 
ELSE[ ]\011/* Else */
MPPEM[ ]\011/* MeasurePixelPerEm */
PUSHB[ ]\011/* 1 value pushed */
51 
LT[ ]\011/* LessThan */
IF[ ]\011/* If */
NPUSHB[ ]\011/* 40 values pushed */
0 9 7 0 7 9 0 128 11 1 7 7 8 97 10 1 8 8 68 77 6 4 2 3 0 0 1 97 5 1 1 1 69 77 0 3 3 69 3 78 
ELSE[ ]\011/* Else */
MPPEM[ ]\011/* MeasurePixelPerEm */
PUSHB[ ]\011/* 1 value pushed */
60 
LT[ ]\011/* LessThan */
IF[ ]\011/* If */
NPUSHB[ ]\011/* 38 values pushed */
0 9 7 0 7 9 0 128 6 4 2 3 0 5 1 1 3 0 1 105 11 1 7 7 8 97 10 1 8 8 68 77 0 3 3 69 3 78 
ELSE[ ]\011/* Else */
MPPEM[ ]\011/* MeasurePixelPerEm */
PUSHB[ ]\011/* 1 value pushed */
147 
LT[ ]\011/* LessThan */
IF[ ]\011/* If */
NPUSHB[ ]\011/* 36 values pushed */
0 9 7 0 7 9 0 128 10 1 8 11 1 7 9 8 7 105 6 4 2 3 0 5 1 1 3 0 1 105 0 3 3 69 3 78 
ELSE[ ]\011/* Else */
NPUSHB[ ]\011/* 41 values pushed */
0 9 7 0 7 9 0 128 0 8 10 7 8 87 0 10 11 1 7 9 10 7 105 6 4 2 3 0 5 1 1 3 0 1 105 0 3 3 69 3 78 
EIF[ ]\011/* EndIf */
EIF[ ]\011/* EndIf */
EIF[ ]\011/* EndIf */
EIF[ ]\011/* EndIf */
NPUSHB[ ]\011/* 18 values pushed */
66 64 61 58 55 54 82 20 35 50 24 23 34 66 17 12 11 31 
CALL[ ]\011/* CallFunction */";
};
width = 1814;
},
{
layerId = "EBD25FEC-6C57-4903-A936-5FDFC9C63FB2";
paths = (
{
closed = 1;
nodes = (
"884 -23 LINE",
"1350 1052 LINE",
"1376 1052 LINE",
"1380 186 LINE SMOOTH",
"1380 108 OFFCURVE",
"1330 69 OFFCURVE",
"1221 69 CURVE",
"1221 0 LINE",
"1674 0 LINE",
"1674 69 LINE",
"1559 69 OFFCURVE",
"1506 108 OFFCURVE",
"1505 186 CURVE SMOOTH",
"1498 1106 LINE SMOOTH",
"1497 1178 OFFCURVE",
"1509 1224 OFFCURVE",
"1562 1260 CURVE SMOOTH",
"1588 1278 OFFCURVE",
"1639 1287 OFFCURVE",
"1696 1287 CURVE",
"1696 1358 LINE",
"1498 1358 LINE SMOOTH",
"1436 1358 OFFCURVE",
"1398 1339 OFFCURVE",
"1377 1291 CURVE SMOOTH",
"909 219 LINE",
"878 219 LINE",
"411 1285 LINE SMOOTH",
"387 1340 OFFCURVE",
"351 1358 OFFCURVE",
"285 1358 CURVE SMOOTH",
"84 1358 LINE",
"84 1287 LINE",
"210 1287 OFFCURVE",
"263 1246 OFFCURVE",
"276 1203 CURVE SMOOTH",
"286 1170 OFFCURVE",
"286 1147 OFFCURVE",
"284 1130 CURVE SMOOTH",
"225 186 LINE SMOOTH",
"220 108 OFFCURVE",
"158 69 OFFCURVE",
"58 69 CURVE",
"58 0 LINE",
"475 0 LINE",
"475 69 LINE",
"378 69 OFFCURVE",
"307 138 OFFCURVE",
"307 168 CURVE SMOOTH",
"307 186 LINE",
"359 1058 LINE",
"377 1058 LINE",
"857 -23 LINE"
);
}
);
width = 1760;
}
);
note = M;
unicode = 004D;
},
{
glyphname = N;
lastChange = "2018-08-18 15:09:27 +0000";
layers = (
{
anchors = (
{
name = bottom;
position = "{740, 0}";
},
{
name = top;
position = "{740, 1358}";
}
);
layerId = "6CE37295-6E30-426D-87AF-6FEE9061C297";
paths = (
{
closed = 1;
nodes = (
"1288 -20 LINE",
"1288 1151 LINE SMOOTH",
"1288 1230 OFFCURVE",
"1333 1270 OFFCURVE",
"1433 1270 CURVE",
"1433 1358 LINE",
"1022 1358 LINE",
"1022 1270 LINE",
"1135 1270 OFFCURVE",
"1186 1230 OFFCURVE",
"1186 1151 CURVE SMOOTH",
"1186 418 LINE",
"1148 418 LINE",
"426 1298 LINE SMOOTH",
"399 1331 OFFCURVE",
"367 1358 OFFCURVE",
"286 1358 CURVE",
"41 1358 LINE",
"41 1270 LINE",
"176 1270 OFFCURVE",
"223 1232 OFFCURVE",
"223 1155 CURVE SMOOTH",
"223 203 LINE SMOOTH",
"223 124 OFFCURVE",
"173 86 OFFCURVE",
"56 86 CURVE",
"56 0 LINE",
"489 0 LINE",
"489 86 LINE",
"378 86 OFFCURVE",
"328 125 OFFCURVE",
"328 203 CURVE SMOOTH",
"328 1030 LINE",
"347 1030 LINE",
"1232 -20 LINE"
);
}
);
userData = {
assembly = "PUSHB[ ]\011/* 6 values pushed */
9 1 6 4 1 76 
MPPEM[ ]\011/* MeasurePixelPerEm */
PUSHB[ ]\011/* 1 value pushed */
51 
LT[ ]\011/* LessThan */
IF[ ]\011/* If */
NPUSHB[ ]\011/* 38 values pushed */
0 6 4 1 4 6 1 128 9 7 2 4 4 5 95 8 1 5 5 68 77 3 1 1 1 2 95 0 2 2 69 77 0 0 0 69 0 78 
ELSE[ ]\011/* Else */
MPPEM[ ]\011/* MeasurePixelPerEm */
PUSHB[ ]\011/* 1 value pushed */
60 
LT[ ]\011/* LessThan */
IF[ ]\011/* If */
NPUSHB[ ]\011/* 36 values pushed */
0 6 4 1 4 6 1 128 3 1 1 0 2 0 1 2 103 9 7 2 4 4 5 95 8 1 5 5 68 77 0 0 0 69 0 78 
ELSE[ ]\011/* Else */
NPUSHB[ ]\011/* 34 values pushed */
0 6 4 1 4 6 1 128 8 1 5 9 7 2 4 6 5 4 105 3 1 1 0 2 0 1 2 103 0 0 0 69 0 78 
EIF[ ]\011/* EndIf */
EIF[ ]\011/* EndIf */
NPUSHB[ ]\011/* 14 values pushed */
55 53 82 19 37 66 19 34 52 24 33 10 11 31 
CALL[ ]\011/* CallFunction */";
};
width = 1480;
},
{
anchors = (
{
name = bottom;
position = "{702, 0}";
},
{
name = top;
position = "{702, 1358}";
}
);
layerId = "EBD25FEC-6C57-4903-A936-5FDFC9C63FB2";
paths = (
{
closed = 1;
nodes = (
"1211 -21 LINE",
"1211 1171 LINE SMOOTH",
"1211 1248 OFFCURVE",
"1256 1287 OFFCURVE",
"1357 1287 CURVE",
"1357 1358 LINE",
"967 1358 LINE",
"967 1287 LINE",
"1091 1287 OFFCURVE",
"1148 1248 OFFCURVE",
"1148 1171 CURVE SMOOTH",
"1148 299 LINE",
"1123 299 LINE",
"363 1309 LINE SMOOTH",
"332 1351 OFFCURVE",
"283 1358 OFFCURVE",
"225 1358 CURVE SMOOTH",
"56 1358 LINE",
"56 1287 LINE",
"195 1287 OFFCURVE",
"254 1245 OFFCURVE",
"254 1110 CURVE SMOOTH",
"254 186 LINE SMOOTH",
"254 108 OFFCURVE",
"198 69 OFFCURVE",
"77 69 CURVE",
"77 0 LINE",
"486 0 LINE",
"486 69 LINE",
"370 69 OFFCURVE",
"317 108 OFFCURVE",
"317 186 CURVE SMOOTH",
"317 1117 LINE",
"340 1117 LINE",
"1191 -21 LINE"
);
}
);
width = 1403;
}
);
note = N;
unicode = 004E;
},
{
glyphname = O;
lastChange = "2018-08-18 14:37:27 +0000";
layers = (
{
anchors = (
{
name = bottom;
position = "{762, 0}";
},
{
name = center;
position = "{762, 659}";
},
{
name = ogonek;
position = "{1371, 10}";
},
{
name = top;
position = "{762, 1358}";
},
{
name = topleft;
position = "{20, 1358}";
},
{
name = topright;
position = "{1503, 1358}";
}
);
layerId = "6CE37295-6E30-426D-87AF-6FEE9061C297";
paths = (
{
closed = 1;
nodes = (
"1120 -27 OFFCURVE",
"1430 289 OFFCURVE",
"1430 664 CURVE SMOOTH",
"1430 1057 OFFCURVE",
"1140 1384 OFFCURVE",
"745 1384 CURVE SMOOTH",
"359 1384 OFFCURVE",
"55 1054 OFFCURVE",
"55 668 CURVE SMOOTH",
"55 262 OFFCURVE",
"340 -27 OFFCURVE",
"741 -27 CURVE SMOOTH"
);
},
{
closed = 1;
nodes = (
"498 68 OFFCURVE",
"328 418 OFFCURVE",
"328 725 CURVE SMOOTH",
"328 1017 OFFCURVE",
"480 1296 OFFCURVE",
"739 1296 CURVE SMOOTH",
"976 1296 OFFCURVE",
"1157 934 OFFCURVE",
"1157 649 CURVE SMOOTH",
"1157 332 OFFCURVE",
"1045 68 OFFCURVE",
"756 68 CURVE SMOOTH"
);
}
);
userData = {
assembly = "MPPEM[ ]\011/* MeasurePixelPerEm */
PUSHB[ ]\011/* 1 value pushed */
60 
LT[ ]\011/* LessThan */
IF[ ]\011/* If */
NPUSHB[ ]\011/* 21 values pushed */
0 2 2 1 97 0 1 1 74 77 0 3 3 0 97 0 0 0 75 0 78 
ELSE[ ]\011/* Else */
NPUSHB[ ]\011/* 19 values pushed */
0 1 0 2 3 1 2 105 0 3 3 0 97 0 0 0 75 0 78 
EIF[ ]\011/* EndIf */
PUSHB[ ]\011/* 7 values pushed */
38 38 38 35 4 11 26 
CALL[ ]\011/* CallFunction */";
};
width = 1523;
},
{
anchors = (
{
name = bottom;
position = "{708, 0}";
},
{
name = center;
position = "{708, 679}";
},
{
name = ogonek;
position = "{1274, 10}";
},
{
name = top;
position = "{708, 1358}";
},
{
name = topleft;
position = "{20, 1358}";
},
{
name = topright;
position = "{1395, 1358}";
}
);
layerId = "EBD25FEC-6C57-4903-A936-5FDFC9C63FB2";
paths = (
{
closed = 1;
nodes = (
"1112 -27 OFFCURVE",
"1337 322 OFFCURVE",
"1337 663 CURVE SMOOTH",
"1337 1071 OFFCURVE",
"1072 1385 OFFCURVE",
"717 1385 CURVE SMOOTH",
"321 1385 OFFCURVE",
"91 1018 OFFCURVE",
"91 667 CURVE SMOOTH",
"91 288 OFFCURVE",
"325 -27 OFFCURVE",
"712 -27 CURVE SMOOTH"
);
},
{
closed = 1;
nodes = (
"493 38 OFFCURVE",
"238 313 OFFCURVE",
"238 726 CURVE SMOOTH",
"238 1027 OFFCURVE",
"414 1324 OFFCURVE",
"704 1324 CURVE SMOOTH",
"946 1324 OFFCURVE",
"1191 1019 OFFCURVE",
"1191 647 CURVE SMOOTH",
"1191 310 OFFCURVE",
"1019 38 OFFCURVE",
"726 38 CURVE SMOOTH"
);
}
);
width = 1415;
}
);
leftKerningGroup = C;
note = O;
rightKerningGroup = O;
unicode = 004F;
},
{
glyphname = OE;
lastChange = "2018-08-10 11:34:59 +0000";
layers = (
{
anchors = (
{
name = bottom;
position = "{1004, 0}";
},
{
name = top;
position = "{1004, 1358}";
}
);
layerId = "6CE37295-6E30-426D-87AF-6FEE9061C297";
paths = (
{
closed = 1;
nodes = (
"1945 0 LINE",
"1945 354 LINE",
"1842 354 LINE",
"1842 299 OFFCURVE",
"1836 260 OFFCURVE",
"1824 227 CURVE SMOOTH",
"1792 138 OFFCURVE",
"1724 92 OFFCURVE",
"1619 90 CURVE SMOOTH",
"1396 86 LINE",
"1367 86 OFFCURVE",
"1340 93 OFFCURVE",
"1314 106 CURVE SMOOTH",
"1265 131 OFFCURVE",
"1240 169 OFFCURVE",
"1240 221 CURVE SMOOTH",
"1240 594 LINE",
"1404 594 LINE SMOOTH",
"1486 594 OFFCURVE",
"1527 565 OFFCURVE",
"1527 506 CURVE SMOOTH",
"1527 417 LINE",
"1628 417 LINE",
"1628 881 LINE",
"1527 881 LINE",
"1527 778 LINE SMOOTH",
"1527 717 OFFCURVE",
"1486 686 OFFCURVE",
"1404 686 CURVE SMOOTH",
"1240 686 LINE",
"1240 1266 LINE",
"1564 1255 LINE SMOOTH",
"1607 1254 OFFCURVE",
"1648 1237 OFFCURVE",
"1689 1206 CURVE SMOOTH",
"1755 1156 OFFCURVE",
"1787 1087 OFFCURVE",
"1787 991 CURVE",
"1887 991 LINE",
"1887 1358 LINE",
"719 1358 LINE SMOOTH",
"347 1358 OFFCURVE",
"55 1040 OFFCURVE",
"55 668 CURVE SMOOTH",
"55 278 OFFCURVE",
"329 0 OFFCURVE",
"715 0 CURVE"
);
},
{
closed = 1;
nodes = (
"481 80 OFFCURVE",
"318 428 OFFCURVE",
"318 723 CURVE SMOOTH",
"318 1004 OFFCURVE",
"464 1272 OFFCURVE",
"713 1272 CURVE SMOOTH",
"845 1272 OFFCURVE",
"935 1265 OFFCURVE",
"997 1172 CURVE",
"997 178 LINE",
"931 96 OFFCURVE",
"884 80 OFFCURVE",
"729 80 CURVE SMOOTH"
);
}
);
userData = {
assembly = "NPUSHB[ ]\011/* 13 values pushed */
45 39 27 3 3 2 71 52 2 5 4 2 76 
MPPEM[ ]\011/* MeasurePixelPerEm */
PUSHB[ ]\011/* 1 value pushed */
48 
LT[ ]\011/* LessThan */
IF[ ]\011/* If */
NPUSHB[ ]\011/* 31 values pushed */
0 3 0 4 5 3 4 105 6 1 2 2 1 95 0 1 1 68 77 7 1 5 5 0 95 0 0 0 69 0 78 
ELSE[ ]\011/* Else */
MPPEM[ ]\011/* MeasurePixelPerEm */
PUSHB[ ]\011/* 1 value pushed */
56 
LT[ ]\011/* LessThan */
IF[ ]\011/* If */
NPUSHB[ ]\011/* 43 values pushed */
0 2 6 3 6 2 114 0 5 4 7 7 5 114 0 3 0 4 5 3 4 105 0 6 6 1 95 0 1 1 68 77 0 7 7 0 96 0 0 0 69 0 78 
ELSE[ ]\011/* Else */
MPPEM[ ]\011/* MeasurePixelPerEm */
PUSHB[ ]\011/* 1 value pushed */
60 
LT[ ]\011/* LessThan */
IF[ ]\011/* If */
NPUSHB[ ]\011/* 40 values pushed */
0 2 6 3 6 2 114 0 5 4 7 7 5 114 0 3 0 4 5 3 4 105 0 7 0 0 7 0 100 0 6 6 1 95 0 1 1 68 6 78 
ELSE[ ]\011/* Else */
NPUSHB[ ]\011/* 46 values pushed */
0 2 6 3 6 2 114 0 5 4 7 7 5 114 0 1 0 6 2 1 6 105 0 3 0 4 5 3 4 105 0 7 0 0 7 89 0 7 7 0 96 0 0 7 0 80 
EIF[ ]\011/* EndIf */
EIF[ ]\011/* EndIf */
EIF[ ]\011/* EndIf */
NPUSHB[ ]\011/* 11 values pushed */
36 58 53 62 36 74 132 131 8 11 30 
CALL[ ]\011/* CallFunction */";
};
width = 2008;
},
{
anchors = (
{
name = bottom;
position = "{936, 0}";
},
{
name = top;
position = "{936, 1358}";
}
);
layerId = "EBD25FEC-6C57-4903-A936-5FDFC9C63FB2";
paths = (
{
closed = 1;
nodes = (
"1793 0 LINE",
"1793 342 LINE",
"1728 342 LINE",
"1728 290 OFFCURVE",
"1723 254 OFFCURVE",
"1713 222 CURVE SMOOTH",
"1681 119 OFFCURVE",
"1601 65 OFFCURVE",
"1469 61 CURVE SMOOTH",
"1234 54 LINE",
"1199 54 OFFCURVE",
"1168 65 OFFCURVE",
"1143 86 CURVE SMOOTH",
"1100 122 OFFCURVE",
"1078 179 OFFCURVE",
"1078 254 CURVE SMOOTH",
"1078 612 LINE",
"1312 612 LINE SMOOTH",
"1416 612 OFFCURVE",
"1429 574 OFFCURVE",
"1429 517 CURVE SMOOTH",
"1429 421 LINE",
"1488 421 LINE",
"1488 876 LINE",
"1429 876 LINE",
"1429 788 LINE SMOOTH",
"1429 709 OFFCURVE",
"1416 671 OFFCURVE",
"1312 671 CURVE SMOOTH",
"1078 671 LINE",
"1078 1297 LINE",
"1403 1290 LINE SMOOTH",
"1485 1288 OFFCURVE",
"1547 1267 OFFCURVE",
"1590 1226 CURVE SMOOTH",
"1638 1181 OFFCURVE",
"1661 1111 OFFCURVE",
"1661 1008 CURVE",
"1726 1008 LINE",
"1726 1358 LINE",
"697 1358 LINE SMOOTH",
"316 1358 OFFCURVE",
"91 1005 OFFCURVE",
"91 667 CURVE SMOOTH",
"91 303 OFFCURVE",
"320 0 OFFCURVE",
"692 0 CURVE"
);
},
{
closed = 1;
nodes = (
"491 68 OFFCURVE",
"238 327 OFFCURVE",
"238 724 CURVE SMOOTH",
"238 1014 OFFCURVE",
"415 1289 OFFCURVE",
"685 1289 CURVE SMOOTH",
"809 1289 OFFCURVE",
"893 1283 OFFCURVE",
"956 1208 CURVE",
"956 122 LINE",
"896 73 OFFCURVE",
"848 68 OFFCURVE",
"706 68 CURVE SMOOTH"
);
}
);
width = 1872;
}
);
leftKerningGroup = C;
leftMetricsKey = "=O";
note = OE;
rightMetricsKey = "=E";
unicode = 0152;
},
{
glyphname = P;
lastChange = "2018-08-08 00:32:35 +0000";
layers = (
{
components = (
{
name = _part.uc_lowerdoubleserif.001;
transform = "{1, 0, 0, 1, -1, 0}";
},
{
name = _part.uc_upperleftserif;
transform = "{1, 0, 0, 1, -1, 0}";
}
);
layerId = "6CE37295-6E30-426D-87AF-6FEE9061C297";
paths = (
{
closed = 1;
nodes = (
"481 203 LINE",
"481 639 LINE",
"422 620 LINE",
"481 597 OFFCURVE",
"562 596 OFFCURVE",
"653 596 CURVE SMOOTH",
"938 596 OFFCURVE",
"1180 714 OFFCURVE",
"1180 969 CURVE SMOOTH",
"1180 1216 OFFCURVE",
"938 1358 OFFCURVE",
"659 1358 CURVE SMOOTH",
"354 1358 LINE",
"238 1155 LINE",
"238 203 LINE"
);
},
{
closed = 1;
nodes = (
"481 1278 LINE",
"577 1278 LINE SMOOTH",
"805 1278 OFFCURVE",
"924 1130 OFFCURVE",
"924 969 CURVE SMOOTH",
"924 774 OFFCURVE",
"803 676 OFFCURVE",
"592 676 CURVE SMOOTH",
"538 676 OFFCURVE",
"485 678 OFFCURVE",
"440 705 CURVE",
"481 649 LINE"
);
}
);
userData = {
assembly = "PUSHB[ ]\011/* 6 values pushed */
44 1 8 3 1 76 
MPPEM[ ]\011/* MeasurePixelPerEm */
PUSHB[ ]\011/* 1 value pushed */
39 
LT[ ]\011/* LessThan */
IF[ ]\011/* If */
NPUSHB[ ]\011/* 32 values pushed */
0 8 6 1 5 0 8 5 105 7 1 3 3 4 95 0 4 4 68 77 2 1 0 0 1 95 0 1 1 69 1 78 
ELSE[ ]\011/* Else */
MPPEM[ ]\011/* MeasurePixelPerEm */
PUSHB[ ]\011/* 1 value pushed */
51 
LT[ ]\011/* LessThan */
IF[ ]\011/* If */
NPUSHB[ ]\011/* 38 values pushed */
0 3 7 8 7 3 114 0 8 6 1 5 0 8 5 105 0 7 7 4 95 0 4 4 68 77 2 1 0 0 1 95 0 1 1 69 1 78 
ELSE[ ]\011/* Else */
MPPEM[ ]\011/* MeasurePixelPerEm */
PUSHB[ ]\011/* 1 value pushed */
60 
LT[ ]\011/* LessThan */
IF[ ]\011/* If */
NPUSHB[ ]\011/* 35 values pushed */
0 3 7 8 7 3 114 0 8 6 1 5 0 8 5 105 2 1 0 0 1 0 1 99 0 7 7 4 95 0 4 4 68 7 78 
ELSE[ ]\011/* Else */
MPPEM[ ]\011/* MeasurePixelPerEm */
PUSHB[ ]\011/* 1 value pushed */
93 
LT[ ]\011/* LessThan */
IF[ ]\011/* If */
NPUSHB[ ]\011/* 42 values pushed */
0 3 7 8 7 3 114 0 4 0 7 3 4 7 105 0 8 6 1 5 0 8 5 105 2 1 0 1 1 0 89 2 1 0 0 1 95 0 1 0 1 79 
ELSE[ ]\011/* Else */
NPUSHB[ ]\011/* 49 values pushed */
0 3 7 8 7 3 114 0 6 8 5 8 6 5 128 0 4 0 7 3 4 7 105 0 8 0 5 0 8 5 105 2 1 0 1 1 0 89 2 1 0 0 1 95 0 1 0 1 79 
EIF[ ]\011/* EndIf */
EIF[ ]\011/* EndIf */
EIF[ ]\011/* EndIf */
EIF[ ]\011/* EndIf */
NPUSHB[ ]\011/* 12 values pushed */
39 37 17 38 114 19 34 82 17 9 11 31 
CALL[ ]\011/* CallFunction */";
};
width = 1212;
},
{
components = (
{
name = _part.uc_lowerdoubleserif.001;
transform = "{1, 0, 0, 1, -25, 0}";
},
{
name = _part.uc_upperleftserif;
transform = "{1, 0, 0, 1, -25, 0}";
}
);
layerId = "EBD25FEC-6C57-4903-A936-5FDFC9C63FB2";
paths = (
{
closed = 1;
nodes = (
"387 186 LINE",
"387 619 LINE",
"329 623 LINE",
"403 597 OFFCURVE",
"479 596 OFFCURVE",
"594 596 CURVE SMOOTH",
"882 596 OFFCURVE",
"1052 740 OFFCURVE",
"1052 980 CURVE SMOOTH",
"1052 1220 OFFCURVE",
"869 1358 OFFCURVE",
"600 1358 CURVE SMOOTH",
"302 1358 LINE",
"265 1172 LINE",
"265 186 LINE"
);
},
{
closed = 1;
nodes = (
"387 1304 LINE",
"523 1304 LINE SMOOTH",
"751 1304 OFFCURVE",
"920 1156 OFFCURVE",
"920 984 CURVE SMOOTH",
"920 767 OFFCURVE",
"777 650 OFFCURVE",
"532 650 CURVE SMOOTH",
"435 650 OFFCURVE",
"356 667 OFFCURVE",
"315 699 CURVE",
"387 643 LINE"
);
}
);
width = 1100;
}
);
leftMetricsKey = "=I";
note = P;
rightKerningGroup = P;
unicode = 0050;
},
{
glyphname = Q;
lastChange = "2018-08-08 00:32:35 +0000";
layers = (
{
layerId = "6CE37295-6E30-426D-87AF-6FEE9061C297";
paths = (
{
closed = 1;
nodes = (
"1669 -258 LINE",
"1443 -193 OFFCURVE",
"1165 -70 OFFCURVE",
"977 74 CURVE",
"989 -20 LINE",
"1310 182 OFFCURVE",
"1430 424 OFFCURVE",
"1430 659 CURVE SMOOTH",
"1430 1054 OFFCURVE",
"1142 1384 OFFCURVE",
"745 1384 CURVE SMOOTH",
"362 1384 OFFCURVE",
"55 1047 OFFCURVE",
"55 662 CURVE SMOOTH",
"55 362 OFFCURVE",
"228 108 OFFCURVE",
"500 0 CURVE SMOOTH",
"1012 -203 OFFCURVE",
"1326 -298 OFFCURVE",
"1640 -358 CURVE"
);
},
{
closed = 1;
nodes = (
"493 66 OFFCURVE",
"328 405 OFFCURVE",
"328 717 CURVE SMOOTH",
"328 1010 OFFCURVE",
"470 1296 OFFCURVE",
"739 1296 CURVE SMOOTH",
"987 1296 OFFCURVE",
"1157 939 OFFCURVE",
"1157 641 CURVE SMOOTH",
"1157 331 OFFCURVE",
"1039 66 OFFCURVE",
"756 66 CURVE SMOOTH"
);
}
);
userData = {
assembly = "MPPEM[ ]\011/* MeasurePixelPerEm */
PUSHB[ ]\011/* 1 value pushed */
60 
LT[ ]\011/* LessThan */
IF[ ]\011/* If */
NPUSHB[ ]\011/* 16 values pushed */
0 2 1 2 134 0 1 1 0 97 0 0 0 74 1 78 
ELSE[ ]\011/* Else */
NPUSHB[ ]\011/* 21 values pushed */
0 2 1 2 134 0 0 1 1 0 89 0 0 0 1 97 0 1 0 1 81 
EIF[ ]\011/* EndIf */
NPUSHB[ ]\011/* 9 values pushed */
45 43 37 35 29 27 3 11 22 
CALL[ ]\011/* CallFunction */";
};
width = 1488;
},
{
layerId = "EBD25FEC-6C57-4903-A936-5FDFC9C63FB2";
paths = (
{
closed = 1;
nodes = (
"1633 -300 LINE",
"1336 -221 OFFCURVE",
"1020 -67 OFFCURVE",
"917 35 CURVE",
"921 -4 LINE",
"1213 120 OFFCURVE",
"1343 403 OFFCURVE",
"1343 663 CURVE SMOOTH",
"1343 1056 OFFCURVE",
"1092 1385 OFFCURVE",
"720 1385 CURVE SMOOTH",
"328 1385 OFFCURVE",
"91 1022 OFFCURVE",
"91 667 CURVE SMOOTH",
"91 346 OFFCURVE",
"248 110 OFFCURVE",
"481 9 CURVE SMOOTH",
"855 -153 OFFCURVE",
"1234 -276 OFFCURVE",
"1617 -359 CURVE"
);
},
{
closed = 1;
nodes = (
"504 39 OFFCURVE",
"242 325 OFFCURVE",
"242 708 CURVE SMOOTH",
"242 1084 OFFCURVE",
"449 1322 OFFCURVE",
"713 1322 CURVE SMOOTH",
"952 1322 OFFCURVE",
"1192 1012 OFFCURVE",
"1192 664 CURVE SMOOTH",
"1192 321 OFFCURVE",
"1030 39 OFFCURVE",
"729 39 CURVE SMOOTH"
);
}
);
width = 1445;
}
);
leftKerningGroup = C;
leftMetricsKey = "=O";
note = Q;
unicode = 0051;
},
{
glyphname = R;
lastChange = "2018-08-12 11:43:14 +0000";
layers = (
{
components = (
{
name = _part.uc_lowerdoubleserif.001;
transform = "{1, 0, 0, 1, -1, 0}";
},
{
name = _part.uc_upperleftserif;
transform = "{1, 0, 0, 1, -1, 0}";
}
);
layerId = "6CE37295-6E30-426D-87AF-6FEE9061C297";
paths = (
{
closed = 1;
nodes = (
"1370 -25 OFFCURVE",
"1401 -23 OFFCURVE",
"1432 -20 CURVE",
"1432 45 LINE",
"1372 56 OFFCURVE",
"1313 95 OFFCURVE",
"1249 162 CURVE SMOOTH",
"1122 294 OFFCURVE",
"1009 440 OFFCURVE",
"897 623 CURVE",
"1120 689 OFFCURVE",
"1212 801 OFFCURVE",
"1212 969 CURVE SMOOTH",
"1212 1238 OFFCURVE",
"967 1358 OFFCURVE",
"659 1358 CURVE SMOOTH",
"354 1358 LINE",
"238 1155 LINE",
"238 203 LINE",
"481 203 LINE",
"481 588 LINE",
"567 588 LINE SMOOTH",
"593 588 OFFCURVE",
"615 580 OFFCURVE",
"631 565 CURVE SMOOTH",
"649 549 OFFCURVE",
"705 484 OFFCURVE",
"741 427 CURVE SMOOTH",
"782 363 OFFCURVE",
"865 246 OFFCURVE",
"914 198 CURVE SMOOTH",
"1047 66 OFFCURVE",
"1184 -25 OFFCURVE",
"1339 -25 CURVE SMOOTH"
);
},
{
closed = 1;
nodes = (
"481 1278 LINE",
"563 1278 LINE",
"778 1278 OFFCURVE",
"958 1165 OFFCURVE",
"958 969 CURVE SMOOTH",
"958 757 OFFCURVE",
"816 666 OFFCURVE",
"592 666 CURVE SMOOTH",
"566 666 OFFCURVE",
"479 671 OFFCURVE",
"445 689 CURVE",
"481 639 LINE"
);
}
);
userData = {
assembly = "NPUSHB[ ]\011/* 10 values pushed */
27 1 2 1 12 1 3 2 2 76 
MPPEM[ ]\011/* MeasurePixelPerEm */
PUSHB[ ]\011/* 1 value pushed */
39 
LT[ ]\011/* LessThan */
IF[ ]\011/* If */
NPUSHB[ ]\011/* 36 values pushed */
0 8 0 1 2 8 1 103 7 1 5 5 6 95 0 6 6 68 77 4 1 2 2 3 95 0 3 3 69 77 0 0 0 69 0 78 
ELSE[ ]\011/* Else */
MPPEM[ ]\011/* MeasurePixelPerEm */
PUSHB[ ]\011/* 1 value pushed */
51 
LT[ ]\011/* LessThan */
IF[ ]\011/* If */
NPUSHB[ ]\011/* 42 values pushed */
0 5 7 8 7 5 114 0 8 0 1 2 8 1 103 0 7 7 6 95 0 6 6 68 77 4 1 2 2 3 95 0 3 3 69 77 0 0 0 69 0 78 
ELSE[ ]\011/* Else */
MPPEM[ ]\011/* MeasurePixelPerEm */
PUSHB[ ]\011/* 1 value pushed */
60 
LT[ ]\011/* LessThan */
IF[ ]\011/* If */
NPUSHB[ ]\011/* 40 values pushed */
0 5 7 8 7 5 114 0 8 0 1 2 8 1 103 4 1 2 0 3 0 2 3 103 0 7 7 6 95 0 6 6 68 77 0 0 0 69 0 78 
ELSE[ ]\011/* Else */
NPUSHB[ ]\011/* 38 values pushed */
0 5 7 8 7 5 114 0 6 0 7 5 6 7 105 0 8 0 1 2 8 1 103 4 1 2 0 3 0 2 3 103 0 0 0 69 0 78 
EIF[ ]\011/* EndIf */
EIF[ ]\011/* EndIf */
EIF[ ]\011/* EndIf */
NPUSHB[ ]\011/* 12 values pushed */
38 38 114 19 34 82 20 24 46 9 11 31 
CALL[ ]\011/* CallFunction */";
};
width = 1419;
},
{
components = (
{
name = _part.uc_lowerdoubleserif.001;
transform = "{1, 0, 0, 1, -25, 0}";
},
{
name = _part.uc_upperleftserif;
transform = "{1, 0, 0, 1, -25, 0}";
}
);
layerId = "EBD25FEC-6C57-4903-A936-5FDFC9C63FB2";
paths = (
{
closed = 1;
nodes = (
"1325 -25 OFFCURVE",
"1348 -24 OFFCURVE",
"1370 -22 CURVE",
"1370 15 LINE",
"1317 15 OFFCURVE",
"1223 65 OFFCURVE",
"1147 136 CURVE SMOOTH",
"1021 255 OFFCURVE",
"847 483 OFFCURVE",
"780 629 CURVE",
"958 676 OFFCURVE",
"1072 789 OFFCURVE",
"1072 984 CURVE SMOOTH",
"1072 1235 OFFCURVE",
"907 1358 OFFCURVE",
"600 1358 CURVE SMOOTH",
"288 1358 LINE",
"265 1172 LINE",
"265 186 LINE",
"387 186 LINE",
"387 601 LINE",
"528 601 LINE SMOOTH",
"565 601 OFFCURVE",
"602 590 OFFCURVE",
"621 577 CURVE SMOOTH",
"640 564 OFFCURVE",
"672 515 OFFCURVE",
"727 428 CURVE SMOOTH",
"782 341 OFFCURVE",
"846 258 OFFCURVE",
"896 204 CURVE SMOOTH",
"952 144 OFFCURVE",
"1148 -25 OFFCURVE",
"1303 -25 CURVE SMOOTH"
);
},
{
closed = 1;
nodes = (
"387 1304 LINE",
"523 1304 LINE SMOOTH",
"771 1304 OFFCURVE",
"939 1169 OFFCURVE",
"939 984 CURVE SMOOTH",
"939 757 OFFCURVE",
"790 650 OFFCURVE",
"532 650 CURVE SMOOTH",
"486 650 OFFCURVE",
"384 650 OFFCURVE",
"325 706 CURVE",
"387 625 LINE"
);
}
);
width = 1347;
}
);
leftMetricsKey = "=I";
note = R;
rightKerningGroup = R;
unicode = 0052;
},
{
glyphname = S;
lastChange = "2018-08-12 12:03:24 +0000";
layers = (
{
layerId = "6CE37295-6E30-426D-87AF-6FEE9061C297";
paths = (
{
closed = 1;
nodes = (
"809 -27 OFFCURVE",
"981 152 OFFCURVE",
"981 403 CURVE SMOOTH",
"981 623 OFFCURVE",
"840 767 OFFCURVE",
"559 834 CURVE SMOOTH",
"394 873 OFFCURVE",
"311 955 OFFCURVE",
"311 1075 CURVE SMOOTH",
"311 1200 OFFCURVE",
"390 1300 OFFCURVE",
"506 1300 CURVE SMOOTH",
"665 1300 OFFCURVE",
"750 1219 OFFCURVE",
"791 1063 CURVE",
"889 1063 LINE",
"882 1184 OFFCURVE",
"863 1275 OFFCURVE",
"838 1354 CURVE",
"827 1352 OFFCURVE",
"820 1352 OFFCURVE",
"812 1352 CURVE SMOOTH",
"757 1352 OFFCURVE",
"641 1384 OFFCURVE",
"524 1384 CURVE SMOOTH",
"297 1384 OFFCURVE",
"104 1243 OFFCURVE",
"104 1032 CURVE SMOOTH",
"104 800 OFFCURVE",
"237 651 OFFCURVE",
"502 584 CURVE SMOOTH",
"681 539 OFFCURVE",
"770 445 OFFCURVE",
"770 307 CURVE SMOOTH",
"770 180 OFFCURVE",
"687 68 OFFCURVE",
"571 68 CURVE SMOOTH",
"376 68 OFFCURVE",
"226 202 OFFCURVE",
"209 391 CURVE",
"111 391 LINE",
"111 284 OFFCURVE",
"129 180 OFFCURVE",
"164 72 CURVE",
"301 0 OFFCURVE",
"379 -27 OFFCURVE",
"555 -27 CURVE SMOOTH"
);
}
);
userData = {
assembly = "MPPEM[ ]\011/* MeasurePixelPerEm */
PUSHB[ ]\011/* 1 value pushed */
60 
LT[ ]\011/* LessThan */
IF[ ]\011/* If */
NPUSHB[ ]\011/* 34 values pushed */
0 1 5 2 5 1 2 128 0 4 4 68 77 0 5 5 3 97 0 3 3 74 77 0 2 2 0 97 0 0 0 75 0 78 
ELSE[ ]\011/* Else */
NPUSHB[ ]\011/* 35 values pushed */
0 4 3 5 3 4 5 128 0 1 5 2 5 1 2 128 0 3 0 5 1 3 5 105 0 2 2 0 97 0 0 0 75 0 78 
EIF[ ]\011/* EndIf */
NPUSHB[ ]\011/* 9 values pushed */
41 34 42 36 37 35 6 11 28 
CALL[ ]\011/* CallFunction */";
};
width = 1075;
},
{
layerId = "EBD25FEC-6C57-4903-A936-5FDFC9C63FB2";
paths = (
{
closed = 1;
nodes = (
"778 -27 OFFCURVE",
"924 137 OFFCURVE",
"924 390 CURVE SMOOTH",
"924 614 OFFCURVE",
"816 726 OFFCURVE",
"568 777 CURVE SMOOTH",
"371 817 OFFCURVE",
"257 940 OFFCURVE",
"257 1095 CURVE SMOOTH",
"257 1215 OFFCURVE",
"364 1326 OFFCURVE",
"497 1326 CURVE SMOOTH",
"674 1326 OFFCURVE",
"773 1224 OFFCURVE",
"801 1077 CURVE",
"860 1077 LINE",
"854 1182 OFFCURVE",
"841 1278 OFFCURVE",
"822 1345 CURVE",
"817 1343 OFFCURVE",
"810 1342 OFFCURVE",
"802 1342 CURVE SMOOTH",
"745 1342 OFFCURVE",
"630 1385 OFFCURVE",
"521 1385 CURVE SMOOTH",
"298 1385 OFFCURVE",
"149 1242 OFFCURVE",
"149 1050 CURVE SMOOTH",
"149 813 OFFCURVE",
"269 687 OFFCURVE",
"538 626 CURVE SMOOTH",
"714 586 OFFCURVE",
"818 461 OFFCURVE",
"818 304 CURVE SMOOTH",
"818 155 OFFCURVE",
"702 40 OFFCURVE",
"579 40 CURVE SMOOTH",
"350 40 OFFCURVE",
"200 202 OFFCURVE",
"188 374 CURVE",
"128 374 LINE",
"128 265 OFFCURVE",
"140 176 OFFCURVE",
"177 73 CURVE",
"329 -4 OFFCURVE",
"390 -27 OFFCURVE",
"550 -27 CURVE SMOOTH"
);
}
);
width = 1022;
}
);
leftKerningGroup = S;
note = S;
rightKerningGroup = S;
unicode = 0053;
},
{
glyphname = T;
lastChange = "2018-08-12 11:39:11 +0000";
layers = (
{
components = (
{
name = _part.uc_lowerdoubleserif.001;
transform = "{1, 0, 0, 1, 290, 0}";
}
);
layerId = "6CE37295-6E30-426D-87AF-6FEE9061C297";
paths = (
{
closed = 1;
nodes = (
"772 203 LINE",
"772 1266 LINE",
"934 1266 LINE SMOOTH",
"1035 1266 OFFCURVE",
"1165 1180 OFFCURVE",
"1165 1008 CURVE",
"1268 1008 LINE",
"1268 1317 LINE",
"1223 1358 LINE",
"67 1358 LINE",
"35 1317 LINE",
"35 1008 LINE",
"135 1008 LINE",
"135 1157 OFFCURVE",
"243 1266 OFFCURVE",
"358 1266 CURVE SMOOTH",
"529 1266 LINE",
"529 203 LINE"
);
}
);
userData = {
assembly = "NPUSHB[ ]\011/* 11 values pushed */
35 1 3 4 36 20 2 0 3 2 76 
MPPEM[ ]\011/* MeasurePixelPerEm */
PUSHB[ ]\011/* 1 value pushed */
51 
LT[ ]\011/* LessThan */
IF[ ]\011/* If */
NPUSHB[ ]\011/* 23 values pushed */
5 1 3 3 4 95 0 4 4 68 77 2 1 0 0 1 95 0 1 1 69 1 78 
ELSE[ ]\011/* Else */
MPPEM[ ]\011/* MeasurePixelPerEm */
PUSHB[ ]\011/* 1 value pushed */
60 
LT[ ]\011/* LessThan */
IF[ ]\011/* If */
NPUSHB[ ]\011/* 20 values pushed */
2 1 0 0 1 0 1 99 5 1 3 3 4 95 0 4 4 68 3 78 
ELSE[ ]\011/* Else */
NPUSHB[ ]\011/* 27 values pushed */
0 4 5 1 3 0 4 3 105 2 1 0 1 1 0 89 2 1 0 0 1 95 0 1 0 1 79 
EIF[ ]\011/* EndIf */
EIF[ ]\011/* EndIf */
NPUSHB[ ]\011/* 9 values pushed */
57 89 51 34 66 17 6 11 28 
CALL[ ]\011/* CallFunction */";
};
width = 1298;
},
{
components = (
{
name = _part.uc_lowerdoubleserif.001;
transform = "{1, 0, 0, 1, 294, 0}";
}
);
layerId = "EBD25FEC-6C57-4903-A936-5FDFC9C63FB2";
paths = (
{
closed = 1;
nodes = (
"706 186 LINE",
"706 1292 LINE",
"938 1292 LINE SMOOTH",
"1113 1292 OFFCURVE",
"1200 1200 OFFCURVE",
"1200 1016 CURVE",
"1265 1016 LINE",
"1265 1325 LINE",
"1228 1358 LINE",
"57 1358 LINE",
"35 1325 LINE",
"35 1016 LINE",
"100 1016 LINE",
"100 1200 OFFCURVE",
"188 1292 OFFCURVE",
"365 1292 CURVE SMOOTH",
"584 1292 LINE",
"584 186 LINE"
);
}
);
width = 1299;
}
);
leftKerningGroup = T;
note = T;
rightKerningGroup = T;
unicode = 0054;
},
{
glyphname = Thorn;
lastChange = "2018-08-15 00:26:48 +0000";
layers = (
{
background = {
paths = (
{
closed = 1;
nodes = (
"1135 887 OFFCURVE",
"1086 1052 OFFCURVE",
"989 1183 CURVE SMOOTH",
"931 1262 OFFCURVE",
"865 1329 OFFCURVE",
"788 1329 CURVE SMOOTH",
"732 1329 OFFCURVE",
"669 1302 OFFCURVE",
"602 1245 CURVE SMOOTH",
"523 1178 OFFCURVE",
"465 1133 OFFCURVE",
"393 1086 CURVE",
"430 1077 LINE",
"430 1220 LINE SMOOTH",
"430 1265 OFFCURVE",
"430 1309 OFFCURVE",
"436 1354 CURVE",
"435 1377 OFFCURVE",
"420 1389 OFFCURVE",
"393 1389 CURVE SMOOTH",
"379 1389 OFFCURVE",
"365 1385 OFFCURVE",
"352 1380 CURVE SMOOTH",
"253 1341 OFFCURVE",
"136 1321 OFFCURVE",
"19 1321 CURVE",
"19 1229 LINE",
"125 1228 OFFCURVE",
"186 1182 OFFCURVE",
"186 1092 CURVE SMOOTH",
"186 -209 LINE SMOOTH",
"187 -246 OFFCURVE",
"175 -279 OFFCURVE",
"152 -309 CURVE",
"137 -327 OFFCURVE",
"95 -366 OFFCURVE",
"40 -414 CURVE",
"131 -525 LINE",
"291 -418 LINE",
"385 -350 OFFCURVE",
"432 -292 OFFCURVE",
"432 -244 CURVE SMOOTH",
"432 19 LINE",
"377 -26 LINE",
"521 -10 OFFCURVE",
"637 29 OFFCURVE",
"709 67 CURVE SMOOTH",
"948 192 OFFCURVE",
"1135 456 OFFCURVE",
"1135 727 CURVE SMOOTH"
);
},
{
closed = 1;
nodes = (
"862 515 OFFCURVE",
"790 301 OFFCURVE",
"644 174 CURVE SMOOTH",
"600 135 OFFCURVE",
"523 75 OFFCURVE",
"379 75 CURVE",
"430 39 LINE",
"430 1043 LINE",
"379 976 LINE",
"475 1036 OFFCURVE",
"549 1091 OFFCURVE",
"632 1165 CURVE SMOOTH",
"652 1183 OFFCURVE",
"663 1192 OFFCURVE",
"680 1192 CURVE SMOOTH",
"781 1192 OFFCURVE",
"862 882 OFFCURVE",
"862 727 CURVE SMOOTH"
);
}
);
};
layerId = "6CE37295-6E30-426D-87AF-6FEE9061C297";
paths = (
{
closed = 1;
nodes = (
"1135 887 OFFCURVE",
"1086 1052 OFFCURVE",
"989 1183 CURVE SMOOTH",
"931 1262 OFFCURVE",
"865 1329 OFFCURVE",
"788 1329 CURVE SMOOTH",
"732 1329 OFFCURVE",
"669 1302 OFFCURVE",
"602 1245 CURVE SMOOTH",
"523 1178 OFFCURVE",
"465 1133 OFFCURVE",
"393 1086 CURVE",
"430 1077 LINE",
"430 1220 LINE SMOOTH",
"430 1265 OFFCURVE",
"430 1309 OFFCURVE",
"436 1354 CURVE",
"393 1389 LINE",
"279 1348 OFFCURVE",
"152 1321 OFFCURVE",
"19 1321 CURVE",
"19 1235 LINE",
"125 1234 OFFCURVE",
"186 1188 OFFCURVE",
"186 1098 CURVE SMOOTH",
"186 -319 LINE",
"205 -265 LINE",
"40 -414 LINE",
"131 -525 LINE",
"393 -350 LINE",
"432 -294 LINE",
"432 19 LINE",
"377 -26 LINE",
"521 -10 OFFCURVE",
"637 29 OFFCURVE",
"709 67 CURVE SMOOTH",
"948 192 OFFCURVE",
"1135 456 OFFCURVE",
"1135 727 CURVE SMOOTH"
);
},
{
closed = 1;
nodes = (
"862 515 OFFCURVE",
"790 301 OFFCURVE",
"644 174 CURVE SMOOTH",
"600 135 OFFCURVE",
"523 75 OFFCURVE",
"379 75 CURVE",
"430 39 LINE",
"430 1043 LINE",
"379 976 LINE",
"475 1036 OFFCURVE",
"549 1091 OFFCURVE",
"632 1165 CURVE SMOOTH",
"652 1183 OFFCURVE",
"663 1192 OFFCURVE",
"680 1192 CURVE SMOOTH",
"781 1192 OFFCURVE",
"862 882 OFFCURVE",
"862 727 CURVE SMOOTH"
);
}
);
userData = {
assembly = "MPPEM[ ]\011/* MeasurePixelPerEm */
PUSHB[ ]\011/* 1 value pushed */
27 
LT[ ]\011/* LessThan */
IF[ ]\011/* If */
NPUSHB[ ]\011/* 36 values pushed */
0 5 0 3 0 5 3 128 0 3 6 0 3 6 126 0 6 6 132 0 2 2 74 77 0 0 0 1 97 4 1 1 1 68 0 78 
ELSE[ ]\011/* Else */
MPPEM[ ]\011/* MeasurePixelPerEm */
PUSHB[ ]\011/* 1 value pushed */
60 
LT[ ]\011/* LessThan */
IF[ ]\011/* If */
NPUSHB[ ]\011/* 34 values pushed */
0 5 0 3 0 5 3 128 0 3 6 0 3 6 126 0 6 6 132 4 1 1 0 0 5 1 0 105 0 2 2 74 2 78 
ELSE[ ]\011/* Else */
NPUSHB[ ]\011/* 45 values pushed */
0 2 4 2 133 0 4 1 4 133 0 5 0 3 0 5 3 128 0 3 6 0 3 6 126 0 6 6 132 0 1 0 0 1 89 0 1 1 0 97 0 0 1 0 81 
EIF[ ]\011/* EndIf */
EIF[ ]\011/* EndIf */
NPUSHB[ ]\011/* 17 values pushed */
66 65 56 54 46 44 40 38 35 33 31 29 27 26 7 11 22 
CALL[ ]\011/* CallFunction */";
};
width = 1224;
},
{
layerId = "EBD25FEC-6C57-4903-A936-5FDFC9C63FB2";
paths = (
{
closed = 1;
nodes = (
"1006 910 OFFCURVE",
"976 1076 OFFCURVE",
"918 1164 CURVE SMOOTH",
"860 1251 OFFCURVE",
"798 1327 OFFCURVE",
"702 1327 CURVE SMOOTH",
"649 1327 OFFCURVE",
"598 1292 OFFCURVE",
"554 1253 CURVE SMOOTH",
"479 1187 OFFCURVE",
"408 1134 OFFCURVE",
"315 1074 CURVE",
"338 1057 LINE",
"338 1188 LINE SMOOTH",
"338 1253 OFFCURVE",
"338 1316 OFFCURVE",
"343 1352 CURVE",
"315 1385 LINE",
"211 1342 OFFCURVE",
"141 1317 OFFCURVE",
"30 1317 CURVE",
"30 1259 LINE",
"157 1259 OFFCURVE",
"216 1214 OFFCURVE",
"216 1124 CURVE SMOOTH",
"216 -333 LINE",
"240 -271 LINE",
"44 -433 LINE",
"113 -507 LINE",
"323 -343 LINE",
"338 -310 LINE",
"338 5 LINE",
"287 -27 LINE",
"466 -12 OFFCURVE",
"571 33 OFFCURVE",
"653 85 CURVE SMOOTH",
"880 229 OFFCURVE",
"1006 488 OFFCURVE",
"1006 741 CURVE SMOOTH"
);
},
{
closed = 1;
nodes = (
"859 478 OFFCURVE",
"799 313 OFFCURVE",
"632 160 CURVE SMOOTH",
"547 83 OFFCURVE",
"438 53 OFFCURVE",
"295 50 CURVE",
"338 30 LINE",
"338 1043 LINE",
"280 976 LINE",
"438 1074 OFFCURVE",
"511 1138 OFFCURVE",
"585 1204 CURVE SMOOTH",
"601 1218 OFFCURVE",
"620 1223 OFFCURVE",
"632 1223 CURVE SMOOTH",
"772 1223 OFFCURVE",
"859 952 OFFCURVE",
"859 741 CURVE SMOOTH"
);
}
);
width = 1093;
}
);
note = Thorn;
rightKerningGroup = Thorn;
unicode = 00DE;
},
{
glyphname = Thorn.nordic;
lastChange = "2018-08-08 00:30:12 +0000";
layers = (
{
background = {
paths = (
{
closed = 1;
nodes = (
"924 633 OFFCURVE",
"917 592 OFFCURVE",
"903 557 CURVE SMOOTH",
"858 442 OFFCURVE",
"755 385 OFFCURVE",
"592 385 CURVE SMOOTH",
"563 385 OFFCURVE",
"537 386 OFFCURVE",
"512 389 CURVE SMOOTH",
"491 392 OFFCURVE",
"481 404 OFFCURVE",
"481 426 CURVE SMOOTH",
"481 987 LINE",
"546 987 LINE SMOOTH",
"751 987 OFFCURVE",
"924 882 OFFCURVE",
"924 678 CURVE SMOOTH"
);
},
{
closed = 1;
nodes = (
"1180 798 OFFCURVE",
"1127 895 OFFCURVE",
"1022 969 CURVE SMOOTH",
"922 1037 OFFCURVE",
"801 1065 OFFCURVE",
"659 1065 CURVE SMOOTH",
"481 1065 LINE",
"481 1153 LINE",
"238 1153 LINE",
"238 203 LINE",
"481 203 LINE",
"481 279 LINE SMOOTH",
"481 300 OFFCURVE",
"493 310 OFFCURVE",
"516 309 CURVE SMOOTH",
"562 306 OFFCURVE",
"608 305 OFFCURVE",
"653 305 CURVE SMOOTH",
"797 305 OFFCURVE",
"915 332 OFFCURVE",
"1008 387 CURVE SMOOTH",
"1123 454 OFFCURVE",
"1180 551 OFFCURVE",
"1180 678 CURVE SMOOTH"
);
}
);
};
components = (
{
name = _part.uc_upperdoubleserif;
transform = "{1, 0, 0, 1, -1, 0}";
},
{
name = _part.uc_lowerdoubleserif.001;
transform = "{1, 0, 0, 1, -1, 0}";
}
);
layerId = "6CE37295-6E30-426D-87AF-6FEE9061C297";
paths = (
{
closed = 1;
nodes = (
"481 203 LINE",
"481 339 LINE",
"450 314 LINE",
"562 306 OFFCURVE",
"608 305 OFFCURVE",
"653 305 CURVE SMOOTH",
"938 305 OFFCURVE",
"1180 423 OFFCURVE",
"1180 678 CURVE SMOOTH",
"1180 931 OFFCURVE",
"943 1065 OFFCURVE",
"659 1065 CURVE SMOOTH",
"481 1065 LINE",
"481 1153 LINE",
"238 1153 LINE",
"238 203 LINE"
);
},
{
closed = 1;
nodes = (
"481 987 LINE",
"546 987 LINE SMOOTH",
"751 987 OFFCURVE",
"924 882 OFFCURVE",
"924 678 CURVE SMOOTH",
"924 485 OFFCURVE",
"800 385 OFFCURVE",
"592 385 CURVE SMOOTH",
"563 385 OFFCURVE",
"537 386 OFFCURVE",
"442 398 CURVE",
"481 366 LINE"
);
}
);
userData = {
assembly = "NPUSHB[ ]\011/* 9 values pushed */
50 1 4 74 30 8 2 7 73 
MPPEM[ ]\011/* MeasurePixelPerEm */
PUSHB[ ]\011/* 1 value pushed */
68 
LT[ ]\011/* LessThan */
IF[ ]\011/* If */
NPUSHB[ ]\011/* 36 values pushed */
0 2 0 1 0 2 1 109 0 0 0 9 6 0 9 107 8 1 6 0 7 6 7 101 5 1 3 3 4 95 0 4 4 33 3 78 
ELSE[ ]\011/* Else */
NPUSHB[ ]\011/* 43 values pushed */
0 4 5 1 3 2 4 3 109 0 2 0 1 0 2 1 109 0 0 0 9 6 0 9 107 8 1 6 7 7 6 93 8 1 6 6 7 97 0 7 6 7 81 
EIF[ ]\011/* EndIf */
NPUSHB[ ]\011/* 14 values pushed */
58 56 35 50 19 34 83 19 70 39 35 10 7 31 
CALL[ ]\011/* CallFunction */";
};
width = 1212;
},
{
components = (
{
name = _part.uc_upperdoubleserif;
transform = "{1, 0, 0, 1, -25, 0}";
},
{
name = _part.uc_lowerdoubleserif.001;
transform = "{1, 0, 0, 1, -25, 0}";
}
);
layerId = "EBD25FEC-6C57-4903-A936-5FDFC9C63FB2";
paths = (
{
closed = 1;
nodes = (
"387 186 LINE",
"387 369 LINE",
"372 348 LINE",
"456 338 OFFCURVE",
"514 336 OFFCURVE",
"594 336 CURVE SMOOTH",
"883 336 OFFCURVE",
"1052 464 OFFCURVE",
"1052 724 CURVE SMOOTH",
"1052 964 OFFCURVE",
"887 1098 OFFCURVE",
"600 1098 CURVE SMOOTH",
"387 1098 LINE",
"387 1172 LINE",
"265 1172 LINE",
"265 186 LINE"
);
},
{
closed = 1;
nodes = (
"387 1044 LINE",
"523 1044 LINE SMOOTH",
"749 1044 OFFCURVE",
"920 914 OFFCURVE",
"920 724 CURVE SMOOTH",
"920 507 OFFCURVE",
"797 390 OFFCURVE",
"532 390 CURVE SMOOTH",
"499 390 OFFCURVE",
"464 393 OFFCURVE",
"365 407 CURVE",
"387 394 LINE"
);
}
);
width = 1100;
}
);
note = Thorn.nordic;
},
{
glyphname = U;
lastChange = "2018-08-18 15:11:17 +0000";
layers = (
{
anchors = (
{
name = bottom;
position = "{756, 0}";
},
{
name = ogonek;
position = "{1360, 10}";
},
{
name = top;
position = "{836, 1358}";
}
);
components = (
{
name = _part.uc_upperdoubleserif;
transform = "{1, 0, 0, 1, -16, 0}";
}
);
layerId = "6CE37295-6E30-426D-87AF-6FEE9061C297";
paths = (
{
closed = 1;
nodes = (
"1004 -27 OFFCURVE",
"1176 41 OFFCURVE",
"1263 247 CURVE SMOOTH",
"1311 361 OFFCURVE",
"1323 544 OFFCURVE",
"1323 739 CURVE SMOOTH",
"1323 1153 LINE SMOOTH",
"1323 1231 OFFCURVE",
"1374 1272 OFFCURVE",
"1485 1272 CURVE",
"1485 1358 LINE",
"1012 1358 LINE",
"1012 1272 LINE",
"1125 1272 OFFCURVE",
"1178 1231 OFFCURVE",
"1178 1153 CURVE SMOOTH",
"1178 496 LINE SMOOTH",
"1178 225 OFFCURVE",
"1077 68 OFFCURVE",
"811 68 CURVE SMOOTH",
"544 68 OFFCURVE",
"466 218 OFFCURVE",
"466 532 CURVE SMOOTH",
"466 1153 LINE",
"223 1153 LINE",
"223 545 LINE SMOOTH",
"223 306 OFFCURVE",
"275 132 OFFCURVE",
"453 38 CURVE SMOOTH",
"536 -6 OFFCURVE",
"662 -27 OFFCURVE",
"772 -27 CURVE SMOOTH"
);
}
);
userData = {
assembly = "PUSHB[ ]\011/* 6 values pushed */
2 1 4 1 1 76 
MPPEM[ ]\011/* MeasurePixelPerEm */
PUSHB[ ]\011/* 1 value pushed */
60 
LT[ ]\011/* LessThan */
IF[ ]\011/* If */
NPUSHB[ ]\011/* 25 values pushed */
7 5 3 3 1 1 2 95 6 1 2 2 68 77 0 4 4 0 97 0 0 0 75 0 78 
ELSE[ ]\011/* Else */
NPUSHB[ ]\011/* 23 values pushed */
6 1 2 7 5 3 3 1 4 2 1 105 0 4 4 0 97 0 0 0 75 0 78 
EIF[ ]\011/* EndIf */
NPUSHB[ ]\011/* 11 values pushed */
34 82 21 38 34 82 23 37 8 11 30 
CALL[ ]\011/* CallFunction */";
};
width = 1511;
},
{
anchors = (
{
name = bottom;
position = "{731, 0}";
},
{
name = ogonek;
position = "{1315, 10}";
},
{
name = top;
position = "{791, 1358}";
}
);
components = (
{
name = _part.uc_upperdoubleserif;
transform = "{1, 0, 0, 1, -35, 0}";
}
);
layerId = "EBD25FEC-6C57-4903-A936-5FDFC9C63FB2";
paths = (
{
closed = 1;
nodes = (
"973 -27 OFFCURVE",
"1142 73 OFFCURVE",
"1217 254 CURVE SMOOTH",
"1252 339 OFFCURVE",
"1256 494 OFFCURVE",
"1256 729 CURVE SMOOTH",
"1256 1172 LINE SMOOTH",
"1256 1249 OFFCURVE",
"1310 1289 OFFCURVE",
"1446 1289 CURVE",
"1446 1358 LINE",
"977 1358 LINE",
"977 1289 LINE",
"1110 1289 OFFCURVE",
"1173 1249 OFFCURVE",
"1173 1172 CURVE SMOOTH",
"1173 487 LINE SMOOTH",
"1173 170 OFFCURVE",
"1020 38 OFFCURVE",
"763 38 CURVE SMOOTH",
"556 38 OFFCURVE",
"377 140 OFFCURVE",
"377 541 CURVE SMOOTH",
"377 1172 LINE",
"255 1172 LINE",
"255 539 LINE SMOOTH",
"255 286 OFFCURVE",
"302 129 OFFCURVE",
"438 46 CURVE SMOOTH",
"510 2 OFFCURVE",
"611 -27 OFFCURVE",
"738 -27 CURVE SMOOTH"
);
}
);
width = 1461;
}
);
leftKerningGroup = U;
note = U;
rightKerningGroup = U;
unicode = 0055;
},
{
glyphname = V;
lastChange = "2018-08-12 12:03:39 +0000";
layers = (
{
background = {
paths = (
{
closed = 1;
nodes = (
"1182 1186 LINE SMOOTH",
"1205 1242 OFFCURVE",
"1266 1270 OFFCURVE",
"1364 1270 CURVE SMOOTH",
"1373 1270 OFFCURVE",
"1378 1286 OFFCURVE",
"1378 1317 CURVE SMOOTH",
"1378 1348 OFFCURVE",
"1373 1364 OFFCURVE",
"1364 1364 CURVE",
"1333 1360 OFFCURVE",
"1262 1358 OFFCURVE",
"1151 1358 CURVE SMOOTH",
"1044 1359 OFFCURVE",
"975 1361 OFFCURVE",
"944 1364 CURVE",
"935 1364 OFFCURVE",
"930 1348 OFFCURVE",
"930 1317 CURVE SMOOTH",
"930 1286 OFFCURVE",
"935 1270 OFFCURVE",
"944 1270 CURVE SMOOTH",
"1007 1270 OFFCURVE",
"1039 1246 OFFCURVE",
"1042 1198 CURVE",
"1042 1185 OFFCURVE",
"1039 1168 OFFCURVE",
"1032 1147 CURVE",
"737 383 LINE",
"732 366 OFFCURVE",
"724 358 OFFCURVE",
"713 358 CURVE",
"700 359 OFFCURVE",
"691 366 OFFCURVE",
"686 379 CURVE SMOOTH",
"406 1153 LINE",
"397 1173 OFFCURVE",
"393 1191 OFFCURVE",
"393 1206 CURVE SMOOTH",
"393 1249 OFFCURVE",
"435 1270 OFFCURVE",
"518 1270 CURVE SMOOTH",
"526 1270 OFFCURVE",
"530 1286 OFFCURVE",
"530 1317 CURVE SMOOTH",
"530 1348 OFFCURVE",
"526 1358 OFFCURVE",
"518 1358 CURVE SMOOTH",
"31 1358 LINE SMOOTH",
"11 1358 OFFCURVE",
"12 1270 OFFCURVE",
"31 1270 CURVE SMOOTH",
"98 1270 OFFCURVE",
"145 1231 OFFCURVE",
"172 1153 CURVE SMOOTH",
"596 6 LINE SMOOTH",
"607 -24 OFFCURVE",
"624 -39 OFFCURVE",
"647 -39 CURVE SMOOTH",
"668 -39 OFFCURVE",
"685 -24 OFFCURVE",
"698 6 CURVE SMOOTH"
);
}
);
};
layerId = "6CE37295-6E30-426D-87AF-6FEE9061C297";
paths = (
{
closed = 1;
nodes = (
"679 -39 LINE",
"1182 1186 LINE SMOOTH",
"1205 1242 OFFCURVE",
"1266 1270 OFFCURVE",
"1374 1270 CURVE",
"1374 1358 LINE",
"934 1358 LINE",
"934 1270 LINE",
"1007 1270 OFFCURVE",
"1041 1246 OFFCURVE",
"1042 1198 CURVE SMOOTH",
"1042 1185 OFFCURVE",
"1040 1168 OFFCURVE",
"1032 1147 CURVE SMOOTH",
"724 348 LINE",
"697 348 LINE",
"406 1153 LINE SMOOTH",
"398 1174 OFFCURVE",
"393 1191 OFFCURVE",
"393 1206 CURVE SMOOTH",
"393 1249 OFFCURVE",
"435 1270 OFFCURVE",
"528 1270 CURVE",
"528 1358 LINE",
"21 1358 LINE",
"21 1270 LINE",
"98 1270 OFFCURVE",
"144 1230 OFFCURVE",
"172 1153 CURVE SMOOTH",
"613 -39 LINE"
);
}
);
userData = {
assembly = "PUSHB[ ]\011/* 5 values pushed */
38 14 2 2 74 
MPPEM[ ]\011/* MeasurePixelPerEm */
PUSHB[ ]\011/* 1 value pushed */
60 
LT[ ]\011/* LessThan */
IF[ ]\011/* If */
NPUSHB[ ]\011/* 28 values pushed */
0 4 1 0 1 4 0 128 7 5 3 3 1 1 2 95 6 1 2 2 68 77 0 0 0 75 0 78 
ELSE[ ]\011/* Else */
MPPEM[ ]\011/* MeasurePixelPerEm */
PUSHB[ ]\011/* 1 value pushed */
84 
LT[ ]\011/* LessThan */
IF[ ]\011/* If */
NPUSHB[ ]\011/* 26 values pushed */
0 4 1 0 1 4 0 128 6 1 2 7 5 3 3 1 4 2 1 105 0 0 0 75 0 78 
ELSE[ ]\011/* Else */
NPUSHB[ ]\011/* 33 values pushed */
0 4 1 0 1 4 0 128 0 0 0 132 6 1 2 1 1 2 87 6 1 2 2 1 97 7 5 3 3 1 2 1 81 
EIF[ ]\011/* EndIf */
EIF[ ]\011/* EndIf */
NPUSHB[ ]\011/* 11 values pushed */
35 66 22 21 35 66 19 33 8 11 30 
CALL[ ]\011/* CallFunction */";
};
width = 1357;
},
{
background = {
paths = (
{
closed = 1;
nodes = (
"638 -38 LINE",
"1064 1201 LINE SMOOTH",
"1084 1258 OFFCURVE",
"1148 1287 OFFCURVE",
"1261 1287 CURVE",
"1261 1358 LINE",
"873 1358 LINE",
"873 1287 LINE",
"951 1287 OFFCURVE",
"985 1261 OFFCURVE",
"985 1209 CURVE SMOOTH",
"985 1200 OFFCURVE",
"983 1186 OFFCURVE",
"975 1163 CURVE SMOOTH",
"677 269 LINE",
"628 269 LINE",
"316 1172 LINE SMOOTH",
"310 1188 OFFCURVE",
"309 1202 OFFCURVE",
"309 1213 CURVE SMOOTH",
"309 1262 OFFCURVE",
"357 1287 OFFCURVE",
"462 1287 CURVE",
"462 1358 LINE",
"24 1358 LINE",
"24 1287 LINE",
"105 1287 OFFCURVE",
"154 1249 OFFCURVE",
"181 1172 CURVE SMOOTH",
"605 -38 LINE"
);
}
);
};
layerId = "EBD25FEC-6C57-4903-A936-5FDFC9C63FB2";
paths = (
{
closed = 1;
nodes = (
"638 -38 LINE",
"1068 1214 LINE SMOOTH",
"1088 1271 OFFCURVE",
"1152 1300 OFFCURVE",
"1265 1300 CURVE",
"1265 1358 LINE",
"877 1358 LINE",
"877 1300 LINE",
"955 1300 OFFCURVE",
"989 1274 OFFCURVE",
"989 1222 CURVE SMOOTH",
"989 1213 OFFCURVE",
"987 1199 OFFCURVE",
"979 1176 CURVE SMOOTH",
"662 223 LINE",
"644 223 LINE",
"312 1185 LINE SMOOTH",
"307 1201 OFFCURVE",
"305 1215 OFFCURVE",
"305 1226 CURVE SMOOTH",
"305 1275 OFFCURVE",
"353 1300 OFFCURVE",
"458 1300 CURVE",
"462 1358 LINE",
"24 1358 LINE",
"20 1300 LINE",
"101 1300 OFFCURVE",
"150 1262 OFFCURVE",
"177 1185 CURVE SMOOTH",
"605 -38 LINE"
);
}
);
width = 1265;
}
);
leftKerningGroup = V;
note = V;
rightKerningGroup = V;
unicode = 0056;
},
{
glyphname = W;
lastChange = "2018-08-12 11:56:44 +0000";
layers = (
{
background = {
paths = (
{
closed = 1;
nodes = (
"1886 1243 OFFCURVE",
"1947 1271 OFFCURVE",
"2042 1270 CURVE SMOOTH",
"2051 1270 OFFCURVE",
"2056 1286 OFFCURVE",
"2056 1317 CURVE SMOOTH",
"2056 1348 OFFCURVE",
"2051 1364 OFFCURVE",
"2042 1364 CURVE",
"2010 1360 OFFCURVE",
"1947 1358 OFFCURVE",
"1853 1358 CURVE SMOOTH",
"1758 1359 OFFCURVE",
"1695 1361 OFFCURVE",
"1665 1364 CURVE",
"1656 1364 OFFCURVE",
"1651 1348 OFFCURVE",
"1651 1317 CURVE SMOOTH",
"1651 1286 OFFCURVE",
"1656 1270 OFFCURVE",
"1665 1270 CURVE SMOOTH",
"1709 1270 OFFCURVE",
"1731 1254 OFFCURVE",
"1731 1221 CURVE SMOOTH",
"1730 1202 OFFCURVE",
"1723 1177 OFFCURVE",
"1710 1147 CURVE SMOOTH",
"1358 375 LINE",
"1353 364 OFFCURVE",
"1347 358 OFFCURVE",
"1339 358 CURVE",
"1330 359 OFFCURVE",
"1322 365 OFFCURVE",
"1317 377 CURVE SMOOTH",
"1135 774 LINE",
"1132 783 OFFCURVE",
"1130 791 OFFCURVE",
"1130 799 CURVE",
"1131 808 OFFCURVE",
"1134 821 OFFCURVE",
"1141 838 CURVE",
"1298 1186 LINE SMOOTH",
"1325 1242 OFFCURVE",
"1386 1270 OFFCURVE",
"1483 1270 CURVE SMOOTH",
"1492 1270 OFFCURVE",
"1497 1286 OFFCURVE",
"1497 1317 CURVE SMOOTH",
"1497 1348 OFFCURVE",
"1492 1364 OFFCURVE",
"1483 1364 CURVE",
"1450 1360 OFFCURVE",
"1388 1358 OFFCURVE",
"1298 1358 CURVE SMOOTH",
"1213 1359 OFFCURVE",
"1155 1361 OFFCURVE",
"1122 1364 CURVE",
"1106 1364 OFFCURVE",
"1103 1270 OFFCURVE",
"1122 1270 CURVE SMOOTH",
"1158 1270 OFFCURVE",
"1176 1257 OFFCURVE",
"1176 1231 CURVE",
"1177 1212 OFFCURVE",
"1169 1184 OFFCURVE",
"1151 1147 CURVE SMOOTH",
"1081 997 LINE SMOOTH",
"1073 981 OFFCURVE",
"1065 973 OFFCURVE",
"1057 973 CURVE SMOOTH",
"1050 973 OFFCURVE",
"1043 979 OFFCURVE",
"1038 991 CURVE SMOOTH",
"965 1153 LINE SMOOTH",
"951 1182 OFFCURVE",
"944 1207 OFFCURVE",
"944 1229 CURVE SMOOTH",
"944 1256 OFFCURVE",
"967 1270 OFFCURVE",
"1014 1270 CURVE SMOOTH",
"1023 1270 OFFCURVE",
"1028 1286 OFFCURVE",
"1028 1317 CURVE SMOOTH",
"1028 1348 OFFCURVE",
"1023 1364 OFFCURVE",
"1014 1364 CURVE",
"983 1360 OFFCURVE",
"915 1358 OFFCURVE",
"811 1358 CURVE SMOOTH",
"703 1359 OFFCURVE",
"633 1361 OFFCURVE",
"602 1364 CURVE",
"593 1364 OFFCURVE",
"588 1348 OFFCURVE",
"588 1317 CURVE SMOOTH",
"588 1286 OFFCURVE",
"593 1270 OFFCURVE",
"602 1270 CURVE SMOOTH",
"637 1269 OFFCURVE",
"665 1249 OFFCURVE",
"684 1208 CURVE SMOOTH",
"920 686 LINE",
"924 675 OFFCURVE",
"926 667 OFFCURVE",
"926 662 CURVE SMOOTH",
"926 656 OFFCURVE",
"924 648 OFFCURVE",
"920 639 CURVE SMOOTH",
"799 375 LINE SMOOTH",
"793 362 OFFCURVE",
"786 356 OFFCURVE",
"778 356 CURVE",
"769 358 OFFCURVE",
"761 364 OFFCURVE",
"756 375 CURVE",
"406 1153 LINE",
"395 1174 OFFCURVE",
"388 1198 OFFCURVE",
"385 1225 CURVE",
"386 1255 OFFCURVE",
"410 1270 OFFCURVE",
"457 1270 CURVE SMOOTH",
"466 1270 OFFCURVE",
"471 1286 OFFCURVE",
"471 1317 CURVE SMOOTH",
"471 1348 OFFCURVE",
"466 1364 OFFCURVE",
"457 1364 CURVE",
"424 1360 OFFCURVE",
"345 1358 OFFCURVE",
"221 1358 CURVE SMOOTH",
"109 1359 OFFCURVE",
"37 1361 OFFCURVE",
"6 1364 CURVE",
"-3 1364 OFFCURVE",
"-8 1348 OFFCURVE",
"-8 1317 CURVE SMOOTH",
"-8 1286 OFFCURVE",
"-3 1270 OFFCURVE",
"6 1270 CURVE SMOOTH",
"68 1270 OFFCURVE",
"116 1231 OFFCURVE",
"150 1153 CURVE SMOOTH",
"655 25 LINE SMOOTH",
"674 -18 OFFCURVE",
"694 -39 OFFCURVE",
"713 -39 CURVE SMOOTH",
"732 -39 OFFCURVE",
"749 -24 OFFCURVE",
"762 6 CURVE SMOOTH",
"979 479 LINE",
"984 493 OFFCURVE",
"990 500 OFFCURVE",
"995 500 CURVE",
"1000 499 OFFCURVE",
"1005 493 OFFCURVE",
"1010 481 CURVE SMOOTH",
"1214 25 LINE SMOOTH",
"1235 -18 OFFCURVE",
"1254 -39 OFFCURVE",
"1272 -39 CURVE SMOOTH",
"1291 -39 OFFCURVE",
"1308 -24 OFFCURVE",
"1323 6 CURVE",
"1860 1186 LINE SMOOTH"
);
}
);
};
layerId = "6CE37295-6E30-426D-87AF-6FEE9061C297";
paths = (
{
closed = 1;
nodes = (
"739 -39 LINE",
"1012 552 LINE",
"978 552 LINE",
"1243 -39 LINE",
"1302 -39 LINE",
"1860 1186 LINE SMOOTH",
"1886 1243 OFFCURVE",
"1947 1270 OFFCURVE",
"2052 1270 CURVE",
"2052 1358 LINE",
"1655 1358 LINE",
"1655 1270 LINE",
"1709 1270 OFFCURVE",
"1731 1254 OFFCURVE",
"1731 1221 CURVE SMOOTH",
"1731 1202 OFFCURVE",
"1724 1178 OFFCURVE",
"1710 1147 CURVE SMOOTH",
"1350 358 LINE",
"1326 358 LINE",
"1087 878 LINE",
"1087 719 LINE",
"1298 1186 LINE SMOOTH",
"1324 1243 OFFCURVE",
"1386 1270 OFFCURVE",
"1493 1270 CURVE",
"1493 1358 LINE",
"1112 1358 LINE",
"1112 1270 LINE",
"1158 1270 OFFCURVE",
"1176 1257 OFFCURVE",
"1176 1231 CURVE SMOOTH",
"1176 1212 OFFCURVE",
"1168 1184 OFFCURVE",
"1151 1147 CURVE SMOOTH",
"1036 902 LINE",
"1078 902 LINE",
"965 1153 LINE SMOOTH",
"952 1182 OFFCURVE",
"944 1207 OFFCURVE",
"944 1229 CURVE SMOOTH",
"944 1256 OFFCURVE",
"967 1270 OFFCURVE",
"1024 1270 CURVE",
"1024 1358 LINE",
"592 1358 LINE",
"592 1270 LINE",
"637 1269 OFFCURVE",
"665 1249 OFFCURVE",
"684 1208 CURVE SMOOTH",
"967 583 LINE",
"967 742 LINE",
"790 356 LINE",
"765 356 LINE",
"406 1153 LINE SMOOTH",
"396 1174 OFFCURVE",
"385 1198 OFFCURVE",
"385 1225 CURVE SMOOTH",
"385 1255 OFFCURVE",
"410 1270 OFFCURVE",
"467 1270 CURVE",
"467 1358 LINE",
"-4 1358 LINE",
"-4 1270 LINE",
"68 1270 OFFCURVE",
"116 1230 OFFCURVE",
"150 1153 CURVE SMOOTH",
"684 -39 LINE"
);
}
);
userData = {
assembly = "NPUSHB[ ]\011/* 13 values pushed */
29 1 8 2 1 76 101 74 50 24 4 3 74 
MPPEM[ ]\011/* MeasurePixelPerEm */
PUSHB[ ]\011/* 1 value pushed */
60 
LT[ ]\011/* LessThan */
IF[ ]\011/* If */
NPUSHB[ ]\011/* 42 values pushed */
0 8 2 12 2 8 12 128 0 12 0 2 12 0 126 15 13 11 9 7 5 4 7 2 2 3 95 14 10 6 3 3 3 68 77 1 1 0 0 75 0 78 
ELSE[ ]\011/* Else */
MPPEM[ ]\011/* MeasurePixelPerEm */
PUSHB[ ]\011/* 1 value pushed */
84 
LT[ ]\011/* LessThan */
IF[ ]\011/* If */
NPUSHB[ ]\011/* 40 values pushed */
0 8 2 12 2 8 12 128 0 12 0 2 12 0 126 14 10 6 3 3 15 13 11 9 7 5 4 7 2 8 3 2 105 1 1 0 0 75 0 78 
ELSE[ ]\011/* Else */
NPUSHB[ ]\011/* 49 values pushed */
0 8 2 12 2 8 12 128 0 12 0 2 12 0 126 1 1 0 0 132 14 10 6 3 3 2 2 3 87 14 10 6 3 3 3 2 97 15 13 11 9 7 5 4 7 2 3 2 81 
EIF[ ]\011/* EndIf */
EIF[ ]\011/* EndIf */
NPUSHB[ ]\011/* 26 values pushed */
105 103 100 96 94 93 88 86 78 76 73 69 67 66 37 35 66 30 35 66 19 24 34 16 11 31 
CALL[ ]\011/* CallFunction */";
};
width = 2011;
},
{
background = {
paths = (
{
closed = 1;
nodes = (
"734 -29 LINE",
"1021 636 LINE",
"979 599 LINE",
"1261 -29 LINE",
"1285 -29 LINE",
"1778 1201 LINE SMOOTH",
"1801 1258 OFFCURVE",
"1860 1287 OFFCURVE",
"1957 1287 CURVE",
"1957 1358 LINE",
"1589 1358 LINE",
"1589 1287 LINE",
"1665 1287 OFFCURVE",
"1698 1266 OFFCURVE",
"1698 1225 CURVE SMOOTH",
"1698 1208 OFFCURVE",
"1691 1188 OFFCURVE",
"1681 1163 CURVE SMOOTH",
"1309 236 LINE",
"1281 236 LINE",
"1041 767 LINE",
"1057 698 LINE",
"1284 1201 LINE SMOOTH",
"1310 1258 OFFCURVE",
"1362 1287 OFFCURVE",
"1471 1287 CURVE",
"1471 1358 LINE",
"1074 1358 LINE",
"1074 1287 LINE",
"1151 1287 OFFCURVE",
"1189 1267 OFFCURVE",
"1189 1226 CURVE SMOOTH",
"1189 1209 OFFCURVE",
"1183 1188 OFFCURVE",
"1172 1163 CURVE SMOOTH",
"1011 797 LINE",
"1031 791 LINE",
"860 1172 LINE SMOOTH",
"849 1196 OFFCURVE",
"845 1216 OFFCURVE",
"845 1232 CURVE SMOOTH",
"845 1269 OFFCURVE",
"905 1287 OFFCURVE",
"990 1287 CURVE",
"990 1358 LINE",
"552 1358 LINE",
"552 1287 LINE",
"619 1287 OFFCURVE",
"687 1250 OFFCURVE",
"722 1172 CURVE SMOOTH",
"972 615 LINE",
"978 721 LINE",
"765 236 LINE",
"736 236 LINE",
"315 1172 LINE SMOOTH",
"305 1195 OFFCURVE",
"300 1214 OFFCURVE",
"300 1230 CURVE SMOOTH",
"300 1268 OFFCURVE",
"338 1287 OFFCURVE",
"423 1287 CURVE",
"423 1358 LINE",
"20 1358 LINE",
"20 1287 LINE",
"94 1287 OFFCURVE",
"142 1249 OFFCURVE",
"177 1172 CURVE SMOOTH",
"716 -29 LINE"
);
}
);
};
guideLines = (
{
position = "{775, 236}";
}
);
layerId = "EBD25FEC-6C57-4903-A936-5FDFC9C63FB2";
paths = (
{
closed = 1;
nodes = (
"734 -29 LINE",
"1021 636 LINE",
"979 599 LINE",
"1261 -29 LINE",
"1285 -29 LINE",
"1783 1214 LINE SMOOTH",
"1806 1271 OFFCURVE",
"1860 1300 OFFCURVE",
"1957 1300 CURVE",
"1957 1358 LINE",
"1589 1358 LINE",
"1589 1300 LINE",
"1665 1300 OFFCURVE",
"1703 1279 OFFCURVE",
"1703 1238 CURVE SMOOTH",
"1703 1221 OFFCURVE",
"1696 1201 OFFCURVE",
"1686 1176 CURVE SMOOTH",
"1309 236 LINE",
"1281 236 LINE",
"1041 767 LINE",
"1057 698 LINE",
"1290 1214 LINE SMOOTH",
"1316 1271 OFFCURVE",
"1362 1300 OFFCURVE",
"1471 1300 CURVE",
"1471 1358 LINE",
"1074 1358 LINE",
"1074 1300 LINE",
"1151 1300 OFFCURVE",
"1195 1280 OFFCURVE",
"1195 1239 CURVE SMOOTH",
"1195 1222 OFFCURVE",
"1189 1201 OFFCURVE",
"1178 1176 CURVE SMOOTH",
"1011 797 LINE",
"1031 791 LINE",
"855 1185 LINE SMOOTH",
"844 1209 OFFCURVE",
"840 1229 OFFCURVE",
"840 1245 CURVE SMOOTH",
"840 1282 OFFCURVE",
"905 1300 OFFCURVE",
"990 1300 CURVE",
"990 1358 LINE",
"552 1358 LINE",
"552 1300 LINE",
"619 1300 OFFCURVE",
"682 1263 OFFCURVE",
"717 1185 CURVE SMOOTH",
"972 615 LINE",
"978 721 LINE",
"765 236 LINE",
"736 236 LINE",
"310 1185 LINE SMOOTH",
"300 1208 OFFCURVE",
"295 1227 OFFCURVE",
"295 1243 CURVE SMOOTH",
"295 1281 OFFCURVE",
"338 1300 OFFCURVE",
"423 1300 CURVE",
"423 1358 LINE",
"20 1358 LINE",
"20 1300 LINE",
"94 1300 OFFCURVE",
"137 1262 OFFCURVE",
"172 1185 CURVE SMOOTH",
"716 -29 LINE"
);
}
);
width = 1957;
}
);
leftKerningGroup = V;
note = W;
rightKerningGroup = V;
unicode = 0057;
},
{
glyphname = X;
lastChange = "2018-08-12 11:37:28 +0000";
layers = (
{
background = {
paths = (
{
closed = 1;
nodes = (
"805 713 LINE SMOOTH",
"797 725 OFFCURVE",
"793 736 OFFCURVE",
"793 745 CURVE",
"794 756 OFFCURVE",
"800 769 OFFCURVE",
"811 782 CURVE SMOOTH",
"1063 1092 LINE SMOOTH",
"1097 1134 OFFCURVE",
"1125 1165 OFFCURVE",
"1147 1186 CURVE SMOOTH",
"1208 1242 OFFCURVE",
"1278 1270 OFFCURVE",
"1356 1270 CURVE SMOOTH",
"1365 1270 OFFCURVE",
"1370 1286 OFFCURVE",
"1370 1317 CURVE SMOOTH",
"1370 1348 OFFCURVE",
"1365 1364 OFFCURVE",
"1356 1364 CURVE",
"1323 1360 OFFCURVE",
"1250 1358 OFFCURVE",
"1135 1358 CURVE SMOOTH",
"1018 1359 OFFCURVE",
"944 1361 OFFCURVE",
"913 1364 CURVE",
"904 1364 OFFCURVE",
"899 1348 OFFCURVE",
"899 1317 CURVE SMOOTH",
"899 1286 OFFCURVE",
"904 1270 OFFCURVE",
"913 1270 CURVE SMOOTH",
"968 1270 OFFCURVE",
"995 1252 OFFCURVE",
"995 1217 CURVE",
"996 1199 OFFCURVE",
"984 1176 OFFCURVE",
"961 1147 CURVE SMOOTH",
"745 879 LINE",
"738 869 OFFCURVE",
"731 864 OFFCURVE",
"723 864 CURVE",
"716 865 OFFCURVE",
"709 870 OFFCURVE",
"702 879 CURVE SMOOTH",
"506 1153 LINE SMOOTH",
"487 1178 OFFCURVE",
"477 1199 OFFCURVE",
"477 1214 CURVE SMOOTH",
"477 1251 OFFCURVE",
"519 1270 OFFCURVE",
"602 1270 CURVE SMOOTH",
"611 1270 OFFCURVE",
"616 1286 OFFCURVE",
"616 1317 CURVE SMOOTH",
"616 1348 OFFCURVE",
"611 1364 OFFCURVE",
"602 1364 CURVE",
"569 1360 OFFCURVE",
"472 1358 OFFCURVE",
"311 1358 CURVE SMOOTH",
"148 1359 OFFCURVE",
"51 1361 OFFCURVE",
"20 1364 CURVE",
"11 1364 OFFCURVE",
"6 1348 OFFCURVE",
"6 1317 CURVE SMOOTH",
"6 1286 OFFCURVE",
"11 1270 OFFCURVE",
"20 1270 CURVE SMOOTH",
"104 1270 OFFCURVE",
"164 1245 OFFCURVE",
"199 1194 CURVE SMOOTH",
"555 694 LINE SMOOTH",
"563 683 OFFCURVE",
"567 673 OFFCURVE",
"567 664 CURVE SMOOTH",
"567 653 OFFCURVE",
"563 642 OFFCURVE",
"555 631 CURVE SMOOTH",
"188 172 LINE SMOOTH",
"142 115 OFFCURVE",
"68 86 OFFCURVE",
"-33 86 CURVE SMOOTH",
"-41 86 OFFCURVE",
"-45 71 OFFCURVE",
"-45 40 CURVE SMOOTH",
"-45 9 OFFCURVE",
"-41 -6 OFFCURVE",
"-33 -6 CURVE",
"-4 -2 OFFCURVE",
"87 0 OFFCURVE",
"238 0 CURVE SMOOTH",
"340 0 OFFCURVE",
"417 -2 OFFCURVE",
"469 -6 CURVE",
"485 -6 OFFCURVE",
"488 86 OFFCURVE",
"469 86 CURVE SMOOTH",
"401 86 OFFCURVE",
"368 109 OFFCURVE",
"369 156 CURVE SMOOTH",
"370 193 OFFCURVE",
"392 240 OFFCURVE",
"436 299 CURVE SMOOTH",
"606 526 LINE SMOOTH",
"615 537 OFFCURVE",
"624 543 OFFCURVE",
"633 543 CURVE",
"641 541 OFFCURVE",
"648 535 OFFCURVE",
"655 526 CURVE SMOOTH",
"897 209 LINE SMOOTH",
"922 178 OFFCURVE",
"934 152 OFFCURVE",
"934 133 CURVE SMOOTH",
"934 102 OFFCURVE",
"898 86 OFFCURVE",
"825 86 CURVE SMOOTH",
"816 86 OFFCURVE",
"811 71 OFFCURVE",
"811 40 CURVE SMOOTH",
"811 9 OFFCURVE",
"816 -6 OFFCURVE",
"825 -6 CURVE",
"890 -2 OFFCURVE",
"980 0 OFFCURVE",
"1096 0 CURVE SMOOTH",
"1224 0 OFFCURVE",
"1315 -2 OFFCURVE",
"1368 -6 CURVE",
"1389 -6 OFFCURVE",
"1387 86 OFFCURVE",
"1368 86 CURVE SMOOTH",
"1278 86 OFFCURVE",
"1206 125 OFFCURVE",
"1151 203 CURVE SMOOTH"
);
}
);
};
layerId = "6CE37295-6E30-426D-87AF-6FEE9061C297";
paths = (
{
closed = 1;
nodes = (
"469 0 LINE",
"469 86 LINE",
"401 86 OFFCURVE",
"369 109 OFFCURVE",
"369 156 CURVE SMOOTH",
"369 193 OFFCURVE",
"392 240 OFFCURVE",
"436 299 CURVE SMOOTH",
"658 597 LINE",
"602 595 LINE",
"897 209 LINE SMOOTH",
"921 177 OFFCURVE",
"934 152 OFFCURVE",
"934 133 CURVE SMOOTH",
"934 102 OFFCURVE",
"898 86 OFFCURVE",
"825 86 CURVE",
"825 0 LINE",
"1368 0 LINE",
"1368 86 LINE",
"1278 86 OFFCURVE",
"1204 124 OFFCURVE",
"1151 203 CURVE SMOOTH",
"755 788 LINE",
"755 713 LINE",
"1063 1092 LINE SMOOTH",
"1153 1203 OFFCURVE",
"1226 1270 OFFCURVE",
"1356 1270 CURVE",
"1356 1358 LINE",
"913 1358 LINE",
"913 1270 LINE",
"968 1270 OFFCURVE",
"995 1252 OFFCURVE",
"995 1217 CURVE SMOOTH",
"995 1199 OFFCURVE",
"984 1176 OFFCURVE",
"961 1147 CURVE SMOOTH",
"697 819 LINE",
"745 819 LINE",
"506 1153 LINE SMOOTH",
"487 1179 OFFCURVE",
"477 1199 OFFCURVE",
"477 1214 CURVE SMOOTH",
"477 1251 OFFCURVE",
"519 1270 OFFCURVE",
"602 1270 CURVE",
"602 1358 LINE",
"20 1358 LINE",
"20 1270 LINE",
"104 1270 OFFCURVE",
"164 1244 OFFCURVE",
"199 1194 CURVE SMOOTH",
"601 629 LINE",
"624 717 LINE",
"188 172 LINE SMOOTH",
"143 115 OFFCURVE",
"68 86 OFFCURVE",
"-33 86 CURVE",
"-33 0 LINE"
);
}
);
userData = {
assembly = "NPUSHB[ ]\011/* 9 values pushed */
77 53 2 7 74 33 1 1 73 
MPPEM[ ]\011/* MeasurePixelPerEm */
PUSHB[ ]\011/* 1 value pushed */
51 
LT[ ]\011/* LessThan */
IF[ ]\011/* If */
NPUSHB[ ]\011/* 34 values pushed */
12 10 8 3 6 6 7 95 11 1 7 7 68 77 0 9 9 71 77 5 3 2 3 0 0 1 95 4 1 1 1 69 1 78 
ELSE[ ]\011/* Else */
MPPEM[ ]\011/* MeasurePixelPerEm */
PUSHB[ ]\011/* 1 value pushed */
60 
LT[ ]\011/* LessThan */
IF[ ]\011/* If */
NPUSHB[ ]\011/* 31 values pushed */
5 3 2 3 0 4 1 1 0 1 99 12 10 8 3 6 6 7 95 11 1 7 7 68 77 0 9 9 71 9 78 
ELSE[ ]\011/* Else */
NPUSHB[ ]\011/* 29 values pushed */
11 1 7 12 10 8 3 6 9 7 6 105 5 3 2 3 0 4 1 1 0 1 99 0 9 9 71 9 78 
EIF[ ]\011/* EndIf */
EIF[ ]\011/* EndIf */
NPUSHB[ ]\011/* 20 values pushed */
81 79 76 72 70 69 64 62 35 66 24 35 66 28 34 82 17 13 11 31 
CALL[ ]\011/* CallFunction */";
};
width = 1380;
},
{
background = {
paths = (
{
closed = 1;
nodes = (
"401 0 LINE",
"401 69 LINE",
"321 69 OFFCURVE",
"281 86 OFFCURVE",
"281 120 CURVE SMOOTH",
"281 154 OFFCURVE",
"313 215 OFFCURVE",
"376 302 CURVE SMOOTH",
"632 656 LINE",
"606 648 LINE",
"913 191 LINE SMOOTH",
"933 161 OFFCURVE",
"942 139 OFFCURVE",
"942 122 CURVE SMOOTH",
"942 87 OFFCURVE",
"904 69 OFFCURVE",
"828 69 CURVE",
"828 0 LINE",
"1297 0 LINE",
"1297 69 LINE",
"1188 69 OFFCURVE",
"1108 107 OFFCURVE",
"1057 186 CURVE SMOOTH",
"678 771 LINE",
"681 714 LINE",
"970 1092 LINE SMOOTH",
"1086 1244 OFFCURVE",
"1126 1287 OFFCURVE",
"1282 1287 CURVE",
"1282 1358 LINE",
"893 1358 LINE",
"893 1287 LINE",
"951 1287 OFFCURVE",
"980 1272 OFFCURVE",
"980 1241 CURVE SMOOTH",
"980 1222 OFFCURVE",
"967 1196 OFFCURVE",
"942 1163 CURVE SMOOTH",
"649 776 LINE",
"672 778 LINE",
"419 1171 LINE SMOOTH",
"404 1195 OFFCURVE",
"397 1213 OFFCURVE",
"397 1230 CURVE SMOOTH",
"397 1268 OFFCURVE",
"443 1287 OFFCURVE",
"536 1287 CURVE",
"536 1358 LINE",
"23 1358 LINE",
"23 1287 LINE",
"134 1286 OFFCURVE",
"187 1268 OFFCURVE",
"247 1179 CURVE SMOOTH",
"600 658 LINE",
"610 720 LINE",
"184 155 LINE SMOOTH",
"141 98 OFFCURVE",
"65 69 OFFCURVE",
"-42 69 CURVE",
"-42 0 LINE"
);
}
);
};
layerId = "EBD25FEC-6C57-4903-A936-5FDFC9C63FB2";
paths = (
{
closed = 1;
nodes = (
"401 0 LINE",
"401 56 LINE",
"321 56 OFFCURVE",
"272 73 OFFCURVE",
"272 107 CURVE SMOOTH",
"272 141 OFFCURVE",
"304 202 OFFCURVE",
"367 289 CURVE SMOOTH",
"632 656 LINE",
"606 648 LINE",
"921 178 LINE SMOOTH",
"941 148 OFFCURVE",
"950 126 OFFCURVE",
"950 109 CURVE SMOOTH",
"950 74 OFFCURVE",
"904 56 OFFCURVE",
"828 56 CURVE",
"828 0 LINE",
"1297 0 LINE",
"1297 56 LINE",
"1188 56 OFFCURVE",
"1116 95 OFFCURVE",
"1065 173 CURVE SMOOTH",
"678 771 LINE",
"681 714 LINE",
"980 1105 LINE SMOOTH",
"1095 1256 OFFCURVE",
"1129 1300 OFFCURVE",
"1282 1300 CURVE",
"1282 1358 LINE",
"893 1358 LINE",
"893 1300 LINE",
"951 1300 OFFCURVE",
"990 1285 OFFCURVE",
"990 1254 CURVE SMOOTH",
"990 1235 OFFCURVE",
"977 1209 OFFCURVE",
"952 1176 CURVE SMOOTH",
"649 776 LINE",
"672 778 LINE",
"410 1184 LINE SMOOTH",
"395 1208 OFFCURVE",
"388 1226 OFFCURVE",
"388 1243 CURVE SMOOTH",
"388 1281 OFFCURVE",
"443 1300 OFFCURVE",
"536 1300 CURVE",
"536 1358 LINE",
"23 1358 LINE",
"23 1300 LINE",
"134 1299 OFFCURVE",
"178 1280 OFFCURVE",
"238 1192 CURVE SMOOTH",
"600 658 LINE",
"610 720 LINE",
"175 142 LINE SMOOTH",
"132 85 OFFCURVE",
"65 56 OFFCURVE",
"-42 56 CURVE",
"-42 0 LINE"
);
}
);
width = 1277;
}
);
leftKerningGroup = X;
note = X;
rightKerningGroup = X;
unicode = 0058;
},
{
glyphname = Y;
lastChange = "2018-08-18 15:15:50 +0000";
layers = (
{
anchors = (
{
name = bottom;
position = "{662, 0}";
},
{
name = top;
position = "{712, 1358}";
}
);
background = {
paths = (
{
closed = 1;
nodes = (
"758 500 LINE SMOOTH",
"758 553 OFFCURVE",
"761 589 OFFCURVE",
"766 608 CURVE SMOOTH",
"770 623 OFFCURVE",
"785 649 OFFCURVE",
"811 686 CURVE SMOOTH",
"1149 1167 LINE",
"1182 1202 LINE SMOOTH",
"1228 1247 OFFCURVE",
"1287 1270 OFFCURVE",
"1360 1270 CURVE",
"1360 1358 LINE",
"905 1358 LINE",
"905 1270 LINE",
"976 1269 OFFCURVE",
"1012 1248 OFFCURVE",
"1012 1206 CURVE SMOOTH",
"1012 1190 OFFCURVE",
"1002 1170 OFFCURVE",
"987 1147 CURVE SMOOTH",
"721 752 LINE",
"712 738 OFFCURVE",
"705 731 OFFCURVE",
"698 731 CURVE",
"691 733 OFFCURVE",
"685 739 OFFCURVE",
"678 750 CURVE SMOOTH",
"424 1153 LINE SMOOTH",
"410 1175 OFFCURVE",
"403 1196 OFFCURVE",
"403 1217 CURVE SMOOTH",
"403 1252 OFFCURVE",
"440 1270 OFFCURVE",
"514 1270 CURVE",
"514 1358 LINE",
"-12 1358 LINE",
"-12 1270 LINE",
"62 1266 OFFCURVE",
"105 1227 OFFCURVE",
"152 1153 CURVE SMOOTH",
"449 684 LINE SMOOTH",
"480 635 OFFCURVE",
"499 603 OFFCURVE",
"504 588 CURVE SMOOTH",
"511 571 OFFCURVE",
"514 539 OFFCURVE",
"514 494 CURVE SMOOTH",
"514 203 LINE SMOOTH",
"514 125 OFFCURVE",
"465 86 OFFCURVE",
"367 86 CURVE SMOOTH",
"347 86 OFFCURVE",
"348 -6 OFFCURVE",
"367 -6 CURVE",
"414 -2 OFFCURVE",
"505 0 OFFCURVE",
"639 0 CURVE SMOOTH",
"772 0 OFFCURVE",
"861 -2 OFFCURVE",
"905 -6 CURVE",
"925 -6 OFFCURVE",
"921 86 OFFCURVE",
"905 86 CURVE SMOOTH",
"807 86 OFFCURVE",
"758 125 OFFCURVE",
"758 203 CURVE SMOOTH"
);
}
);
};
components = (
{
name = _part.uc_lowerdoubleserif.001;
transform = "{1, 0, 0, 1, 276, 0}";
}
);
layerId = "6CE37295-6E30-426D-87AF-6FEE9061C297";
paths = (
{
closed = 1;
nodes = (
"758 203 LINE",
"758 700 LINE",
"705 535 LINE",
"1141 1155 LINE SMOOTH",
"1205 1246 OFFCURVE",
"1287 1270 OFFCURVE",
"1360 1270 CURVE",
"1360 1358 LINE",
"905 1358 LINE",
"905 1270 LINE",
"976 1269 OFFCURVE",
"1012 1248 OFFCURVE",
"1012 1206 CURVE SMOOTH",
"1012 1190 OFFCURVE",
"1002 1170 OFFCURVE",
"987 1147 CURVE SMOOTH",
"707 731 LINE",
"690 731 LINE",
"424 1153 LINE SMOOTH",
"410 1175 OFFCURVE",
"403 1196 OFFCURVE",
"403 1217 CURVE SMOOTH",
"403 1252 OFFCURVE",
"440 1270 OFFCURVE",
"514 1270 CURVE",
"514 1358 LINE",
"-11 1358 LINE",
"-11 1270 LINE",
"63 1266 OFFCURVE",
"106 1227 OFFCURVE",
"153 1153 CURVE SMOOTH",
"573 490 LINE",
"515 704 LINE",
"515 203 LINE"
);
}
);
userData = {
assembly = "NPUSHB[ ]\011/* 15 values pushed */
45 1 0 3 1 76 54 30 2 4 74 8 1 1 73 
MPPEM[ ]\011/* MeasurePixelPerEm */
PUSHB[ ]\011/* 1 value pushed */
44 
LT[ ]\011/* LessThan */
IF[ ]\011/* If */
NPUSHB[ ]\011/* 26 values pushed */
8 6 5 3 3 3 4 95 7 1 4 4 68 77 2 1 0 0 1 97 0 1 1 69 1 78 
ELSE[ ]\011/* Else */
MPPEM[ ]\011/* MeasurePixelPerEm */
PUSHB[ ]\011/* 1 value pushed */
60 
LT[ ]\011/* LessThan */
IF[ ]\011/* If */
NPUSHB[ ]\011/* 23 values pushed */
2 1 0 0 1 0 1 101 8 6 5 3 3 3 4 95 7 1 4 4 68 3 78 
ELSE[ ]\011/* Else */
NPUSHB[ ]\011/* 30 values pushed */
7 1 4 8 6 5 3 3 0 4 3 105 2 1 0 1 1 0 89 2 1 0 0 1 97 0 1 0 1 81 
EIF[ ]\011/* EndIf */
EIF[ ]\011/* EndIf */
NPUSHB[ ]\011/* 12 values pushed */
35 66 28 35 66 26 35 20 17 9 11 31 
CALL[ ]\011/* CallFunction */";
};
width = 1360;
},
{
anchors = (
{
name = bottom;
position = "{596, 0}";
},
{
name = top;
position = "{636, 1358}";
}
);
components = (
{
name = _part.uc_lowerdoubleserif.001;
transform = "{1, 0, 0, 1, 240, 0}";
}
);
guideLines = (
{
position = "{589, 579}";
}
);
layerId = "EBD25FEC-6C57-4903-A936-5FDFC9C63FB2";
paths = (
{
closed = 1;
nodes = (
"652 186 LINE",
"652 639 LINE",
"591 494 LINE",
"1034 1178 LINE SMOOTH",
"1082 1252 OFFCURVE",
"1152 1287 OFFCURVE",
"1245 1287 CURVE",
"1245 1358 LINE",
"858 1358 LINE",
"858 1287 LINE",
"932 1287 OFFCURVE",
"969 1269 OFFCURVE",
"969 1234 CURVE SMOOTH",
"969 1215 OFFCURVE",
"960 1191 OFFCURVE",
"942 1163 CURVE SMOOTH",
"620 662 LINE",
"608 662 LINE",
"305 1172 LINE SMOOTH",
"292 1195 OFFCURVE",
"284 1215 OFFCURVE",
"284 1230 CURVE SMOOTH",
"284 1268 OFFCURVE",
"324 1287 OFFCURVE",
"405 1287 CURVE",
"405 1358 LINE",
"-26 1358 LINE",
"-26 1287 LINE",
"53 1287 OFFCURVE",
"117 1248 OFFCURVE",
"162 1172 CURVE SMOOTH",
"566 489 LINE",
"530 637 LINE",
"530 186 LINE"
);
}
);
width = 1245;
}
);
leftKerningGroup = Y;
note = Y;
rightKerningGroup = Y;
unicode = 0059;
},
{
glyphname = Z;
lastChange = "2018-08-12 12:03:54 +0000";
layers = (
{
background = {
paths = (
{
closed = 1;
nodes = (
"1270 111 OFFCURVE",
"1285 215 OFFCURVE",
"1315 330 CURVE",
"1315 335 OFFCURVE",
"1313 340 OFFCURVE",
"1309 344 CURVE",
"1295 356 OFFCURVE",
"1276 362 OFFCURVE",
"1253 362 CURVE",
"1242 361 OFFCURVE",
"1236 358 OFFCURVE",
"1235 354 CURVE",
"1228 331 OFFCURVE",
"1211 297 OFFCURVE",
"1184 250 CURVE SMOOTH",
"1126 151 OFFCURVE",
"1079 101 OFFCURVE",
"1044 98 CURVE SMOOTH",
"925 90 OFFCURVE",
"728 86 OFFCURVE",
"453 86 CURVE SMOOTH",
"431 86 OFFCURVE",
"420 93 OFFCURVE",
"420 106 CURVE SMOOTH",
"420 112 OFFCURVE",
"422 118 OFFCURVE",
"426 125 CURVE",
"1260 1268 LINE SMOOTH",
"1276 1289 OFFCURVE",
"1284 1308 OFFCURVE",
"1284 1325 CURVE SMOOTH",
"1285 1347 OFFCURVE",
"1263 1358 OFFCURVE",
"1219 1358 CURVE SMOOTH",
"330 1358 LINE",
"320 1359 OFFCURVE",
"299 1362 OFFCURVE",
"268 1366 CURVE SMOOTH",
"230 1371 OFFCURVE",
"210 1374 OFFCURVE",
"209 1374 CURVE SMOOTH",
"182 1374 OFFCURVE",
"168 1358 OFFCURVE",
"168 1322 CURVE SMOOTH",
"168 1257 OFFCURVE",
"158 1144 OFFCURVE",
"137 987 CURVE",
"137 979 OFFCURVE",
"145 972 OFFCURVE",
"162 967 CURVE",
"173 964 OFFCURVE",
"184 963 OFFCURVE",
"195 963 CURVE",
"211 964 OFFCURVE",
"219 968 OFFCURVE",
"219 975 CURVE",
"222 991 OFFCURVE",
"233 1024 OFFCURVE",
"254 1075 CURVE SMOOTH",
"292 1169 OFFCURVE",
"324 1226 OFFCURVE",
"350 1247 CURVE",
"369 1265 OFFCURVE",
"393 1274 OFFCURVE",
"422 1274 CURVE SMOOTH",
"934 1274 LINE SMOOTH",
"961 1273 OFFCURVE",
"975 1268 OFFCURVE",
"975 1257 CURVE SMOOTH",
"975 1252 OFFCURVE",
"972 1245 OFFCURVE",
"965 1237 CURVE",
"92 96 LINE SMOOTH",
"81 83 OFFCURVE",
"76 67 OFFCURVE",
"76 49 CURVE SMOOTH",
"75 16 OFFCURVE",
"98 0 OFFCURVE",
"145 0 CURVE SMOOTH",
"594 0 LINE SMOOTH",
"895 0 OFFCURVE",
"1089 -7 OFFCURVE",
"1176 -20 CURVE SMOOTH",
"1211 -26 OFFCURVE",
"1236 -29 OFFCURVE",
"1253 -29 CURVE SMOOTH",
"1264 -29 OFFCURVE",
"1270 -13 OFFCURVE",
"1270 18 CURVE SMOOTH"
);
}
);
};
layerId = "6CE37295-6E30-426D-87AF-6FEE9061C297";
paths = (
{
closed = 1;
nodes = (
"1270 -7 LINE",
"1270 86 OFFCURVE",
"1285 215 OFFCURVE",
"1315 330 CURVE",
"1235 354 LINE",
"1214 285 OFFCURVE",
"1126 103 OFFCURVE",
"1044 98 CURVE SMOOTH",
"925 91 OFFCURVE",
"688 86 OFFCURVE",
"413 86 CURVE",
"413 107 LINE",
"1289 1307 LINE",
"1289 1358 LINE",
"330 1358 LINE",
"290 1358 OFFCURVE",
"226 1367 OFFCURVE",
"191 1374 CURVE",
"168 1352 LINE",
"168 1287 OFFCURVE",
"158 1144 OFFCURVE",
"137 987 CURVE",
"219 975 LINE",
"227 1020 OFFCURVE",
"276 1144 OFFCURVE",
"322 1215 CURVE SMOOTH",
"346 1252 OFFCURVE",
"375 1274 OFFCURVE",
"422 1274 CURVE SMOOTH",
"976 1274 LINE",
"976 1251 LINE",
"58 51 LINE",
"58 0 LINE",
"884 0 LINE SMOOTH",
"1019 0 OFFCURVE",
"1183 -11 OFFCURVE",
"1253 -29 CURVE"
);
}
);
userData = {
assembly = "PUSHB[ ]\011/* 7 values pushed */
60 46 2 5 6 1 76 
MPPEM[ ]\011/* MeasurePixelPerEm */
PUSHB[ ]\011/* 1 value pushed */
39 
LT[ ]\011/* LessThan */
IF[ ]\011/* If */
NPUSHB[ ]\011/* 32 values pushed */
0 2 2 3 97 4 1 3 3 68 77 0 5 5 1 95 0 1 1 69 77 0 6 6 0 97 0 0 0 75 0 78 
ELSE[ ]\011/* Else */
MPPEM[ ]\011/* MeasurePixelPerEm */
PUSHB[ ]\011/* 1 value pushed */
44 
LT[ ]\011/* LessThan */
IF[ ]\011/* If */
NPUSHB[ ]\011/* 36 values pushed */
0 3 3 68 77 0 2 2 4 95 0 4 4 68 77 0 5 5 1 95 0 1 1 69 77 0 6 6 0 97 0 0 0 75 0 78 
ELSE[ ]\011/* Else */
MPPEM[ ]\011/* MeasurePixelPerEm */
PUSHB[ ]\011/* 1 value pushed */
60 
LT[ ]\011/* LessThan */
IF[ ]\011/* If */
NPUSHB[ ]\011/* 34 values pushed */
0 5 0 1 0 5 1 103 0 3 3 68 77 0 2 2 4 95 0 4 4 68 77 0 6 6 0 97 0 0 0 75 0 78 
ELSE[ ]\011/* Else */
NPUSHB[ ]\011/* 32 values pushed */
0 3 4 3 133 0 4 0 2 6 4 2 103 0 5 0 1 0 5 1 103 0 6 6 0 97 0 0 0 75 0 78 
EIF[ ]\011/* EndIf */
EIF[ ]\011/* EndIf */
EIF[ ]\011/* EndIf */
NPUSHB[ ]\011/* 10 values pushed */
22 55 67 30 55 50 33 7 11 29 
CALL[ ]\011/* CallFunction */";
};
width = 1316;
},
{
layerId = "EBD25FEC-6C57-4903-A936-5FDFC9C63FB2";
paths = (
{
closed = 1;
nodes = (
"1184 -17 LINE",
"1184 56 OFFCURVE",
"1200 174 OFFCURVE",
"1232 331 CURVE",
"1187 342 LINE",
"1176 298 OFFCURVE",
"1084 84 OFFCURVE",
"977 77 CURVE SMOOTH",
"840 68 OFFCURVE",
"580 64 OFFCURVE",
"290 64 CURVE",
"290 86 LINE",
"1188 1337 LINE",
"1188 1358 LINE",
"354 1358 LINE",
"321 1358 OFFCURVE",
"253 1361 OFFCURVE",
"188 1367 CURVE",
"170 1349 LINE",
"170 1254 OFFCURVE",
"159 1131 OFFCURVE",
"137 989 CURVE",
"181 982 LINE",
"206 1071 OFFCURVE",
"232 1154 OFFCURVE",
"296 1235 CURVE SMOOTH",
"328 1275 OFFCURVE",
"361 1296 OFFCURVE",
"398 1296 CURVE SMOOTH",
"996 1296 LINE",
"996 1274 LINE",
"83 22 LINE",
"83 0 LINE",
"864 0 LINE SMOOTH",
"966 0 OFFCURVE",
"1102 -8 OFFCURVE",
"1169 -33 CURVE"
);
}
);
width = 1233;
}
);
leftKerningGroup = Z;
note = Z;
rightKerningGroup = Z;
unicode = 005A;
},
{
glyphname = a;
lastChange = "2018-08-19 21:40:28 +0000";
layers = (
{
anchors = (
{
name = bottom;
position = "{436, 0}";
},
{
name = ogonek;
position = "{767, 10}";
},
{
name = top;
position = "{436, 848}";
}
);
background = {
paths = (
{
closed = 1;
nodes = (
"361 -23 OFFCURVE",
"413 4 OFFCURVE",
"468 59 CURVE SMOOTH",
"496 87 LINE",
"516 57 LINE SMOOTH",
"552 3 OFFCURVE",
"632 -25 OFFCURVE",
"693 -25 CURVE SMOOTH",
"782 -25 OFFCURVE",
"849 14 OFFCURVE",
"887 96 CURVE",
"852 127 LINE",
"825 99 OFFCURVE",
"796 86 OFFCURVE",
"775 86 CURVE SMOOTH",
"730 86 OFFCURVE",
"707 122 OFFCURVE",
"707 199 CURVE SMOOTH",
"707 707 LINE SMOOTH",
"707 806 OFFCURVE",
"569 870 OFFCURVE",
"445 870 CURVE SMOOTH",
"350 870 OFFCURVE",
"262 846 OFFCURVE",
"181 795 CURVE SMOOTH",
"121 757 OFFCURVE",
"60 662 OFFCURVE",
"60 586 CURVE SMOOTH",
"60 534 OFFCURVE",
"90 508 OFFCURVE",
"150 508 CURVE SMOOTH",
"195 508 OFFCURVE",
"224 537 OFFCURVE",
"242 596 CURVE SMOOTH",
"249 619 OFFCURVE",
"245 702 OFFCURVE",
"257 723 CURVE SMOOTH",
"278 759 OFFCURVE",
"320 774 OFFCURVE",
"373 774 CURVE SMOOTH",
"443 774 OFFCURVE",
"478 750 OFFCURVE",
"478 702 CURVE SMOOTH",
"478 483 LINE",
"291 393 LINE SMOOTH",
"181 340 OFFCURVE",
"80 258 OFFCURVE",
"80 162 CURVE SMOOTH",
"80 43 OFFCURVE",
"153 -23 OFFCURVE",
"283 -23 CURVE SMOOTH"
);
},
{
closed = 0;
nodes = (
"478 193 LINE SMOOTH",
"478 124 OFFCURVE",
"435 88 OFFCURVE",
"371 88 CURVE SMOOTH",
"323 88 OFFCURVE",
"290 127 OFFCURVE",
"290 205 CURVE SMOOTH",
"290 278 OFFCURVE",
"344 337 OFFCURVE",
"425 384 CURVE SMOOTH",
"478 411 LINE",
"478 236 LINE"
);
}
);
};
layerId = "6CE37295-6E30-426D-87AF-6FEE9061C297";
paths = (
{
closed = 1;
nodes = (
"782 -25 OFFCURVE",
"849 14 OFFCURVE",
"887 96 CURVE",
"852 127 LINE",
"825 99 OFFCURVE",
"796 86 OFFCURVE",
"775 86 CURVE SMOOTH",
"730 86 OFFCURVE",
"707 122 OFFCURVE",
"707 199 CURVE SMOOTH",
"707 707 LINE SMOOTH",
"707 806 OFFCURVE",
"569 870 OFFCURVE",
"445 870 CURVE SMOOTH",
"350 870 OFFCURVE",
"262 846 OFFCURVE",
"181 795 CURVE SMOOTH",
"121 757 OFFCURVE",
"60 662 OFFCURVE",
"60 586 CURVE SMOOTH",
"60 534 OFFCURVE",
"90 508 OFFCURVE",
"150 508 CURVE SMOOTH",
"195 508 OFFCURVE",
"224 537 OFFCURVE",
"242 596 CURVE SMOOTH",
"249 619 OFFCURVE",
"245 702 OFFCURVE",
"257 723 CURVE SMOOTH",
"278 759 OFFCURVE",
"320 774 OFFCURVE",
"373 774 CURVE SMOOTH",
"443 774 OFFCURVE",
"478 750 OFFCURVE",
"478 702 CURVE SMOOTH",
"478 206 LINE SMOOTH",
"478 -9 OFFCURVE",
"632 -25 OFFCURVE",
"693 -25 CURVE SMOOTH"
);
},
{
closed = 1;
nodes = (
"361 -23 OFFCURVE",
"437 0 OFFCURVE",
"542 186 CURVE",
"514 216 LINE",
"478 131 OFFCURVE",
"435 88 OFFCURVE",
"371 88 CURVE SMOOTH",
"323 88 OFFCURVE",
"290 127 OFFCURVE",
"290 205 CURVE SMOOTH",
"290 278 OFFCURVE",
"342 342 OFFCURVE",
"425 384 CURVE SMOOTH",
"527 436 LINE",
"530 508 LINE",
"291 393 LINE SMOOTH",
"183 341 OFFCURVE",
"80 258 OFFCURVE",
"80 162 CURVE SMOOTH",
"80 43 OFFCURVE",
"153 -23 OFFCURVE",
"273 -23 CURVE SMOOTH"
);
}
);
userData = {
assembly = "MPPEM[ ]\011/* MeasurePixelPerEm */
PUSHB[ ]\011/* 1 value pushed */
147 
LT[ ]\011/* LessThan */
IF[ ]\011/* If */
NPUSHB[ ]\011/* 38 values pushed */
0 3 2 6 2 3 6 128 0 6 5 2 6 5 126 0 2 2 4 97 0 4 4 71 77 7 1 5 5 0 97 1 1 0 0 69 0 78 
ELSE[ ]\011/* Else */
NPUSHB[ ]\011/* 48 values pushed */
0 3 2 6 2 3 6 128 0 6 7 2 6 7 126 0 2 2 4 97 0 4 4 71 77 0 7 7 0 97 1 1 0 0 69 77 0 5 5 0 97 1 1 0 0 69 0 78 
EIF[ ]\011/* EndIf */
NPUSHB[ ]\011/* 11 values pushed */
36 39 37 38 38 42 38 33 8 11 30 
CALL[ ]\011/* CallFunction */";
};
width = 891;
},
{
anchors = (
{
name = bottom;
position = "{424, 0}";
},
{
name = ogonek;
position = "{738, 10}";
},
{
name = top;
position = "{394, 848}";
}
);
layerId = "EBD25FEC-6C57-4903-A936-5FDFC9C63FB2";
paths = (
{
closed = 1;
nodes = (
"723 -23 OFFCURVE",
"754 -2 OFFCURVE",
"810 97 CURVE",
"783 120 LINE",
"751 77 OFFCURVE",
"725 58 OFFCURVE",
"692 58 CURVE SMOOTH",
"647 58 OFFCURVE",
"631 122 OFFCURVE",
"631 199 CURVE SMOOTH",
"631 671 LINE SMOOTH",
"631 830 OFFCURVE",
"530 870 OFFCURVE",
"395 870 CURVE SMOOTH",
"326 870 OFFCURVE",
"262 835 OFFCURVE",
"219 808 CURVE SMOOTH",
"184 786 OFFCURVE",
"116 722 OFFCURVE",
"116 657 CURVE SMOOTH",
"116 620 OFFCURVE",
"132 601 OFFCURVE",
"169 601 CURVE SMOOTH",
"207 601 OFFCURVE",
"217 635 OFFCURVE",
"237 700 CURVE SMOOTH",
"245 725 OFFCURVE",
"260 747 OFFCURVE",
"279 765 CURVE SMOOTH",
"308 792 OFFCURVE",
"344 809 OFFCURVE",
"373 809 CURVE SMOOTH",
"460 809 OFFCURVE",
"514 766 OFFCURVE",
"514 677 CURVE SMOOTH",
"514 158 LINE SMOOTH",
"514 12 OFFCURVE",
"593 -23 OFFCURVE",
"657 -23 CURVE SMOOTH"
);
},
{
closed = 1;
nodes = (
"385 -23 OFFCURVE",
"495 44 OFFCURVE",
"568 250 CURVE",
"548 261 LINE",
"504 162 OFFCURVE",
"422 70 OFFCURVE",
"339 70 CURVE SMOOTH",
"274 70 OFFCURVE",
"207 111 OFFCURVE",
"207 208 CURVE SMOOTH",
"207 289 OFFCURVE",
"286 355 OFFCURVE",
"412 410 CURVE SMOOTH",
"548 469 LINE",
"536 520 LINE",
"282 407 LINE SMOOTH",
"139 343 OFFCURVE",
"82 253 OFFCURVE",
"82 162 CURVE SMOOTH",
"82 72 OFFCURVE",
"178 -23 OFFCURVE",
"281 -23 CURVE SMOOTH"
);
}
);
width = 816;
},
{
anchors = (
{
name = bottom;
position = "{402, 0}";
},
{
name = ogonek;
position = "{716, 10}";
},
{
name = top;
position = "{382, 848}";
}
);
associatedMasterId = "EBD25FEC-6C57-4903-A936-5FDFC9C63FB2";
layerId = "8909ECE1-A56F-42C2-BFD0-0899444D0DD4";
name = "Aug 19 18, 17:14";
paths = (
{
closed = 1;
nodes = (
"346 -23 OFFCURVE",
"402 26 OFFCURVE",
"489 113 CURVE SMOOTH",
"508 132 LINE",
"514 111 LINE SMOOTH",
"537 29 OFFCURVE",
"571 -23 OFFCURVE",
"635 -23 CURVE SMOOTH",
"701 -23 OFFCURVE",
"732 -2 OFFCURVE",
"788 97 CURVE",
"761 120 LINE",
"729 77 OFFCURVE",
"703 58 OFFCURVE",
"670 58 CURVE SMOOTH",
"625 58 OFFCURVE",
"609 122 OFFCURVE",
"609 199 CURVE SMOOTH",
"609 731 LINE SMOOTH",
"609 810 OFFCURVE",
"518 870 OFFCURVE",
"423 870 CURVE SMOOTH",
"344 870 OFFCURVE",
"260 848 OFFCURVE",
"177 790 CURVE SMOOTH",
"139 764 OFFCURVE",
"82 684 OFFCURVE",
"82 609 CURVE SMOOTH",
"82 572 OFFCURVE",
"98 553 OFFCURVE",
"135 553 CURVE SMOOTH",
"173 553 OFFCURVE",
"197 586 OFFCURVE",
"203 652 CURVE SMOOTH",
"208 709 OFFCURVE",
"213 730 OFFCURVE",
"223 745 CURVE SMOOTH",
"246 779 OFFCURVE",
"276 808 OFFCURVE",
"341 808 CURVE SMOOTH",
"448 808 OFFCURVE",
"492 766 OFFCURVE",
"492 707 CURVE SMOOTH",
"492 510 LINE",
"240 370 LINE SMOOTH",
"166 329 OFFCURVE",
"90 253 OFFCURVE",
"90 162 CURVE SMOOTH",
"90 72 OFFCURVE",
"155 -23 OFFCURVE",
"238 -23 CURVE SMOOTH"
);
},
{
closed = 1;
nodes = (
"250 70 OFFCURVE",
"215 131 OFFCURVE",
"215 188 CURVE SMOOTH",
"215 279 OFFCURVE",
"283 349 OFFCURVE",
"400 405 CURVE SMOOTH",
"492 449 LINE",
"492 219 LINE SMOOTH",
"492 140 OFFCURVE",
"398 70 OFFCURVE",
"345 70 CURVE SMOOTH"
);
}
);
width = 794;
}
);
leftKerningGroup = a;
note = a;
rightKerningGroup = a;
unicode = 0061;
},
{
glyphname = acute;
lastChange = "2018-07-27 13:36:36 +0000";
layers = (
{
layerId = "6CE37295-6E30-426D-87AF-6FEE9061C297";
paths = (
{
closed = 1;
nodes = (
"214 1009 LINE",
"438 1343 LINE",
"279 1432 LINE",
"128 1054 LINE"
);
}
);
userData = {
assembly = "PUSHB[ ]\011/* 2 values pushed */
6 100 
WCVTP[ ]\011/* WriteCVTInPixels */
NPUSHB[ ]\011/* 21 values pushed */
0 1 0 1 133 2 1 0 0 118 1 0 8 7 0 15 1 15 3 11 22 
CALL[ ]\011/* CallFunction */
PUSHB[ ]\011/* 2 values pushed */
6 0 
WCVTP[ ]\011/* WriteCVTInPixels */";
};
width = 567;
},
{
layerId = "EBD25FEC-6C57-4903-A936-5FDFC9C63FB2";
paths = (
{
closed = 1;
nodes = (
"193 1023 LINE",
"406 1357 LINE",
"310 1415 LINE",
"148 1047 LINE"
);
}
);
width = 600;
}
);
note = acute;
unicode = 00B4;
},
{
glyphname = ae;
lastChange = "2018-08-19 23:09:24 +0000";
layers = (
{
anchors = (
{
name = bottom;
position = "{630, 0}";
},
{
name = top;
position = "{630, 848}";
}
);
layerId = "6CE37295-6E30-426D-87AF-6FEE9061C297";
paths = (
{
closed = 1;
nodes = (
"959 -23 OFFCURVE",
"1083 40 OFFCURVE",
"1181 158 CURVE",
"1128 208 LINE",
"1093 175 OFFCURVE",
"996 133 OFFCURVE",
"935 133 CURVE SMOOTH",
"790 133 OFFCURVE",
"677 289 OFFCURVE",
"675 475 CURVE SMOOTH",
"675 477 OFFCURVE",
"675 479 OFFCURVE",
"675 481 CURVE",
"1193 699 LINE",
"1150 837 OFFCURVE",
"997 870 OFFCURVE",
"857 870 CURVE SMOOTH",
"789 870 OFFCURVE",
"718 856 OFFCURVE",
"644 780 CURVE",
"567 848 OFFCURVE",
"519 870 OFFCURVE",
"427 870 CURVE SMOOTH",
"352 870 OFFCURVE",
"264 850 OFFCURVE",
"177 788 CURVE SMOOTH",
"122 749 OFFCURVE",
"60 660 OFFCURVE",
"60 588 CURVE SMOOTH",
"60 535 OFFCURVE",
"89 508 OFFCURVE",
"148 508 CURVE SMOOTH",
"185 508 OFFCURVE",
"223 537 OFFCURVE",
"238 568 CURVE SMOOTH",
"255 603 OFFCURVE",
"259 674 OFFCURVE",
"261 727 CURVE",
"291 768 OFFCURVE",
"328 788 OFFCURVE",
"372 788 CURVE SMOOTH",
"437 788 OFFCURVE",
"470 752 OFFCURVE",
"470 678 CURVE SMOOTH",
"470 486 LINE",
"228 381 LINE SMOOTH",
"123 335 OFFCURVE",
"69 265 OFFCURVE",
"69 162 CURVE SMOOTH",
"69 49 OFFCURVE",
"165 -10 OFFCURVE",
"298 -10 CURVE SMOOTH",
"388 -10 OFFCURVE",
"453 15 OFFCURVE",
"545 127 CURVE",
"607 31 OFFCURVE",
"703 -23 OFFCURVE",
"816 -23 CURVE SMOOTH"
);
},
{
closed = 1;
nodes = (
"333 92 OFFCURVE",
"298 132 OFFCURVE",
"298 190 CURVE SMOOTH",
"298 267 OFFCURVE",
"348 341 OFFCURVE",
"466 399 CURVE",
"473 341 OFFCURVE",
"488 247 OFFCURVE",
"499 205 CURVE",
"490 159 OFFCURVE",
"427 92 OFFCURVE",
"382 92 CURVE SMOOTH"
);
},
{
closed = 1;
nodes = (
"699 660 OFFCURVE",
"790 788 OFFCURVE",
"867 788 CURVE SMOOTH",
"909 788 OFFCURVE",
"971 766 OFFCURVE",
"985 698 CURVE",
"686 578 LINE"
);
}
);
userData = {
assembly = "NPUSHB[ ]\011/* 11 values pushed */
81 79 2 3 5 100 1 7 9 2 76 
MPPEM[ ]\011/* MeasurePixelPerEm */
PUSHB[ ]\011/* 1 value pushed */
39 
LT[ ]\011/* LessThan */
IF[ ]\011/* If */
NPUSHB[ ]\011/* 54 values pushed */
0 5 2 3 2 5 3 128 0 3 9 2 3 9 126 0 9 7 2 9 7 126 0 10 7 0 7 10 0 128 8 1 2 2 4 97 6 1 4 4 71 77 0 7 7 0 97 1 1 0 0 69 0 78 
ELSE[ ]\011/* Else */
MPPEM[ ]\011/* MeasurePixelPerEm */
PUSHB[ ]\011/* 1 value pushed */
77 
LT[ ]\011/* LessThan */
IF[ ]\011/* If */
NPUSHB[ ]\011/* 58 values pushed */
0 5 2 3 2 5 3 128 0 3 9 2 3 9 126 0 9 7 2 9 7 126 0 10 7 1 7 10 1 128 8 1 2 2 4 97 6 1 4 4 71 77 0 1 1 69 77 0 7 7 0 97 0 0 0 69 0 78 
ELSE[ ]\011/* Else */
NPUSHB[ ]\011/* 60 values pushed */
0 5 2 3 2 5 3 128 0 3 9 2 3 9 126 0 9 7 2 9 7 126 0 10 7 1 7 10 1 128 0 1 0 7 1 0 126 8 1 2 2 4 97 6 1 4 4 71 77 0 7 7 0 97 0 0 0 69 0 78 
EIF[ ]\011/* EndIf */
EIF[ ]\011/* EndIf */
NPUSHB[ ]\011/* 16 values pushed */
97 95 89 87 42 43 34 18 38 39 42 42 33 11 11 31 
CALL[ ]\011/* CallFunction */";
};
width = 1237;
},
{
anchors = (
{
name = bottom;
position = "{579, 0}";
},
{
name = top;
position = "{579, 848}";
}
);
layerId = "EBD25FEC-6C57-4903-A936-5FDFC9C63FB2";
paths = (
{
closed = 1;
nodes = (
"919 -23 OFFCURVE",
"1025 32 OFFCURVE",
"1095 138 CURVE",
"1066 160 LINE",
"1007 108 OFFCURVE",
"932 74 OFFCURVE",
"848 74 CURVE SMOOTH",
"713 74 OFFCURVE",
"602 261 OFFCURVE",
"602 440 CURVE SMOOTH",
"602 456 OFFCURVE",
"604 475 OFFCURVE",
"606 490 CURVE",
"1095 695 LINE",
"1075 800 OFFCURVE",
"980 870 OFFCURVE",
"834 870 CURVE SMOOTH",
"738 870 OFFCURVE",
"669 837 OFFCURVE",
"586 760 CURVE",
"542 828 OFFCURVE",
"483 870 OFFCURVE",
"400 870 CURVE SMOOTH",
"333 870 OFFCURVE",
"265 849 OFFCURVE",
"203 804 CURVE SMOOTH",
"133 754 OFFCURVE",
"82 689 OFFCURVE",
"82 621 CURVE SMOOTH",
"82 589 OFFCURVE",
"100 573 OFFCURVE",
"137 573 CURVE SMOOTH",
"163 573 OFFCURVE",
"180 586 OFFCURVE",
"190 611 CURVE SMOOTH",
"202 641 OFFCURVE",
"210 684 OFFCURVE",
"217 742 CURVE",
"238 776 OFFCURVE",
"293 801 OFFCURVE",
"364 801 CURVE SMOOTH",
"454 801 OFFCURVE",
"499 745 OFFCURVE",
"499 649 CURVE SMOOTH",
"499 516 LINE",
"249 381 LINE SMOOTH",
"167 337 OFFCURVE",
"111 274 OFFCURVE",
"111 160 CURVE SMOOTH",
"111 47 OFFCURVE",
"180 -10 OFFCURVE",
"305 -10 CURVE SMOOTH",
"381 -10 OFFCURVE",
"442 39 OFFCURVE",
"537 153 CURVE",
"597 27 OFFCURVE",
"700 -23 OFFCURVE",
"794 -23 CURVE SMOOTH"
);
},
{
closed = 1;
nodes = (
"273 64 OFFCURVE",
"238 109 OFFCURVE",
"238 180 CURVE SMOOTH",
"238 279 OFFCURVE",
"321 362 OFFCURVE",
"490 437 CURVE",
"505 331 OFFCURVE",
"517 251 OFFCURVE",
"524 219 CURVE",
"524 183 OFFCURVE",
"415 64 OFFCURVE",
"350 64 CURVE SMOOTH"
);
},
{
closed = 1;
nodes = (
"646 699 OFFCURVE",
"724 817 OFFCURVE",
"829 817 CURVE SMOOTH",
"885 817 OFFCURVE",
"974 774 OFFCURVE",
"988 714 CURVE",
"616 566 LINE"
);
}
);
width = 1147;
}
);
leftKerningGroup = a;
leftMetricsKey = "=a";
note = ae;
rightKerningGroup = e;
unicode = 00E6;
},
{
glyphname = afii64937;
lastChange = "2018-08-07 10:29:00 +0000";
layers = (
{
background = {
paths = (
{
closed = 1;
nodes = (
"389 1413 OFFCURVE",
"305 1481 OFFCURVE",
"246 1481 QCURVE SMOOTH",
"184 1481 OFFCURVE",
"72 1372 OFFCURVE",
"72 1286 QCURVE SMOOTH",
"72 1169 OFFCURVE",
"238 964 OFFCURVE",
"342 915 QCURVE SMOOTH",
"350 911 OFFCURVE",
"356 911 QCURVE",
"367 912 OFFCURVE",
"375 924 QCURVE SMOOTH",
"385 940 OFFCURVE",
"375 952 QCURVE SMOOTH",
"254 1098 OFFCURVE",
"254 1188 QCURVE SMOOTH",
"254 1206 OFFCURVE",
"311 1225 OFFCURVE",
"389 1307 OFFCURVE",
"389 1360 QCURVE SMOOTH"
);
}
);
};
components = (
{
name = quotereversed;
}
);
layerId = "6CE37295-6E30-426D-87AF-6FEE9061C297";
userData = {
assembly = "PUSHB[ ]\011/* 2 values pushed */
6 100 
WCVTP[ ]\011/* WriteCVTInPixels */
NPUSHB[ ]\011/* 9 values pushed */
0 0 0 118 19 17 1 11 22 
CALL[ ]\011/* CallFunction */
PUSHB[ ]\011/* 2 values pushed */
6 0 
WCVTP[ ]\011/* WriteCVTInPixels */";
};
width = 428;
},
{
components = (
{
name = quotereversed;
transform = "{1, 0, 0, 1, 100, 0}";
}
);
layerId = "EBD25FEC-6C57-4903-A936-5FDFC9C63FB2";
width = 600;
}
);
note = afii64937;
unicode = 02BD;
},
{
glyphname = ampersand;
lastChange = "2018-08-08 00:19:01 +0000";
layers = (
{
layerId = "6CE37295-6E30-426D-87AF-6FEE9061C297";
paths = (
{
closed = 1;
nodes = (
"1469 -29 OFFCURVE",
"1615 33 OFFCURVE",
"1706 154 CURVE",
"1657 201 LINE",
"1613 157 OFFCURVE",
"1547 135 OFFCURVE",
"1460 135 CURVE SMOOTH",
"1339 135 OFFCURVE",
"1223 218 OFFCURVE",
"1112 383 CURVE",
"1281 625 LINE SMOOTH",
"1386 773 OFFCURVE",
"1437 819 OFFCURVE",
"1618 819 CURVE",
"1618 905 LINE",
"1084 905 LINE",
"1084 819 LINE",
"1177 819 OFFCURVE",
"1219 799 OFFCURVE",
"1219 760 CURVE SMOOTH",
"1219 735 OFFCURVE",
"1190 663 OFFCURVE",
"1109 555 CURVE SMOOTH",
"1051 477 LINE",
"942 633 OFFCURVE",
"821 757 OFFCURVE",
"690 850 CURVE",
"810 921 OFFCURVE",
"870 1003 OFFCURVE",
"870 1096 CURVE SMOOTH",
"870 1265 OFFCURVE",
"728 1372 OFFCURVE",
"557 1372 CURVE SMOOTH",
"382 1372 OFFCURVE",
"221 1242 OFFCURVE",
"221 1063 CURVE SMOOTH",
"221 962 OFFCURVE",
"276 872 OFFCURVE",
"385 793 CURVE",
"156 674 OFFCURVE",
"39 534 OFFCURVE",
"39 373 CURVE SMOOTH",
"39 130 OFFCURVE",
"234 -29 OFFCURVE",
"496 -29 CURVE SMOOTH",
"654 -29 OFFCURVE",
"808 49 OFFCURVE",
"958 199 CURVE",
"1066 47 OFFCURVE",
"1188 -29 OFFCURVE",
"1323 -29 CURVE SMOOTH"
);
},
{
closed = 1;
nodes = (
"387 90 OFFCURVE",
"258 224 OFFCURVE",
"258 414 CURVE SMOOTH",
"258 543 OFFCURVE",
"329 650 OFFCURVE",
"471 735 CURVE",
"628 629 OFFCURVE",
"772 477 OFFCURVE",
"903 279 CURVE",
"790 154 OFFCURVE",
"682 90 OFFCURVE",
"580 90 CURVE SMOOTH"
);
},
{
closed = 1;
nodes = (
"487 976 OFFCURVE",
"432 1043 OFFCURVE",
"432 1110 CURVE SMOOTH",
"432 1219 OFFCURVE",
"472 1274 OFFCURVE",
"551 1274 CURVE SMOOTH",
"634 1274 OFFCURVE",
"676 1217 OFFCURVE",
"676 1102 CURVE SMOOTH",
"676 1024 OFFCURVE",
"649 959 OFFCURVE",
"596 907 CURVE"
);
}
);
userData = {
assembly = "NPUSHB[ ]\011/* 19 values pushed */
43 1 4 7 66 30 2 3 4 70 52 32 18 10 5 6 3 3 76 
MPPEM[ ]\011/* MeasurePixelPerEm */
PUSHB[ ]\011/* 1 value pushed */
23 
LT[ ]\011/* LessThan */
IF[ ]\011/* If */
NPUSHB[ ]\011/* 44 values pushed */
0 7 7 2 97 0 2 2 74 77 5 1 3 3 4 95 0 4 4 71 77 0 6 6 0 97 1 1 0 0 75 77 0 8 8 0 97 1 1 0 0 75 0 78 
ELSE[ ]\011/* Else */
MPPEM[ ]\011/* MeasurePixelPerEm */
PUSHB[ ]\011/* 1 value pushed */
60 
LT[ ]\011/* LessThan */
IF[ ]\011/* If */
NPUSHB[ ]\011/* 42 values pushed */
0 4 5 1 3 6 4 3 105 0 7 7 2 97 0 2 2 74 77 0 6 6 0 97 1 1 0 0 75 77 0 8 8 0 97 1 1 0 0 75 0 78 
ELSE[ ]\011/* Else */
NPUSHB[ ]\011/* 40 values pushed */
0 2 0 7 4 2 7 105 0 4 5 1 3 6 4 3 105 0 6 6 0 97 1 1 0 0 75 77 0 8 8 0 97 1 1 0 0 75 0 78 
EIF[ ]\011/* EndIf */
EIF[ ]\011/* EndIf */
NPUSHB[ ]\011/* 12 values pushed */
44 38 38 35 66 26 42 34 39 9 11 31 
CALL[ ]\011/* CallFunction */";
};
width = 1701;
},
{
layerId = "EBD25FEC-6C57-4903-A936-5FDFC9C63FB2";
paths = (
{
closed = 1;
nodes = (
"1466 -29 OFFCURVE",
"1581 22 OFFCURVE",
"1650 125 CURVE",
"1620 154 LINE",
"1573 102 OFFCURVE",
"1509 76 OFFCURVE",
"1428 76 CURVE SMOOTH",
"1274 76 OFFCURVE",
"1201 143 OFFCURVE",
"1047 369 CURVE",
"1232 608 LINE SMOOTH",
"1374 792 OFFCURVE",
"1421 852 OFFCURVE",
"1581 852 CURVE",
"1581 890 LINE",
"1082 890 LINE",
"1082 852 LINE",
"1193 852 OFFCURVE",
"1244 834 OFFCURVE",
"1244 797 CURVE SMOOTH",
"1244 760 OFFCURVE",
"1195 678 OFFCURVE",
"1096 550 CURVE SMOOTH",
"1004 432 LINE",
"879 615 OFFCURVE",
"745 759 OFFCURVE",
"602 862 CURVE",
"770 959 OFFCURVE",
"816 998 OFFCURVE",
"816 1116 CURVE SMOOTH",
"816 1265 OFFCURVE",
"708 1372 OFFCURVE",
"539 1372 CURVE SMOOTH",
"378 1372 OFFCURVE",
"240 1244 OFFCURVE",
"240 1083 CURVE SMOOTH",
"240 990 OFFCURVE",
"297 902 OFFCURVE",
"412 819 CURVE",
"126 654 OFFCURVE",
"58 586 OFFCURVE",
"58 356 CURVE SMOOTH",
"58 141 OFFCURVE",
"222 -27 OFFCURVE",
"478 -27 CURVE SMOOTH",
"653 -27 OFFCURVE",
"813 66 OFFCURVE",
"957 252 CURVE",
"1084 65 OFFCURVE",
"1200 -29 OFFCURVE",
"1305 -29 CURVE SMOOTH"
);
},
{
closed = 1;
nodes = (
"349 98 OFFCURVE",
"203 218 OFFCURVE",
"203 422 CURVE SMOOTH",
"203 561 OFFCURVE",
"290 681 OFFCURVE",
"464 782 CURVE",
"639 655 OFFCURVE",
"789 500 OFFCURVE",
"914 315 CURVE",
"802 170 OFFCURVE",
"676 98 OFFCURVE",
"537 98 CURVE SMOOTH"
);
},
{
closed = 1;
nodes = (
"435 983 OFFCURVE",
"377 1062 OFFCURVE",
"377 1135 CURVE SMOOTH",
"377 1224 OFFCURVE",
"439 1311 OFFCURVE",
"531 1311 CURVE SMOOTH",
"618 1311 OFFCURVE",
"680 1243 OFFCURVE",
"680 1122 CURVE SMOOTH",
"680 1023 OFFCURVE",
"637 949 OFFCURVE",
"551 899 CURVE"
);
}
);
width = 1666;
}
);
note = ampersand;
unicode = 0026;
},
{
glyphname = asciicircum;
lastChange = "2018-08-08 00:19:27 +0000";
layers = (
{
layerId = "6CE37295-6E30-426D-87AF-6FEE9061C297";
paths = (
{
closed = 1;
nodes = (
"270 535 LINE",
"549 1112 LINE",
"825 535 LINE",
"1044 535 LINE",
"625 1372 LINE",
"471 1372 LINE",
"49 535 LINE"
);
}
);
userData = {
assembly = "PUSHB[ ]\011/* 2 values pushed */
6 100 
WCVTP[ ]\011/* WriteCVTInPixels */
NPUSHB[ ]\011/* 22 values pushed */
2 1 0 2 1 76 0 2 0 2 133 1 1 0 0 118 17 18 16 3 11 25 
CALL[ ]\011/* CallFunction */
PUSHB[ ]\011/* 2 values pushed */
6 0 
WCVTP[ ]\011/* WriteCVTInPixels */";
};
width = 1093;
},
{
layerId = "EBD25FEC-6C57-4903-A936-5FDFC9C63FB2";
paths = (
{
closed = 1;
nodes = (
"208 535 LINE",
"511 1217 LINE",
"812 535 LINE",
"937 535 LINE",
"552 1372 LINE",
"468 1372 LINE",
"78 535 LINE"
);
}
);
width = 1017;
}
);
note = asciicircum;
unicode = 005E;
},
{
glyphname = asciitilde;
lastChange = "2018-08-02 11:28:53 +0000";
layers = (
{
layerId = "6CE37295-6E30-426D-87AF-6FEE9061C297";
paths = (
{
closed = 1;
nodes = (
"577 346 OFFCURVE",
"604 376 OFFCURVE",
"735 518 CURVE",
"680 561 LINE",
"608 499 OFFCURVE",
"587 483 OFFCURVE",
"541 483 CURVE SMOOTH",
"462 483 OFFCURVE",
"347 573 OFFCURVE",
"260 573 CURVE SMOOTH",
"158 573 OFFCURVE",
"121 543 OFFCURVE",
"6 416 CURVE",
"59 369 LINE",
"117 416 OFFCURVE",
"152 438 OFFCURVE",
"188 438 CURVE SMOOTH",
"289 438 OFFCURVE",
"371 346 OFFCURVE",
"481 346 CURVE SMOOTH"
);
}
);
userData = {
assembly = "PUSHB[ ]\011/* 2 values pushed */
6 100 
WCVTP[ ]\011/* WriteCVTInPixels */
NPUSHB[ ]\011/* 43 values pushed */
36 34 2 3 2 18 16 2 0 1 2 76 0 3 1 0 3 89 0 2 0 1 0 2 1 105 0 3 3 0 97 0 0 3 0 81 35 45 21 34 4 11 26 
CALL[ ]\011/* CallFunction */
PUSHB[ ]\011/* 2 values pushed */
6 0 
WCVTP[ ]\011/* WriteCVTInPixels */";
};
width = 741;
},
{
layerId = "EBD25FEC-6C57-4903-A936-5FDFC9C63FB2";
paths = (
{
closed = 1;
nodes = (
"514 348 OFFCURVE",
"584 397 OFFCURVE",
"650 494 CURVE",
"636 506 LINE",
"601 463 OFFCURVE",
"551 432 OFFCURVE",
"507 432 CURVE SMOOTH",
"450 432 OFFCURVE",
"303 502 OFFCURVE",
"236 502 CURVE SMOOTH",
"163 502 OFFCURVE",
"93 453 OFFCURVE",
"27 356 CURVE",
"42 344 LINE",
"77 387 OFFCURVE",
"126 418 OFFCURVE",
"170 418 CURVE SMOOTH",
"227 418 OFFCURVE",
"374 348 OFFCURVE",
"441 348 CURVE SMOOTH"
);
}
);
width = 676;
}
);
note = asciitilde;
unicode = 007E;
},
{
glyphname = asterisk;
lastChange = "2018-08-08 00:20:00 +0000";
layers = (
{
layerId = "6CE37295-6E30-426D-87AF-6FEE9061C297";
paths = (
{
closed = 1;
nodes = (
"467 641 LINE",
"467 915 LINE",
"702 778 LINE",
"758 874 LINE",
"522 1012 LINE",
"758 1147 LINE",
"702 1243 LINE",
"467 1108 LINE",
"467 1380 LINE",
"356 1380 LINE",
"356 1108 LINE",
"121 1243 LINE",
"66 1147 LINE",
"301 1012 LINE",
"66 874 LINE",
"121 778 LINE",
"356 915 LINE",
"356 641 LINE"
);
}
);
userData = {
assembly = "NPUSHB[ ]\011/* 19 values pushed */
16 15 14 13 12 11 10 7 6 5 4 3 2 1 14 1 0 1 76 
MPPEM[ ]\011/* MeasurePixelPerEm */
PUSHB[ ]\011/* 1 value pushed */
46 
LT[ ]\011/* LessThan */
IF[ ]\011/* If */
NPUSHB[ ]\011/* 12 values pushed */
2 1 1 1 0 95 0 0 0 68 1 78 
ELSE[ ]\011/* Else */
NPUSHB[ ]\011/* 17 values pushed */
0 0 1 1 0 87 0 0 0 1 95 2 1 1 0 1 79 
EIF[ ]\011/* EndIf */
NPUSHB[ ]\011/* 10 values pushed */
0 0 0 17 0 17 24 3 11 23 
CALL[ ]\011/* CallFunction */";
};
width = 827;
},
{
layerId = "EBD25FEC-6C57-4903-A936-5FDFC9C63FB2";
paths = (
{
closed = 1;
nodes = (
"409 701 LINE",
"409 994 LINE",
"657 856 LINE",
"685 899 LINE",
"437 1040 LINE",
"685 1186 LINE",
"657 1229 LINE",
"409 1085 LINE",
"409 1386 LINE",
"358 1386 LINE",
"358 1088 LINE",
"109 1229 LINE",
"81 1186 LINE",
"333 1040 LINE",
"81 899 LINE",
"109 856 LINE",
"358 994 LINE",
"358 701 LINE"
);
}
);
width = 768;
}
);
note = asterisk;
unicode = 002A;
},
{
glyphname = at;
lastChange = "2018-08-08 00:20:14 +0000";
layers = (
{
layerId = "6CE37295-6E30-426D-87AF-6FEE9061C297";
paths = (
{
closed = 1;
nodes = (
"939 -33 OFFCURVE",
"1077 3 OFFCURVE",
"1194 76 CURVE",
"1167 127 LINE",
"1057 79 OFFCURVE",
"949 55 OFFCURVE",
"844 55 CURVE SMOOTH",
"495 55 OFFCURVE",
"254 267 OFFCURVE",
"254 604 CURVE SMOOTH",
"254 989 OFFCURVE",
"513 1298 OFFCURVE",
"883 1298 CURVE SMOOTH",
"1172 1298 OFFCURVE",
"1397 1116 OFFCURVE",
"1397 840 CURVE SMOOTH",
"1397 614 OFFCURVE",
"1233 430 OFFCURVE",
"1001 430 CURVE SMOOTH",
"986 430 OFFCURVE",
"979 444 OFFCURVE",
"979 471 CURVE SMOOTH",
"979 491 OFFCURVE",
"981 511 OFFCURVE",
"987 532 CURVE SMOOTH",
"1135 1034 LINE",
"1012 1034 LINE",
"991 983 LINE",
"970 1004 OFFCURVE",
"940 1014 OFFCURVE",
"899 1014 CURVE SMOOTH",
"688 1014 OFFCURVE",
"477 712 OFFCURVE",
"477 494 CURVE SMOOTH",
"477 403 OFFCURVE",
"515 358 OFFCURVE",
"590 358 CURVE SMOOTH",
"655 358 OFFCURVE",
"739 413 OFFCURVE",
"840 524 CURVE",
"850 518 LINE",
"837 481 OFFCURVE",
"831 454 OFFCURVE",
"831 436 CURVE SMOOTH",
"831 368 OFFCURVE",
"888 352 OFFCURVE",
"975 352 CURVE SMOOTH",
"1281 352 OFFCURVE",
"1526 556 OFFCURVE",
"1526 848 CURVE SMOOTH",
"1526 1175 OFFCURVE",
"1253 1384 OFFCURVE",
"901 1384 CURVE SMOOTH",
"432 1384 OFFCURVE",
"72 1058 OFFCURVE",
"72 602 CURVE SMOOTH",
"72 211 OFFCURVE",
"381 -33 OFFCURVE",
"782 -33 CURVE SMOOTH"
);
},
{
closed = 1;
nodes = (
"639 449 OFFCURVE",
"629 471 OFFCURVE",
"629 518 CURVE SMOOTH",
"629 665 OFFCURVE",
"763 967 OFFCURVE",
"883 967 CURVE SMOOTH",
"926 967 OFFCURVE",
"954 951 OFFCURVE",
"967 920 CURVE",
"924 772 LINE SMOOTH",
"899 692 OFFCURVE",
"866 628 OFFCURVE",
"825 580 CURVE SMOOTH",
"750 493 OFFCURVE",
"694 449 OFFCURVE",
"659 449 CURVE SMOOTH"
);
}
);
userData = {
assembly = "NPUSHB[ ]\011/* 10 values pushed */
39 1 8 4 26 1 9 8 2 76 
MPPEM[ ]\011/* MeasurePixelPerEm */
PUSHB[ ]\011/* 1 value pushed */
60 
LT[ ]\011/* LessThan */
IF[ ]\011/* If */
NPUSHB[ ]\011/* 44 values pushed */
0 4 0 8 9 4 8 105 0 9 5 2 9 89 0 5 3 1 2 7 5 2 105 0 6 6 1 97 0 1 1 74 77 0 7 7 0 97 0 0 0 75 0 78 
ELSE[ ]\011/* Else */
MPPEM[ ]\011/* MeasurePixelPerEm */
PUSHB[ ]\011/* 1 value pushed */
79 
LT[ ]\011/* LessThan */
IF[ ]\011/* If */
NPUSHB[ ]\011/* 42 values pushed */
0 1 0 6 4 1 6 105 0 4 0 8 9 4 8 105 0 9 5 2 9 89 0 5 3 1 2 7 5 2 105 0 7 7 0 97 0 0 0 75 0 78 
ELSE[ ]\011/* Else */
NPUSHB[ ]\011/* 43 values pushed */
0 1 0 6 4 1 6 105 0 4 0 8 9 4 8 105 0 9 0 3 2 9 3 105 0 5 0 2 7 5 2 105 0 7 7 0 97 0 0 0 75 0 78 
EIF[ ]\011/* EndIf */
EIF[ ]\011/* EndIf */
NPUSHB[ ]\011/* 14 values pushed */
78 76 36 38 38 42 38 39 38 38 35 10 11 31 
CALL[ ]\011/* CallFunction */";
};
width = 1595;
},
{
background = {
paths = (
{
closed = 1;
nodes = (
"925 -33 OFFCURVE",
"1057 2 OFFCURVE",
"1168 72 CURVE",
"1151 111 LINE",
"1036 63 OFFCURVE",
"930 39 OFFCURVE",
"834 39 CURVE SMOOTH",
"407 39 OFFCURVE",
"223 311 OFFCURVE",
"223 602 CURVE SMOOTH",
"223 994 OFFCURVE",
"470 1315 OFFCURVE",
"893 1315 CURVE SMOOTH",
"1186 1315 OFFCURVE",
"1407 1119 OFFCURVE",
"1407 844 CURVE SMOOTH",
"1407 599 OFFCURVE",
"1230 426 OFFCURVE",
"991 426 CURVE SMOOTH",
"963 426 OFFCURVE",
"949 441 OFFCURVE",
"949 472 CURVE SMOOTH",
"949 488 OFFCURVE",
"952 508 OFFCURVE",
"959 532 CURVE SMOOTH",
"1100 1024 LINE",
"1010 1024 LINE",
"994 973 LINE",
"961 1000 OFFCURVE",
"928 1014 OFFCURVE",
"893 1014 CURVE SMOOTH",
"690 1014 OFFCURVE",
"488 691 OFFCURVE",
"488 487 CURVE SMOOTH",
"488 402 OFFCURVE",
"519 360 OFFCURVE",
"580 360 CURVE SMOOTH",
"661 360 OFFCURVE",
"762 440 OFFCURVE",
"883 600 CURVE",
"891 596 LINE",
"857 492 OFFCURVE",
"842 441 OFFCURVE",
"842 422 CURVE SMOOTH",
"842 366 OFFCURVE",
"887 358 OFFCURVE",
"965 358 CURVE SMOOTH",
"1286 358 OFFCURVE",
"1495 584 OFFCURVE",
"1495 852 CURVE SMOOTH",
"1495 1144 OFFCURVE",
"1264 1384 OFFCURVE",
"891 1384 CURVE SMOOTH",
"455 1384 OFFCURVE",
"82 1061 OFFCURVE",
"82 600 CURVE SMOOTH",
"82 193 OFFCURVE",
"399 -33 OFFCURVE",
"772 -33 CURVE SMOOTH"
);
},
{
closed = 1;
nodes = (
"613 442 OFFCURVE",
"598 465 OFFCURVE",
"598 512 CURVE SMOOTH",
"598 667 OFFCURVE",
"736 965 OFFCURVE",
"873 965 CURVE SMOOTH",
"938 965 OFFCURVE",
"971 944 OFFCURVE",
"971 901 CURVE",
"949 824 LINE SMOOTH",
"919 716 OFFCURVE",
"884 657 OFFCURVE",
"812 574 CURVE SMOOTH",
"735 486 OFFCURVE",
"678 442 OFFCURVE",
"643 442 CURVE SMOOTH"
);
}
);
};
layerId = "EBD25FEC-6C57-4903-A936-5FDFC9C63FB2";
paths = (
{
closed = 1;
nodes = (
"925 -33 OFFCURVE",
"1057 2 OFFCURVE",
"1168 72 CURVE",
"1151 103 LINE",
"1036 55 OFFCURVE",
"930 19 OFFCURVE",
"834 19 CURVE SMOOTH",
"407 19 OFFCURVE",
"203 311 OFFCURVE",
"203 602 CURVE SMOOTH",
"203 994 OFFCURVE",
"470 1335 OFFCURVE",
"893 1335 CURVE SMOOTH",
"1186 1335 OFFCURVE",
"1427 1119 OFFCURVE",
"1427 844 CURVE SMOOTH",
"1427 589 OFFCURVE",
"1234 416 OFFCURVE",
"975 416 CURVE SMOOTH",
"947 416 OFFCURVE",
"933 436 OFFCURVE",
"933 467 CURVE SMOOTH",
"933 483 OFFCURVE",
"936 508 OFFCURVE",
"943 532 CURVE SMOOTH",
"1084 1024 LINE",
"1010 1024 LINE",
"994 973 LINE",
"961 1000 OFFCURVE",
"928 1014 OFFCURVE",
"893 1014 CURVE SMOOTH",
"700 1014 OFFCURVE",
"498 691 OFFCURVE",
"498 487 CURVE SMOOTH",
"498 402 OFFCURVE",
"519 360 OFFCURVE",
"580 360 CURVE SMOOTH",
"661 360 OFFCURVE",
"762 440 OFFCURVE",
"883 600 CURVE",
"891 596 LINE",
"857 492 OFFCURVE",
"842 441 OFFCURVE",
"842 422 CURVE SMOOTH",
"842 366 OFFCURVE",
"887 358 OFFCURVE",
"965 358 CURVE SMOOTH",
"1286 358 OFFCURVE",
"1495 584 OFFCURVE",
"1495 852 CURVE SMOOTH",
"1495 1144 OFFCURVE",
"1264 1384 OFFCURVE",
"891 1384 CURVE SMOOTH",
"455 1384 OFFCURVE",
"82 1061 OFFCURVE",
"82 600 CURVE SMOOTH",
"82 193 OFFCURVE",
"399 -33 OFFCURVE",
"772 -33 CURVE SMOOTH"
);
},
{
closed = 1;
nodes = (
"603 432 OFFCURVE",
"588 461 OFFCURVE",
"588 512 CURVE SMOOTH",
"588 667 OFFCURVE",
"726 975 OFFCURVE",
"873 975 CURVE SMOOTH",
"938 975 OFFCURVE",
"971 944 OFFCURVE",
"971 901 CURVE",
"949 824 LINE SMOOTH",
"919 716 OFFCURVE",
"884 657 OFFCURVE",
"812 574 CURVE SMOOTH",
"735 486 OFFCURVE",
"678 432 OFFCURVE",
"643 432 CURVE SMOOTH"
);
}
);
width = 1555;
}
);
note = at;
unicode = 0040;
},
{
glyphname = b;
lastChange = "2018-08-19 23:02:53 +0000";
layers = (
{
anchors = (
{
name = bottom;
position = "{512, 0}";
},
{
name = top;
position = "{512, 1485}";
}
);
components = (
{
name = _part.lccap;
transform = "{1, 0, 0, 1, 5, 604}";
}
);
layerId = "6CE37295-6E30-426D-87AF-6FEE9061C297";
paths = (
{
closed = 1;
nodes = (
"274 9 OFFCURVE",
"321 31 OFFCURVE",
"333 31 CURVE SMOOTH",
"356 31 OFFCURVE",
"370 25 OFFCURVE",
"407 7 CURVE SMOOTH",
"454 -16 OFFCURVE",
"498 -23 OFFCURVE",
"536 -23 CURVE SMOOTH",
"822 -23 OFFCURVE",
"980 155 OFFCURVE",
"980 440 CURVE SMOOTH",
"980 680 OFFCURVE",
"807 870 OFFCURVE",
"560 870 CURVE SMOOTH",
"497 870 OFFCURVE",
"441 853 OFFCURVE",
"392 819 CURVE SMOOTH",
"357 795 LINE",
"357 1286 LINE",
"128 1161 LINE",
"128 279 LINE SMOOTH",
"128 137 OFFCURVE",
"126 45 OFFCURVE",
"120 20 CURVE",
"241 -31 LINE"
);
},
{
closed = 1;
nodes = (
"440 57 OFFCURVE",
"357 160 OFFCURVE",
"357 297 CURVE SMOOTH",
"357 695 LINE",
"388 727 LINE SMOOTH",
"416 755 OFFCURVE",
"453 770 OFFCURVE",
"501 770 CURVE SMOOTH",
"651 770 OFFCURVE",
"726 607 OFFCURVE",
"726 428 CURVE SMOOTH",
"726 181 OFFCURVE",
"672 57 OFFCURVE",
"564 57 CURVE SMOOTH"
);
}
);
userData = {
assembly = "NPUSHB[ ]\011/* 10 values pushed */
34 1 4 5 24 1 3 4 2 76 
MPPEM[ ]\011/* MeasurePixelPerEm */
PUSHB[ ]\011/* 1 value pushed */
60 
LT[ ]\011/* LessThan */
IF[ ]\011/* If */
NPUSHB[ ]\011/* 53 values pushed */
0 6 7 8 7 6 8 128 0 1 9 0 9 1 0 128 0 5 5 70 77 0 3 3 4 97 0 4 4 68 77 0 8 8 7 97 0 7 7 71 77 0 9 9 0 97 2 1 0 0 69 0 78 
ELSE[ ]\011/* Else */
MPPEM[ ]\011/* MeasurePixelPerEm */
PUSHB[ ]\011/* 1 value pushed */
114 
LT[ ]\011/* LessThan */
IF[ ]\011/* If */
NPUSHB[ ]\011/* 51 values pushed */
0 6 7 8 7 6 8 128 0 1 9 0 9 1 0 128 0 4 0 3 7 4 3 105 0 5 5 70 77 0 8 8 7 97 0 7 7 71 77 0 9 9 0 97 2 1 0 0 69 0 78 
ELSE[ ]\011/* Else */
NPUSHB[ ]\011/* 55 values pushed */
0 6 7 8 7 6 8 128 0 1 9 2 9 1 2 128 0 4 0 3 7 4 3 105 0 5 5 70 77 0 8 8 7 97 0 7 7 71 77 0 2 2 69 77 0 9 9 0 97 0 0 0 69 0 78 
EIF[ ]\011/* EndIf */
EIF[ ]\011/* EndIf */
NPUSHB[ ]\011/* 14 values pushed */
60 58 38 34 36 36 35 23 51 18 35 10 11 31 
CALL[ ]\011/* CallFunction */";
};
width = 1033;
},
{
anchors = (
{
name = bottom;
position = "{473, 0}";
},
{
name = top;
position = "{473, 1485}";
}
);
components = (
{
name = _part.lccap;
transform = "{1, 0, 0, 1, -40, 604}";
}
);
layerId = "EBD25FEC-6C57-4903-A936-5FDFC9C63FB2";
paths = (
{
closed = 1;
nodes = (
"212 9 OFFCURVE",
"241 33 OFFCURVE",
"263 33 CURVE SMOOTH",
"286 33 OFFCURVE",
"320 23 OFFCURVE",
"348 11 CURVE SMOOTH",
"401 -12 OFFCURVE",
"445 -23 OFFCURVE",
"484 -23 CURVE SMOOTH",
"728 -23 OFFCURVE",
"874 139 OFFCURVE",
"874 430 CURVE SMOOTH",
"874 666 OFFCURVE",
"715 870 OFFCURVE",
"480 870 CURVE SMOOTH",
"425 870 OFFCURVE",
"349 851 OFFCURVE",
"286 815 CURVE SMOOTH",
"253 796 LINE",
"253 1336 LINE",
"136 1178 LINE",
"136 260 LINE SMOOTH",
"136 127 OFFCURVE",
"135 36 OFFCURVE",
"132 -5 CURVE",
"190 -28 LINE"
);
},
{
closed = 1;
nodes = (
"372 29 OFFCURVE",
"253 193 OFFCURVE",
"253 301 CURVE SMOOTH",
"253 722 LINE",
"276 741 LINE SMOOTH",
"316 774 OFFCURVE",
"366 799 OFFCURVE",
"441 799 CURVE SMOOTH",
"604 799 OFFCURVE",
"732 622 OFFCURVE",
"732 414 CURVE SMOOTH",
"732 206 OFFCURVE",
"646 29 OFFCURVE",
"518 29 CURVE SMOOTH"
);
}
);
width = 946;
}
);
leftKerningGroup = b;
note = b;
rightKerningGroup = b;
rightMetricsKey = "=o";
unicode = 0062;
},
{
glyphname = backslash;
lastChange = "2018-08-08 00:20:50 +0000";
layers = (
{
layerId = "6CE37295-6E30-426D-87AF-6FEE9061C297";
paths = (
{
closed = 1;
nodes = (
"727 31 LINE",
"125 1481 LINE",
"-14 1425 LINE",
"594 -19 LINE"
);
}
);
userData = {
assembly = "NPUSHB[ ]\011/* 10 values pushed */
0 0 0 70 0 78 27 1 11 23 
CALL[ ]\011/* CallFunction */";
};
width = 714;
},
{
layerId = "EBD25FEC-6C57-4903-A936-5FDFC9C63FB2";
paths = (
{
closed = 1;
nodes = (
"692 20 LINE",
"79 1468 LINE",
"-5 1432 LINE",
"603 -12 LINE"
);
}
);
width = 694;
}
);
note = backslash;
unicode = 005C;
},
{
glyphname = bar;
lastChange = "2018-08-08 00:21:05 +0000";
layers = (
{
layerId = "6CE37295-6E30-426D-87AF-6FEE9061C297";
paths = (
{
closed = 1;
nodes = (
"391 -334 LINE",
"391 1434 LINE",
"197 1434 LINE",
"197 -334 LINE"
);
}
);
userData = {
assembly = "NPUSHB[ ]\011/* 20 values pushed */
0 0 1 0 133 2 1 1 1 118 0 0 0 3 0 3 17 3 11 23 
CALL[ ]\011/* CallFunction */";
};
width = 534;
},
{
layerId = "EBD25FEC-6C57-4903-A936-5FDFC9C63FB2";
paths = (
{
closed = 1;
nodes = (
"321 -334 LINE",
"321 1434 LINE",
"220 1434 LINE",
"220 -334 LINE"
);
}
);
width = 520;
}
);
note = bar;
unicode = 007C;
},
{
glyphname = braceleft;
lastChange = "2018-08-08 00:21:18 +0000";
layers = (
{
layerId = "6CE37295-6E30-426D-87AF-6FEE9061C297";
paths = (
{
closed = 1;
nodes = (
"716 -244 LINE",
"504 -242 OFFCURVE",
"461 -188 OFFCURVE",
"461 39 CURVE SMOOTH",
"461 305 LINE SMOOTH",
"461 374 OFFCURVE",
"458 427 OFFCURVE",
"449 463 CURVE SMOOTH",
"433 526 OFFCURVE",
"391 574 OFFCURVE",
"334 611 CURVE",
"334 616 LINE",
"391 649 OFFCURVE",
"427 694 OFFCURVE",
"444 750 CURVE SMOOTH",
"455 788 OFFCURVE",
"461 855 OFFCURVE",
"461 950 CURVE SMOOTH",
"461 1184 LINE SMOOTH",
"461 1369 OFFCURVE",
"530 1417 OFFCURVE",
"716 1417 CURVE",
"713 1493 LINE",
"361 1493 OFFCURVE",
"250 1458 OFFCURVE",
"250 1122 CURVE SMOOTH",
"250 797 LINE SMOOTH",
"250 695 OFFCURVE",
"206 647 OFFCURVE",
"96 647 CURVE",
"96 586 LINE",
"201 584 OFFCURVE",
"250 540 OFFCURVE",
"250 430 CURVE SMOOTH",
"250 6 LINE SMOOTH",
"250 -289 OFFCURVE",
"389 -319 OFFCURVE",
"716 -319 CURVE"
);
}
);
userData = {
assembly = "NPUSHB[ ]\011/* 52 values pushed */
37 1 1 2 1 76 0 2 0 1 5 2 1 105 0 5 6 1 0 5 0 101 0 4 4 3 97 0 3 3 70 4 78 1 0 46 45 29 27 25 24 15 13 11 10 0 48 1 48 7 11 22 
CALL[ ]\011/* CallFunction */";
};
width = 782;
},
{
background = {
paths = (
{
closed = 1;
nodes = (
"730 -286 LINE",
"620 -287 OFFCURVE",
"542 -268 OFFCURVE",
"494 -230 CURVE SMOOTH",
"445 -191 OFFCURVE",
"421 -113 OFFCURVE",
"421 5 CURVE SMOOTH",
"421 287 LINE SMOOTH",
"421 392 OFFCURVE",
"416 460 OFFCURVE",
"407 492 CURVE SMOOTH",
"387 567 OFFCURVE",
"333 612 OFFCURVE",
"238 616 CURVE",
"238 624 LINE",
"325 634 OFFCURVE",
"388 678 OFFCURVE",
"411 753 CURVE SMOOTH",
"417 774 OFFCURVE",
"421 847 OFFCURVE",
"421 973 CURVE SMOOTH",
"421 1220 LINE",
"421 1304 OFFCURVE",
"443 1365 OFFCURVE",
"488 1401 CURVE SMOOTH",
"538 1441 OFFCURVE",
"618 1461 OFFCURVE",
"730 1461 CURVE",
"731 1493 LINE",
"628 1493 OFFCURVE",
"506 1491 OFFCURVE",
"411 1462 CURVE SMOOTH",
"393 1448 OFFCURVE",
"378 1429 OFFCURVE",
"359 1392 CURVE SMOOTH",
"322 1321 OFFCURVE",
"321 1240 OFFCURVE",
"321 1157 CURVE SMOOTH",
"321 812 LINE SMOOTH",
"321 691 OFFCURVE",
"237 629 OFFCURVE",
"81 629 CURVE",
"81 607 LINE",
"240 608 OFFCURVE",
"321 542 OFFCURVE",
"321 421 CURVE SMOOTH",
"321 -30 LINE SMOOTH",
"321 -113 OFFCURVE",
"333 -175 OFFCURVE",
"358 -216 CURVE SMOOTH",
"394 -272 OFFCURVE",
"434 -298 OFFCURVE",
"492 -305 CURVE SMOOTH",
"550 -315 OFFCURVE",
"628 -319 OFFCURVE",
"730 -319 CURVE"
);
}
);
};
layerId = "EBD25FEC-6C57-4903-A936-5FDFC9C63FB2";
paths = (
{
closed = 1;
nodes = (
"730 -286 LINE",
"500 -286 OFFCURVE",
"421 -218 OFFCURVE",
"421 5 CURVE SMOOTH",
"421 287 LINE SMOOTH",
"421 392 OFFCURVE",
"416 460 OFFCURVE",
"407 492 CURVE SMOOTH",
"387 567 OFFCURVE",
"333 612 OFFCURVE",
"238 616 CURVE",
"238 624 LINE",
"325 634 OFFCURVE",
"388 678 OFFCURVE",
"411 753 CURVE SMOOTH",
"417 774 OFFCURVE",
"421 847 OFFCURVE",
"421 973 CURVE SMOOTH",
"421 1220 LINE SMOOTH",
"421 1402 OFFCURVE",
"525 1461 OFFCURVE",
"731 1461 CURVE",
"731 1493 LINE",
"405 1493 OFFCURVE",
"321 1489 OFFCURVE",
"321 1157 CURVE SMOOTH",
"321 812 LINE SMOOTH",
"321 691 OFFCURVE",
"237 629 OFFCURVE",
"81 629 CURVE",
"81 607 LINE",
"240 607 OFFCURVE",
"321 542 OFFCURVE",
"321 421 CURVE SMOOTH",
"321 -30 LINE SMOOTH",
"321 -304 OFFCURVE",
"440 -319 OFFCURVE",
"730 -319 CURVE"
);
}
);
width = 799;
}
);
note = braceleft;
unicode = 007B;
},
{
glyphname = braceright;
lastChange = "2018-08-08 00:21:34 +0000";
layers = (
{
background = {
paths = (
{
closed = 1;
nodes = (
"184 -319 OFFCURVE",
"264 -316 OFFCURVE",
"307 -309 CURVE SMOOTH",
"400 -292 OFFCURVE",
"462 -251 OFFCURVE",
"495 -184 CURVE SMOOTH",
"520 -136 OFFCURVE",
"532 -73 OFFCURVE",
"532 6 CURVE SMOOTH",
"532 430 LINE SMOOTH",
"532 540 OFFCURVE",
"581 584 OFFCURVE",
"686 586 CURVE",
"686 647 LINE",
"576 647 OFFCURVE",
"532 695 OFFCURVE",
"532 797 CURVE SMOOTH",
"532 1122 LINE SMOOTH",
"532 1268 OFFCURVE",
"505 1367 OFFCURVE",
"450 1419 CURVE SMOOTH",
"409 1458 OFFCURVE",
"341 1482 OFFCURVE",
"245 1489 CURVE SMOOTH",
"210 1492 OFFCURVE",
"151 1493 OFFCURVE",
"69 1493 CURVE",
"67 1417 LINE",
"156 1417 OFFCURVE",
"217 1405 OFFCURVE",
"252 1380 CURVE SMOOTH",
"299 1349 OFFCURVE",
"322 1283 OFFCURVE",
"321 1184 CURVE",
"321 950 LINE SMOOTH",
"321 855 OFFCURVE",
"327 788 OFFCURVE",
"338 750 CURVE SMOOTH",
"355 694 OFFCURVE",
"391 649 OFFCURVE",
"448 616 CURVE",
"448 611 LINE",
"391 574 OFFCURVE",
"349 526 OFFCURVE",
"333 463 CURVE SMOOTH",
"324 427 OFFCURVE",
"321 374 OFFCURVE",
"321 305 CURVE SMOOTH",
"321 39 LINE SMOOTH",
"321 -70 OFFCURVE",
"307 -144 OFFCURVE",
"278 -182 CURVE SMOOTH",
"249 -223 OFFCURVE",
"177 -243 OFFCURVE",
"66 -244 CURVE",
"67 -319 LINE"
);
}
);
};
layerId = "6CE37295-6E30-426D-87AF-6FEE9061C297";
paths = (
{
closed = 1;
nodes = (
"393 -319 OFFCURVE",
"532 -289 OFFCURVE",
"532 6 CURVE SMOOTH",
"532 430 LINE SMOOTH",
"532 540 OFFCURVE",
"581 584 OFFCURVE",
"686 586 CURVE",
"686 647 LINE",
"576 647 OFFCURVE",
"532 695 OFFCURVE",
"532 797 CURVE SMOOTH",
"532 1122 LINE SMOOTH",
"532 1458 OFFCURVE",
"421 1493 OFFCURVE",
"69 1493 CURVE",
"66 1417 LINE",
"252 1417 OFFCURVE",
"321 1369 OFFCURVE",
"321 1184 CURVE SMOOTH",
"321 950 LINE SMOOTH",
"321 855 OFFCURVE",
"327 788 OFFCURVE",
"338 750 CURVE SMOOTH",
"354 694 OFFCURVE",
"391 649 OFFCURVE",
"448 616 CURVE",
"448 611 LINE",
"391 574 OFFCURVE",
"349 526 OFFCURVE",
"333 463 CURVE SMOOTH",
"324 427 OFFCURVE",
"321 374 OFFCURVE",
"321 305 CURVE SMOOTH",
"321 39 LINE SMOOTH",
"321 -188 OFFCURVE",
"278 -242 OFFCURVE",
"66 -244 CURVE",
"66 -319 LINE"
);
}
);
userData = {
assembly = "NPUSHB[ ]\011/* 51 values pushed */
12 1 4 3 1 76 0 3 0 4 0 3 4 105 0 0 6 1 5 0 5 101 0 1 1 2 97 0 2 2 70 1 78 0 0 0 46 0 46 39 37 35 34 25 23 21 20 34 7 11 23 
CALL[ ]\011/* CallFunction */";
};
width = 782;
},
{
background = {
paths = (
{
closed = 1;
nodes = (
"172 -319 OFFCURVE",
"250 -315 OFFCURVE",
"308 -305 CURVE SMOOTH",
"366 -295 OFFCURVE",
"406 -272 OFFCURVE",
"442 -216 CURVE SMOOTH",
"468 -176 OFFCURVE",
"479 -113 OFFCURVE",
"479 -30 CURVE SMOOTH",
"479 421 LINE SMOOTH",
"479 542 OFFCURVE",
"560 608 OFFCURVE",
"719 607 CURVE",
"719 629 LINE",
"563 629 OFFCURVE",
"479 691 OFFCURVE",
"479 812 CURVE SMOOTH",
"479 1157 LINE SMOOTH",
"479 1240 OFFCURVE",
"478 1321 OFFCURVE",
"441 1392 CURVE SMOOTH",
"422 1429 OFFCURVE",
"407 1448 OFFCURVE",
"389 1462 CURVE SMOOTH",
"311 1523 OFFCURVE",
"172 1493 OFFCURVE",
"69 1493 CURVE",
"70 1461 LINE",
"182 1461 OFFCURVE",
"262 1441 OFFCURVE",
"312 1401 CURVE SMOOTH",
"357 1365 OFFCURVE",
"379 1304 OFFCURVE",
"379 1220 CURVE",
"379 973 LINE SMOOTH",
"379 847 OFFCURVE",
"383 774 OFFCURVE",
"389 753 CURVE SMOOTH",
"411 678 OFFCURVE",
"475 634 OFFCURVE",
"562 624 CURVE",
"562 616 LINE",
"467 612 OFFCURVE",
"414 567 OFFCURVE",
"393 492 CURVE SMOOTH",
"384 460 OFFCURVE",
"379 392 OFFCURVE",
"379 287 CURVE SMOOTH",
"379 5 LINE SMOOTH",
"379 -113 OFFCURVE",
"355 -191 OFFCURVE",
"306 -230 CURVE SMOOTH",
"258 -268 OFFCURVE",
"180 -287 OFFCURVE",
"70 -286 CURVE",
"70 -319 LINE"
);
}
);
};
layerId = "EBD25FEC-6C57-4903-A936-5FDFC9C63FB2";
paths = (
{
closed = 1;
nodes = (
"357 -319 OFFCURVE",
"476 -304 OFFCURVE",
"476 -30 CURVE SMOOTH",
"476 421 LINE SMOOTH",
"476 542 OFFCURVE",
"557 607 OFFCURVE",
"716 607 CURVE",
"716 629 LINE",
"560 629 OFFCURVE",
"476 691 OFFCURVE",
"476 812 CURVE SMOOTH",
"476 1157 LINE SMOOTH",
"476 1489 OFFCURVE",
"392 1493 OFFCURVE",
"66 1493 CURVE",
"66 1461 LINE",
"272 1461 OFFCURVE",
"376 1402 OFFCURVE",
"376 1220 CURVE SMOOTH",
"376 973 LINE SMOOTH",
"376 847 OFFCURVE",
"380 774 OFFCURVE",
"386 753 CURVE SMOOTH",
"407 678 OFFCURVE",
"472 634 OFFCURVE",
"559 624 CURVE",
"559 616 LINE",
"464 612 OFFCURVE",
"411 567 OFFCURVE",
"390 492 CURVE SMOOTH",
"381 460 OFFCURVE",
"376 392 OFFCURVE",
"376 287 CURVE SMOOTH",
"376 5 LINE SMOOTH",
"376 -218 OFFCURVE",
"297 -286 OFFCURVE",
"67 -286 CURVE",
"67 -319 LINE"
);
}
);
width = 799;
}
);
leftKerningGroup = braceright;
note = braceright;
unicode = 007D;
},
{
glyphname = bracketleft;
lastChange = "2018-08-08 00:21:51 +0000";
layers = (
{
background = {
paths = (
{
closed = 1;
nodes = (
"774 -354 OFFCURVE",
"774 -258 OFFCURVE",
"754 -258 QCURVE SMOOTH",
"522 -258 LINE SMOOTH",
"508 -258 OFFCURVE",
"508 -229 QCURVE SMOOTH",
"508 1411 LINE SMOOTH",
"508 1434 OFFCURVE",
"528 1434 QCURVE SMOOTH",
"754 1434 LINE SMOOTH",
"774 1434 OFFCURVE",
"774 1530 OFFCURVE",
"754 1530 QCURVE SMOOTH",
"315 1530 LINE",
"295 1529 OFFCURVE",
"295 1511 QCURVE SMOOTH",
"295 -332 LINE",
"294 -354 OFFCURVE",
"317 -354 QCURVE SMOOTH",
"754 -354 LINE SMOOTH"
);
}
);
};
layerId = "6CE37295-6E30-426D-87AF-6FEE9061C297";
paths = (
{
closed = 1;
nodes = (
"766 -354 LINE",
"766 -256 LINE",
"506 -256 LINE",
"506 1432 LINE",
"766 1432 LINE",
"766 1530 LINE",
"287 1530 LINE",
"287 -354 LINE"
);
}
);
userData = {
assembly = "PUSHB[ ]\011/* 6 values pushed */
4 1 2 1 1 76 
MPPEM[ ]\011/* MeasurePixelPerEm */
PUSHB[ ]\011/* 1 value pushed */
23 
LT[ ]\011/* LessThan */
IF[ ]\011/* If */
NPUSHB[ ]\011/* 19 values pushed */
0 3 4 1 0 3 0 99 0 2 2 1 95 0 1 1 70 2 78 
ELSE[ ]\011/* Else */
NPUSHB[ ]\011/* 25 values pushed */
0 1 0 2 3 1 2 103 0 3 0 0 3 87 0 3 3 0 95 4 1 0 3 0 79 
EIF[ ]\011/* EndIf */
NPUSHB[ ]\011/* 15 values pushed */
2 0 18 15 12 9 8 6 0 19 2 19 5 11 22 
CALL[ ]\011/* CallFunction */";
};
width = 796;
},
{
layerId = "EBD25FEC-6C57-4903-A936-5FDFC9C63FB2";
paths = (
{
closed = 1;
nodes = (
"666 -354 LINE",
"666 -286 LINE",
"406 -286 LINE",
"406 1462 LINE",
"666 1462 LINE",
"666 1530 LINE",
"287 1530 LINE",
"287 -354 LINE"
);
}
);
width = 711;
}
);
note = bracketleft;
unicode = 005B;
},
{
glyphname = bracketright;
lastChange = "2018-08-08 00:21:58 +0000";
layers = (
{
layerId = "6CE37295-6E30-426D-87AF-6FEE9061C297";
paths = (
{
closed = 1;
nodes = (
"509 -354 LINE",
"509 1530 LINE",
"30 1530 LINE",
"30 1432 LINE",
"290 1432 LINE",
"290 -256 LINE",
"30 -256 LINE",
"30 -354 LINE"
);
}
);
userData = {
assembly = "PUSHB[ ]\011/* 6 values pushed */
9 1 1 2 1 76 
MPPEM[ ]\011/* MeasurePixelPerEm */
PUSHB[ ]\011/* 1 value pushed */
23 
LT[ ]\011/* LessThan */
IF[ ]\011/* If */
NPUSHB[ ]\011/* 18 values pushed */
0 1 0 0 1 0 99 0 2 2 3 95 0 3 3 70 2 78 
ELSE[ ]\011/* Else */
NPUSHB[ ]\011/* 24 values pushed */
0 3 0 2 1 3 2 103 0 1 0 0 1 87 0 1 1 0 95 0 0 1 0 79 
EIF[ ]\011/* EndIf */
PUSHB[ ]\011/* 7 values pushed */
49 52 33 49 4 11 26 
CALL[ ]\011/* CallFunction */";
};
width = 796;
},
{
layerId = "EBD25FEC-6C57-4903-A936-5FDFC9C63FB2";
paths = (
{
closed = 1;
nodes = (
"424 -354 LINE",
"424 1530 LINE",
"45 1530 LINE",
"45 1462 LINE",
"305 1462 LINE",
"305 -286 LINE",
"45 -286 LINE",
"45 -354 LINE"
);
}
);
width = 711;
}
);
leftKerningGroup = braceright;
note = bracketright;
unicode = 005D;
},
{
glyphname = breve;
lastChange = "2018-07-27 13:50:44 +0000";
layers = (
{
layerId = "6CE37295-6E30-426D-87AF-6FEE9061C297";
paths = (
{
closed = 1;
nodes = (
"581.667 1020 OFFCURVE",
"678 1122.333 OFFCURVE",
"678 1327 CURVE",
"616 1327 LINE",
"590 1212.333 OFFCURVE",
"514.333 1155 OFFCURVE",
"389 1155 CURVE SMOOTH",
"263.667 1155 OFFCURVE",
"188 1212.333 OFFCURVE",
"162 1327 CURVE",
"100 1327 LINE",
"100 1122.333 OFFCURVE",
"196.333 1020 OFFCURVE",
"389 1020 CURVE SMOOTH"
);
}
);
userData = {
assembly = "PUSHB[ ]\011/* 2 values pushed */
6 100 
WCVTP[ ]\011/* WriteCVTInPixels */
NPUSHB[ ]\011/* 35 values pushed */
4 1 2 1 1 76 3 1 1 2 1 133 0 2 0 0 2 89 0 2 2 0 98 0 0 2 0 82 19 34 19 33 4 11 26 
CALL[ ]\011/* CallFunction */
PUSHB[ ]\011/* 2 values pushed */
6 0 
WCVTP[ ]\011/* WriteCVTInPixels */";
};
width = 776;
},
{
layerId = "EBD25FEC-6C57-4903-A936-5FDFC9C63FB2";
paths = (
{
closed = 1;
nodes = (
"549 1020 OFFCURVE",
"636 1112 OFFCURVE",
"636 1295 CURVE",
"603 1295 LINE",
"578 1186 OFFCURVE",
"497 1116 OFFCURVE",
"367 1116 CURVE SMOOTH",
"237 1116 OFFCURVE",
"156 1186 OFFCURVE",
"133 1295 CURVE",
"102 1295 LINE",
"102 1112 OFFCURVE",
"188 1020 OFFCURVE",
"369 1020 CURVE SMOOTH"
);
}
);
width = 737;
}
);
note = breve;
unicode = 02D8;
},
{
glyphname = brokenbar;
lastChange = "2018-08-08 00:22:16 +0000";
layers = (
{
layerId = "6CE37295-6E30-426D-87AF-6FEE9061C297";
paths = (
{
closed = 1;
nodes = (
"391 795 LINE",
"391 1372 LINE",
"197 1372 LINE",
"197 795 LINE"
);
},
{
closed = 1;
nodes = (
"391 109 LINE",
"391 688 LINE",
"197 688 LINE",
"197 109 LINE"
);
}
);
userData = {
assembly = "MPPEM[ ]\011/* MeasurePixelPerEm */
PUSHB[ ]\011/* 1 value pushed */
60 
LT[ ]\011/* LessThan */
IF[ ]\011/* If */
NPUSHB[ ]\011/* 18 values pushed */
0 3 0 2 3 2 99 0 0 0 1 95 0 1 1 68 0 78 
ELSE[ ]\011/* Else */
NPUSHB[ ]\011/* 24 values pushed */
0 1 0 0 3 1 0 103 0 3 2 2 3 87 0 3 3 2 95 0 2 3 2 79 
EIF[ ]\011/* EndIf */
PUSHB[ ]\011/* 7 values pushed */
17 17 17 16 4 11 26 
CALL[ ]\011/* CallFunction */";
};
width = 534;
},
{
layerId = "EBD25FEC-6C57-4903-A936-5FDFC9C63FB2";
paths = (
{
closed = 1;
nodes = (
"321 834 LINE",
"321 1372 LINE",
"220 1372 LINE",
"220 834 LINE"
);
},
{
closed = 1;
nodes = (
"321 111 LINE",
"321 647 LINE",
"220 647 LINE",
"220 111 LINE"
);
}
);
width = 520;
}
);
note = brokenbar;
unicode = 00A6;
},
{
glyphname = bullet;
lastChange = "2018-08-08 00:22:29 +0000";
layers = (
{
layerId = "6CE37295-6E30-426D-87AF-6FEE9061C297";
paths = (
{
closed = 1;
nodes = (
"579 368 OFFCURVE",
"723 504 OFFCURVE",
"723 688 CURVE SMOOTH",
"723 866 OFFCURVE",
"582 1008 OFFCURVE",
"403 1008 CURVE SMOOTH",
"229 1008 OFFCURVE",
"86 871 OFFCURVE",
"86 688 CURVE SMOOTH",
"86 507 OFFCURVE",
"227 368 OFFCURVE",
"403 368 CURVE SMOOTH"
);
}
);
userData = {
assembly = "NPUSHB[ ]\011/* 29 values pushed */
2 1 0 1 1 0 89 2 1 0 0 1 97 0 1 0 1 81 1 0 8 7 0 13 1 13 3 11 22 
CALL[ ]\011/* CallFunction */";
};
width = 806;
},
{
layerId = "EBD25FEC-6C57-4903-A936-5FDFC9C63FB2";
paths = (
{
closed = 1;
nodes = (
"507 513 OFFCURVE",
"610 609 OFFCURVE",
"610 742 CURVE SMOOTH",
"610 881 OFFCURVE",
"519 988 OFFCURVE",
"381 988 CURVE SMOOTH",
"240 988 OFFCURVE",
"127 897 OFFCURVE",
"127 759 CURVE SMOOTH",
"127 616 OFFCURVE",
"229 513 OFFCURVE",
"381 513 CURVE SMOOTH"
);
}
);
width = 734;
}
);
note = bullet;
unicode = 2022;
},
{
glyphname = c;
lastChange = "2018-08-19 23:03:59 +0000";
layers = (
{
anchors = (
{
name = bottom;
position = "{446, 0}";
},
{
name = top;
position = "{496, 848}";
}
);
layerId = "6CE37295-6E30-426D-87AF-6FEE9061C297";
paths = (
{
closed = 1;
nodes = (
"586 -23 OFFCURVE",
"690 11 OFFCURVE",
"792 96 CURVE",
"737 180 LINE",
"685 143 OFFCURVE",
"623 125 OFFCURVE",
"550 125 CURVE SMOOTH",
"402 125 OFFCURVE",
"282 272 OFFCURVE",
"282 436 CURVE SMOOTH",
"282 594 OFFCURVE",
"358 774 OFFCURVE",
"489 774 CURVE SMOOTH",
"563 774 OFFCURVE",
"579 772 OFFCURVE",
"640 666 CURVE SMOOTH",
"651 647 OFFCURVE",
"671 638 OFFCURVE",
"696 638 CURVE SMOOTH",
"746 638 OFFCURVE",
"792 695 OFFCURVE",
"792 756 CURVE SMOOTH",
"792 773 OFFCURVE",
"789 786 OFFCURVE",
"786 797 CURVE",
"749 859 OFFCURVE",
"614 870 OFFCURVE",
"509 870 CURVE SMOOTH",
"250 870 OFFCURVE",
"53 646 OFFCURVE",
"53 387 CURVE SMOOTH",
"53 165 OFFCURVE",
"230 -23 OFFCURVE",
"444 -23 CURVE SMOOTH"
);
}
);
userData = {
assembly = "NPUSHB[ ]\011/* 47 values pushed */
5 1 0 1 2 1 0 2 128 0 1 1 4 97 0 4 4 71 77 0 2 2 3 97 0 3 3 69 3 78 1 0 31 29 23 21 14 12 6 4 0 39 1 39 6 11 22 
CALL[ ]\011/* CallFunction */";
};
width = 837;
},
{
anchors = (
{
name = bottom;
position = "{430, 0}";
},
{
name = top;
position = "{480, 848}";
}
);
layerId = "EBD25FEC-6C57-4903-A936-5FDFC9C63FB2";
paths = (
{
closed = 1;
nodes = (
"536 -23 OFFCURVE",
"658 27 OFFCURVE",
"743 112 CURVE",
"715 156 LINE",
"624 110 OFFCURVE",
"550 80 OFFCURVE",
"499 80 CURVE SMOOTH",
"363 80 OFFCURVE",
"202 229 OFFCURVE",
"202 440 CURVE SMOOTH",
"202 651 OFFCURVE",
"343 811 OFFCURVE",
"470 811 CURVE SMOOTH",
"533 811 OFFCURVE",
"604 774 OFFCURVE",
"656 703 CURVE SMOOTH",
"662 694 OFFCURVE",
"670 690 OFFCURVE",
"679 690 CURVE SMOOTH",
"708 690 OFFCURVE",
"738 723 OFFCURVE",
"738 754 CURVE SMOOTH",
"738 771 OFFCURVE",
"736 784 OFFCURVE",
"732 792 CURVE",
"690 846 OFFCURVE",
"611 870 OFFCURVE",
"492 870 CURVE SMOOTH",
"233 870 OFFCURVE",
"72 643 OFFCURVE",
"72 396 CURVE SMOOTH",
"72 149 OFFCURVE",
"218 -23 OFFCURVE",
"415 -23 CURVE SMOOTH"
);
}
);
width = 800;
}
);
leftKerningGroup = c;
leftMetricsKey = "=o";
note = c;
rightKerningGroup = c;
unicode = 0063;
},
{
glyphname = caron;
lastChange = "2018-08-02 01:25:37 +0000";
layers = (
{
background = {
paths = (
{
closed = 0;
nodes = (
"401 1247 LINE",
"401 998 LINE"
);
}
);
};
layerId = "6CE37295-6E30-426D-87AF-6FEE9061C297";
paths = (
{
closed = 1;
nodes = (
"433 1022 LINE",
"654 1414 LINE",
"600 1449 LINE",
"367 1174 LINE",
"434 1174 LINE",
"200 1449 LINE",
"146 1414 LINE",
"367 1022 LINE"
);
}
);
userData = {
assembly = "PUSHB[ ]\011/* 2 values pushed */
6 100 
WCVTP[ ]\011/* WriteCVTInPixels */
NPUSHB[ ]\011/* 21 values pushed */
0 1 0 0 1 89 0 1 1 0 97 0 0 1 0 81 27 34 2 11 24 
CALL[ ]\011/* CallFunction */
PUSHB[ ]\011/* 2 values pushed */
6 0 
WCVTP[ ]\011/* WriteCVTInPixels */";
};
width = 797;
},
{
layerId = "EBD25FEC-6C57-4903-A936-5FDFC9C63FB2";
paths = (
{
closed = 1;
nodes = (
"423 1022 LINE",
"647 1419 LINE",
"620 1438 LINE",
"383 1159 LINE",
"417 1159 LINE",
"180 1437 LINE",
"153 1419 LINE",
"377 1022 LINE"
);
}
);
width = 797;
}
);
note = caron;
unicode = 02C7;
},
{
glyphname = caron.alt;
lastChange = "2018-07-27 14:19:52 +0000";
layers = (
{
layerId = "6CE37295-6E30-426D-87AF-6FEE9061C297";
paths = (
{
closed = 1;
nodes = (
"559 1130 LINE",
"622 1242 OFFCURVE",
"653 1356 OFFCURVE",
"653 1470 CURVE",
"473 1499 LINE",
"487 1457 OFFCURVE",
"500 1399 OFFCURVE",
"500 1320 CURVE SMOOTH",
"500 1267 OFFCURVE",
"492 1217 OFFCURVE",
"475 1170 CURVE"
);
}
);
userData = {
assembly = "NPUSHB[ ]\011/* 22 values pushed */
13 1 0 1 1 76 0 0 0 1 97 0 1 1 70 0 78 60 19 2 11 24 
CALL[ ]\011/* CallFunction */";
};
width = 825;
},
{
layerId = "EBD25FEC-6C57-4903-A936-5FDFC9C63FB2";
paths = (
{
closed = 1;
nodes = (
"526 1114 LINE",
"571 1227 OFFCURVE",
"596 1332 OFFCURVE",
"596 1480 CURVE",
"477 1489 LINE",
"482 1465 OFFCURVE",
"494 1408 OFFCURVE",
"494 1332 CURVE SMOOTH",
"494 1267 OFFCURVE",
"484 1203 OFFCURVE",
"466 1138 CURVE"
);
}
);
width = 600;
}
);
note = caron.alt;
},
